<?xml version="1.0" encoding="UTF-8" standalone="no"?>
<!-- Created with Inkscape (http://www.inkscape.org/) -->

<svg
   xmlns:dc="http://purl.org/dc/elements/1.1/"
   xmlns:cc="http://creativecommons.org/ns#"
   xmlns:rdf="http://www.w3.org/1999/02/22-rdf-syntax-ns#"
   xmlns:svg="http://www.w3.org/2000/svg"
   xmlns="http://www.w3.org/2000/svg"
   xmlns:xlink="http://www.w3.org/1999/xlink"
   xmlns:sodipodi="http://sodipodi.sourceforge.net/DTD/sodipodi-0.dtd"
   xmlns:inkscape="http://www.inkscape.org/namespaces/inkscape"
   width="64px"
   height="64px"
   id="svg2985"
   version="1.1"
   inkscape:version="0.48.4 r9939"
   sodipodi:docname="astroid.svg"
   inkscape:export-filename="E:\CS104 Backup\CS104\Project 2\astroidVector.png"
   inkscape:export-xdpi="135"
   inkscape:export-ydpi="135">
  <defs
     id="defs2987">
    <linearGradient
       id="linearGradient3007">
      <stop
         style="stop-color:#999999;stop-opacity:1;"
         offset="0"
         id="stop3009" />
      <stop
         style="stop-color:#262626;stop-opacity:1;"
         offset="1"
         id="stop3011" />
    </linearGradient>
    <radialGradient
       inkscape:collect="always"
       xlink:href="#linearGradient3007"
       id="radialGradient3025"
       cx="-1042.3672"
       cy="57.823025"
       fx="-1042.3672"
       fy="57.823025"
       r="30.5"
       gradientUnits="userSpaceOnUse"
       gradientTransform="matrix(0.57533823,0.87552286,-1.1475412,0.75409777,711.06803,911.01214)" />
    <radialGradient
       inkscape:collect="always"
       xlink:href="#linearGradient3007"
       id="radialGradient4119"
       cx="12.171885"
       cy="25.218365"
       fx="12.171885"
       fy="25.218365"
       r="2.9236531"
       gradientTransform="matrix(5.9915815,-1.0893759,0.68407355,3.7624163,-74.180059,-49.622224)"
       gradientUnits="userSpaceOnUse" />
    <radialGradient
       inkscape:collect="always"
       xlink:href="#linearGradient3007"
       id="radialGradient4121"
       cx="22.01688"
       cy="37.086433"
       fx="22.01688"
       fy="37.086433"
       r="6.5548568"
       gradientTransform="matrix(1.2204691,2.1358214,-1.7890367,1.0223033,62.478071,-45.937708)"
       gradientUnits="userSpaceOnUse" />
    <radialGradient
       inkscape:collect="always"
       xlink:href="#linearGradient3007"
       id="radialGradient4123"
       cx="26.0383"
       cy="17.467934"
       fx="26.0383"
       fy="17.467934"
       r="6.4185781"
       gradientTransform="matrix(0.93478652,1.5579775,-1.0471192,0.62827,20.950758,-31.541663)"
       gradientUnits="userSpaceOnUse" />
    <radialGradient
       inkscape:collect="always"
       xlink:href="#linearGradient3007"
       id="radialGradient4125"
       cx="38.098602"
       cy="35.233345"
       fx="38.098602"
       fy="35.233345"
       r="8.5571445"
       gradientTransform="matrix(1.0517524,1.2854755,-1.1318783,0.92607649,40.809566,-44.603592)"
       gradientUnits="userSpaceOnUse" />
    <radialGradient
       inkscape:collect="always"
       xlink:href="#linearGradient3007"
       id="radialGradient4127"
       cx="51"
       cy="20.43899"
       fx="51"
       fy="20.43899"
       r="6.4170219"
       gradientTransform="matrix(-1.2466841,-0.93501334,0.69297918,-0.92397119,100.41709,87.570719)"
       gradientUnits="userSpaceOnUse" />
    <radialGradient
       inkscape:collect="always"
       xlink:href="#linearGradient3007"
       id="radialGradient4137"
       cx="54"
       cy="37.008739"
       fx="54"
       fy="37.008739"
       r="2.6041796"
       gradientTransform="matrix(1,0,0,2.6530785,0,-60.18709)"
       gradientUnits="userSpaceOnUse" />
    <radialGradient
       inkscape:collect="always"
       xlink:href="#linearGradient3007"
       id="radialGradient4147"
       cx="37.795715"
       cy="54.898876"
       fx="37.795715"
       fy="54.898876"
       r="8.0561566"
       gradientTransform="matrix(1.5686791,0.46326409,-0.23214365,0.78607192,-8.544925,-5.6638638)"
       gradientUnits="userSpaceOnUse" />
  </defs>
  <sodipodi:namedview
     id="base"
     pagecolor="#ffffff"
     bordercolor="#666666"
     borderopacity="1.0"
     inkscape:pageopacity="0.0"
     inkscape:pageshadow="2"
     inkscape:zoom="11"
     inkscape:cx="26.378214"
     inkscape:cy="24.770258"
     inkscape:current-layer="layer1"
     showgrid="true"
     inkscape:document-units="px"
     inkscape:grid-bbox="true"
     inkscape:window-width="1920"
     inkscape:window-height="1017"
     inkscape:window-x="-8"
     inkscape:window-y="-8"
     inkscape:window-maximized="1">
    <inkscape:grid
       type="xygrid"
       id="grid2993"
       empspacing="16"
       visible="true"
       enabled="true"
       snapvisiblegridlinesonly="true" />
  </sodipodi:namedview>
  <metadata
     id="metadata2990">
    <rdf:RDF>
      <cc:Work
         rdf:about="">
        <dc:format>image/svg+xml</dc:format>
        <dc:type
           rdf:resource="http://purl.org/dc/dcmitype/StillImage" />
        <dc:title />
      </cc:Work>
    </rdf:RDF>
  </metadata>
  <g
     id="layer1"
     inkscape:label="Layer 1"
     inkscape:groupmode="layer">
    <path
       sodipodi:type="arc"
       style="fill:url(#radialGradient3025);fill-opacity:1;stroke:#000000;stroke-width:3;stroke-miterlimit:4;stroke-opacity:1;stroke-dasharray:none"
       id="path2999"
       sodipodi:cx="32"
       sodipodi:cy="32"
       sodipodi:rx="29"
       sodipodi:ry="29"
       d="M 61,32 A 29,29 0 1 1 3,32 29,29 0 1 1 61,32 z" />
    <path
       style="fill:url(#radialGradient4123);stroke:#000000;stroke-width:1px;stroke-linecap:butt;stroke-linejoin:miter;stroke-opacity:1;fill-opacity:1"
       d="M 27,9 C 26.69697,8.939394 26.393939,8.8787879 26.090909,8.8181818 c -0.09091,0 -0.182732,0.012856 -0.272727,0 -0.247374,-0.035339 -0.480788,-0.1407373 -0.727273,-0.1818182 -0.05978,-0.00996 -0.121212,0 -0.181818,0 -0.30303,0 -0.606061,0 -0.909091,0 -0.515152,0 -1.030303,0 -1.545455,0 -0.03555,0 -0.597154,-0.01307 -0.636363,0 -0.04066,0.013552 -0.05112,0.074993 -0.09091,0.090909 -0.332572,0.1330289 -0.304382,0.021103 -0.545455,0.1818182 -0.03566,0.023772 -0.05025,0.077357 -0.09091,0.090909 -0.0575,0.019165 -0.124322,-0.019165 -0.181818,0 -0.04066,0.013552 -0.06061,0.060606 -0.09091,0.090909 -0.09091,0.090909 -0.181818,0.1818182 -0.272727,0.2727273 -0.04786,0.04786 -0.248451,0.2241742 -0.272728,0.2727272 -0.01355,0.027104 0.0096,0.062161 0,0.090909 -0.02143,0.064282 -0.07447,0.1160817 -0.09091,0.1818182 -0.0147,0.058796 0,0.1212125 0,0.1818185 0,0.130492 0.02392,0.44978 0,0.545455 -0.01039,0.04157 -0.07736,0.05025 -0.09091,0.09091 -0.03833,0.114992 0.03833,0.248644 0,0.363636 -0.01355,0.04066 -0.06714,0.05525 -0.09091,0.09091 -0.219823,0.439646 0.02642,-0.0049 -0.181818,0.272727 -0.06556,0.08741 -0.125605,0.179039 -0.181818,0.272728 -0.03486,0.0581 -0.0367,0.141162 -0.09091,0.181818 -0.07666,0.0575 -0.187018,0.04805 -0.272728,0.09091 -0.02414,0.01207 -0.260658,0.24859 -0.272727,0.272727 -0.01355,0.0271 0,0.06061 0,0.09091 0,0.0303 0,0.06061 0,0.09091 0,0.151516 0,0.303031 0,0.454546 0,0.515151 0,1.030303 0,1.545454 0,0.151516 0.02971,0.305973 0,0.454546 -0.01329,0.06644 -0.07977,0.11498 -0.09091,0.181818 -0.02989,0.179344 0,0.363636 0,0.545455 0,0.30303 0,0.60606 0,0.909091 0,0.05843 0,0.44267 0,0.454545 0,0.06061 -0.0271,0.12761 0,0.181818 0.06776,0.135519 0.197555,0.232085 0.272727,0.363637 0.04754,0.0832 0.05532,0.183754 0.09091,0.272727 0.02517,0.06291 0.05332,0.125439 0.09091,0.181818 0.02377,0.03566 0.07736,0.05025 0.09091,0.09091 0.01917,0.0575 -0.01917,0.124322 0,0.181818 0.01355,0.04066 0.07174,0.05258 0.09091,0.09091 0.0271,0.05421 -0.01189,0.122389 0,0.181819 0.0245,0.122516 0.0514,0.245105 0.09091,0.363636 0.02907,0.0872 0.24081,0.56769 0.272727,0.727273 0.132534,0.66267 -0.01713,0.610663 0.363636,1.181818 0.07132,0.106972 0.181818,0.181818 0.272728,0.272727 0.503299,0.5033 -0.302289,-0.288903 0.636363,0.545455 0.128121,0.113885 0.23463,0.250755 0.363637,0.363636 0.114026,0.09977 0.262975,0.159483 0.363636,0.272727 0.307388,0.345812 0.362543,0.726836 0.818182,0.909091 0.08897,0.03559 0.178761,0.07212 0.272727,0.09091 0.05943,0.01189 0.121212,0 0.181818,0 0.436667,0 0.541667,0 1,0 0.121212,0 0.242424,0 0.363637,0 0.06061,0 0.124322,0.01917 0.181818,0 C 25.0385,23.412369 25.023777,23.079021 25.181818,23 c 0.05421,-0.0271 0.127611,0.0271 0.181818,0 0.03833,-0.01917 0.05258,-0.07174 0.09091,-0.09091 0.0271,-0.01355 0.06381,0.01355 0.09091,0 0.03833,-0.01917 0.06061,-0.06061 0.09091,-0.09091 0.06061,-0.0303 0.118905,-0.06574 0.181818,-0.09091 0.08897,-0.03559 0.183754,-0.05532 0.272727,-0.09091 0.18874,-0.0755 0.363636,-0.181819 0.545455,-0.272728 0.17749,-0.08874 0.289992,-0.135599 0.454545,-0.272727 0.192769,-0.160641 0.366861,-0.366861 0.545455,-0.545454 0.06061,-0.06061 0.11489,-0.128276 0.181818,-0.181819 0.08532,-0.06825 0.204473,-0.0965 0.272727,-0.181818 0.05443,-0.06804 0.166742,-0.601185 0.181818,-0.636363 0.04304,-0.100425 0.132956,-0.175003 0.181818,-0.272728 0.04285,-0.08571 0.06458,-0.180587 0.09091,-0.272727 0.03432,-0.120135 0.0216,-0.259678 0.09091,-0.363636 0.06061,-0.09091 0.204473,-0.0965 0.272727,-0.181819 0.05289,-0.06611 0.168752,-0.603697 0.181818,-0.636363 0.0299,-0.07475 0.356021,-0.265112 0.363636,-0.272727 0.02143,-0.02143 -0.01125,-0.06277 0,-0.09091 0.05033,-0.125826 0.121213,-0.242424 0.181819,-0.363636 0.0303,-0.06061 0.04858,-0.128907 0.09091,-0.181818 0.2426,-0.303251 0.357355,-0.260166 0.545454,-0.636364 0.316202,-0.632403 -0.01124,-0.136843 0.09091,-0.545454 0.01643,-0.06574 0.07762,-0.115375 0.09091,-0.181818 0.01783,-0.08914 0,-0.181819 0,-0.272728 0,-0.0303 -0.0096,-0.06216 0,-0.09091 0.02143,-0.06428 0.07447,-0.116081 0.09091,-0.181818 0.0147,-0.0588 0,-0.121212 0,-0.181818 0,-0.0303 -0.01355,-0.06381 0,-0.09091 0.01917,-0.03833 0.07736,-0.05025 0.09091,-0.09091 0.02061,-0.06185 -0.0241,-0.406342 0,-0.454546 0.01917,-0.03833 0.07736,-0.05025 0.09091,-0.09091 0.0025,-0.0075 0.01141,-0.420324 0,-0.454545 -0.02143,-0.06428 -0.06948,-0.117536 -0.09091,-0.181819 -0.0096,-0.02875 0.01355,-0.06381 0,-0.09091 -0.01917,-0.03833 -0.07174,-0.05258 -0.09091,-0.09091 C 30.5026,14.187017 30.4974,14.08571 30.454545,14 c -0.01917,-0.03833 -0.0652,-0.05663 -0.09091,-0.09091 -0.06555,-0.08741 -0.132956,-0.175003 -0.181818,-0.272727 C 29.988687,13.250101 30.070925,13.203958 29.818181,12.90909 29.650843,12.713862 29.433354,12.56442 29.272726,12.363635 28.821979,11.8002 29.283245,12.333958 29,11.909091 c -0.255695,-0.383543 0.156016,0.49385 -0.272727,-0.363636 -0.01355,-0.0271 0.01355,-0.06381 0,-0.09091 -0.01917,-0.03833 -0.07174,-0.05258 -0.09091,-0.09091 -0.03636,-0.07273 0.03636,-0.2 0,-0.272727 -0.01917,-0.03833 -0.07736,-0.05025 -0.09091,-0.09091 -0.01917,-0.0575 0.0271,-0.12761 0,-0.181818 -0.03833,-0.07666 -0.137721,-0.108323 -0.181819,-0.181818 -0.0493,-0.08217 -0.06767,-0.179762 -0.09091,-0.272728 -0.0147,-0.0588 0.0271,-0.12761 0,-0.181818 -0.01917,-0.03833 -0.07174,-0.05258 -0.09091,-0.09091 -0.03636,-0.07273 0.03636,-0.1999999 0,-0.2727272 -0.01917,-0.038331 -0.07174,-0.052578 -0.09091,-0.090909 -0.01355,-0.027104 0.02143,-0.069482 0,-0.090909 -0.04545,-0.045454 -0.227273,0.045455 -0.272727,0 -0.02143,-0.021427 0.0271,-0.077357 0,-0.090909 -0.05881,-0.029407 -0.330981,0.032656 -0.363637,0 -0.02143,-0.021427 0.02143,-0.069482 0,-0.090909 -0.04285,-0.042855 -0.143957,0.047325 -0.181818,0 C 27.162346,9.3165694 27.090909,9.1515152 27,9"
       id="path4105"
       inkscape:connector-curvature="0" />
    <path
       style="fill:url(#radialGradient4121);stroke:#000000;stroke-width:1px;stroke-linecap:butt;stroke-linejoin:miter;stroke-opacity:1;fill-opacity:1"
       d="m 18,27 c -0.121212,-0.121212 -0.210314,-0.286975 -0.363636,-0.363636 -0.004,-0.002 -0.75966,-0.0084 -0.818182,0 -0.328095,0.04687 -0.500825,0.153718 -0.818182,0.272727 -0.08972,0.03365 -0.179762,0.06767 -0.272727,0.09091 -0.0294,0.0073 -0.06216,-0.0096 -0.09091,0 -0.06644,0.02214 -0.231122,0.09861 -0.272728,0.181818 -0.01355,0.0271 0,0.06061 0,0.09091 0,0.09091 -0.02875,0.186484 0,0.272728 0.04286,0.128564 0.128435,0.239074 0.181819,0.363636 0.03775,0.08808 0.03105,0.197899 0.09091,0.272727 0.06825,0.08532 0.223865,0.08409 0.272727,0.181818 0.08243,0.164867 0.04027,0.368221 0.09091,0.545455 0.01177,0.04121 0.07736,0.05025 0.09091,0.09091 0.01917,0.0575 -0.01189,0.122389 0,0.181818 0.01879,0.09397 0.06767,0.179762 0.09091,0.272727 0.0073,0.0294 0,0.06061 0,0.09091 0,0.06061 0,0.121212 0,0.181818 0,0.09086 0.01944,0.376769 0,0.454545 -0.05047,0.201902 -0.08356,0.341043 -0.272727,0.454546 -0.08217,0.0493 -0.199111,0.02956 -0.272727,0.09091 -0.116398,0.097 -0.192425,0.235151 -0.272728,0.363636 C 15.146785,31.437871 15.153005,31.591986 15,32 c -0.140149,0.373731 -0.09166,0.0015 -0.363636,0.545455 -0.05588,0.111752 -0.07848,0.239313 -0.09091,0.363636 -0.01809,0.180916 0,0.363636 0,0.545454 0,0.302585 0,0.606507 0,0.909091 0,0.402192 -0.01993,0.465746 0.09091,0.909091 0.01643,0.06574 0.07977,0.114981 0.09091,0.181818 0.04484,0.269017 -0.03383,0.547561 0,0.818182 0.01189,0.09509 0.06767,0.179762 0.09091,0.272728 0.0073,0.0294 0,0.06061 0,0.09091 0,0.151515 0,0.30303 0,0.454545 0,0.0303 0,0.06061 0,0.09091 0,0.0303 0.01681,0.0657 0,0.09091 -0.04754,0.07131 -0.121212,0.121212 -0.181818,0.181818 -0.0303,0.0303 -0.07174,0.05258 -0.09091,0.09091 -0.04286,0.08571 -0.04805,0.187017 -0.09091,0.272727 -0.06962,0.139234 -0.162001,0.07109 -0.272727,0.181818 -0.04791,0.04791 -0.05332,0.125439 -0.09091,0.181818 -0.08524,0.127859 -0.156466,0.06991 -0.181818,0.272727 -0.02255,0.180415 0.02008,0.364749 0,0.545455 -0.01058,0.09524 -0.07736,0.177864 -0.09091,0.272727 -0.01714,0.119994 0,0.242425 0,0.363637 0,0.30303 0,0.60606 0,0.909091 0,0.272727 0,0.545454 0,0.818181 0,0.08989 0.01975,0.284616 0,0.363637 -0.02324,0.09297 -0.06767,0.179762 -0.09091,0.272727 -0.0074,0.0294 0,0.06061 0,0.09091 0,0.121212 0.01993,0.244074 0,0.363636 -0.02054,0.123243 -0.07541,0.239659 -0.09091,0.363637 -0.02255,0.180414 0,0.363636 0,0.545454 0,0.363637 0,0.727273 0,1.090909 0,0.151516 0,0.303031 0,0.454546 0,0.121212 0,0.242424 0,0.363636 0,0.0303 -0.01355,0.06381 0,0.09091 0.04886,0.09772 0.125604,0.179039 0.181818,0.272728 0.03486,0.0581 0.04858,0.128906 0.09091,0.181818 0.08031,0.100392 0.181818,0.181818 0.272727,0.272727 0.0303,0.0303 0.07174,0.05258 0.09091,0.09091 0.01355,0.0271 -0.01355,0.06381 0,0.09091 0.01917,0.03833 0.07174,0.05258 0.09091,0.09091 0.01355,0.0271 0,0.06061 0,0.09091 0,0.0303 0,0.06061 0,0.09091 0,0.151515 -0.02143,0.304553 0,0.454545 -0.318107,0.347031 0.146418,0.295245 0.181819,0.454545 0.053,0.238494 -0.0053,0.502716 0.09091,0.727273 0.09323,0.217538 0.337122,0.339964 0.454545,0.545455 0.179157,0.477753 0.286445,0.841044 0.545455,1.272727 0.07795,0.129923 0.181818,0.242424 0.272727,0.363636 0.121212,0.181819 0.253531,0.356703 0.363636,0.545455 0.102427,0.175588 0.14574,0.38672 0.272728,0.545454 0.121212,0.151516 0.330327,0.214576 0.454545,0.363637 0.0388,0.04656 -0.0271,0.12761 0,0.181818 0.01355,0.0271 0.06948,-0.02143 0.09091,0 0.02143,0.02143 -0.02143,0.06948 0,0.09091 0.02143,0.02143 0.0638,-0.01355 0.09091,0 0.07666,0.03833 0.110503,0.134275 0.181818,0.181818 -0.04985,0.152472 0.229785,0.06944 0.272728,0.09091 0.09772,0.04886 0.175003,0.132956 0.272727,0.181819 0.05421,0.0271 0.123022,-0.0147 0.181818,0 0.09297,0.02324 0.179762,0.06767 0.272727,0.09091 0.07778,0.01944 0.363681,0 0.454546,0 0.121212,0 0.242424,0 0.363636,0 0.06061,0 0.12168,0.0075 0.181818,0 0.182903,-0.02286 0.362981,-0.06484 0.545455,-0.09091 0.188552,-0.02694 0.0404,0.08081 0.363636,0 0.08315,-0.02079 0.100507,-0.154715 0.181818,-0.181819 0.0575,-0.01917 0.12239,0.01189 0.181819,0 0.246068,0.154507 0.235071,-0.138963 0.363636,-0.181818 0.0575,-0.01917 0.129849,0.03118 0.181818,0 0.110244,-0.06615 0.169876,-0.195588 0.272727,-0.272727 0.02424,-0.01818 0.06061,0 0.09091,0 0.06061,0 0.124322,0.01917 0.181818,0 0.04066,-0.01355 0.06061,-0.06061 0.09091,-0.09091 0.06061,-0.06061 0.110503,-0.134275 0.181818,-0.181818 0.04186,-0.02791 0.337367,0.02627 0.363636,0 0.04285,-0.04286 -0.04285,-0.138964 0,-0.181819 0.02143,-0.02143 0.06381,0.01355 0.09091,0 0.03833,-0.01917 0.06061,-0.06061 0.09091,-0.09091 0.09091,-0.09091 0.201412,-0.165754 0.272727,-0.272727 0.04645,-0.06967 0.177155,-0.599063 0.181818,-0.636364 0.01504,-0.120276 -0.01504,-0.24336 0,-0.363636 0.0155,-0.123978 0.06282,-0.241893 0.09091,-0.363636 0.06282,-0.272226 0.117829,-0.546229 0.181818,-0.818182 0.05723,-0.243243 0.148793,-0.47958 0.181818,-0.727273 0.01939,-0.145454 -0.01385,-0.883117 0,-1.090909 0.02026,-0.303867 0.07303,-0.605075 0.09091,-0.909091 0.01246,-0.211755 0,-0.424242 0,-0.636363 0,-0.212122 0,-0.424243 0,-0.636364 0,-0.484849 0,-0.969697 0,-1.454546 0,-0.181818 0,-0.363636 0,-0.545454 0,-0.0303 0,-0.06061 0,-0.09091 0,-0.0303 -0.01355,-0.06381 0,-0.09091 0.01917,-0.03833 0.07736,-0.05025 0.09091,-0.09091 0.01917,-0.0575 -0.01189,-0.122389 0,-0.181819 0.01879,-0.09397 0.05532,-0.183754 0.09091,-0.272727 0.02517,-0.06291 0.07977,-0.11498 0.09091,-0.181818 0.01993,-0.119563 -0.01504,-0.24336 0,-0.363636 0.0155,-0.123978 0.07541,-0.239659 0.09091,-0.363637 0.01503,-0.120276 -0.0294,-0.246043 0,-0.363636 0.03287,-0.131473 0.15242,-0.231344 0.181818,-0.363636 0.03287,-0.147908 0,-0.303031 0,-0.454546 0,-0.212121 -0.02111,-0.425295 0,-0.636364 0.0095,-0.09535 0.06767,-0.179761 0.09091,-0.272727 0.03748,-0.149902 0.03665,-0.309868 0.09091,-0.454545 0.03836,-0.102303 0.138779,-0.172303 0.181818,-0.272728 0.04922,-0.11484 0.0514,-0.245105 0.09091,-0.363636 0.02143,-0.06428 0.06061,-0.121212 0.09091,-0.181818 0.0303,-0.06061 0.043,-0.133905 0.09091,-0.181818 0.02143,-0.02143 0.07273,0.02424 0.09091,0 0.272727,-0.363637 0.09091,-0.272728 0.272727,-0.545455 0.04754,-0.07131 0.143488,-0.105157 0.181818,-0.181818 0.02486,-0.04972 -0.01547,-0.210859 0,-0.272727 -0.154506,-0.246069 0.138963,-0.235072 0.181818,-0.363637 0.01917,-0.0575 -0.01,-0.122036 0,-0.181818 0.02054,-0.123242 0.07711,-0.239458 0.09091,-0.363636 0.02222,-0.2 -0.02667,-0.826667 0,-1 0.03355,-0.218044 0.133961,-0.421008 0.181818,-0.636364 0.01972,-0.08874 0,-0.181818 0,-0.272727 0,-0.242424 0,-0.484849 0,-0.727273 0,-0.04888 0.01893,-0.670482 0,-0.727273 -0.01355,-0.04066 -0.07736,-0.05025 -0.09091,-0.09091 -0.01917,-0.0575 0.03362,-0.131391 0,-0.181818 -0.03759,-0.05638 -0.146957,-0.03281 -0.181819,-0.09091 -0.06428,-0.107137 -0.02663,-0.256499 -0.09091,-0.363636 -0.03486,-0.0581 -0.142433,-0.03577 -0.181818,-0.09091 -0.409935,-0.57391 -0.099,-0.462633 -0.545454,-0.909091 -0.107151,-0.107141 -0.263876,-0.158704 -0.36365,-0.272731 C 24.156372,30.321569 24.102702,30.143783 24,30 c -0.04982,-0.06975 -0.130392,-0.11325 -0.181818,-0.181818 -0.04066,-0.05421 -0.0367,-0.141163 -0.09091,-0.181818 -0.07666,-0.0575 -0.187018,-0.04805 -0.272728,-0.09091 -0.03833,-0.01917 -0.06061,-0.06061 -0.09091,-0.09091 -0.06061,-0.06061 -0.130392,-0.11325 -0.181818,-0.181818 -0.04066,-0.05421 -0.043,-0.133905 -0.09091,-0.181818 -0.04791,-0.04791 -0.125439,-0.05332 -0.181818,-0.09091 -0.03566,-0.02377 -0.05525,-0.06714 -0.09091,-0.09091 -0.17702,-0.118013 -0.166836,-0.09091 -0.363637,-0.09091 -0.0303,0 -0.06061,0 -0.09091,0 -0.0303,0 -0.06569,0.01681 -0.09091,0 -0.07131,-0.04754 -0.110503,-0.134275 -0.181818,-0.181818 -0.02521,-0.01681 -0.0638,0.01355 -0.09091,0 -0.03833,-0.01917 -0.06061,-0.06061 -0.09091,-0.09091 -0.0303,-0.0303 -0.07174,-0.05258 -0.09091,-0.09091 -0.01355,-0.0271 0.02143,-0.06948 0,-0.09091 -0.04285,-0.04285 -0.154715,0.05421 -0.181818,0 -0.0271,-0.05421 0.0271,-0.12761 0,-0.181818 -0.01404,-0.02809 -0.240207,0.01626 -0.272728,0 -0.03833,-0.01917 -0.05258,-0.07174 -0.09091,-0.09091 -0.04824,-0.02412 -0.133577,0.02412 -0.181818,0 C 21.052578,28.071744 21.038331,28.019165 21,28 c -0.0271,-0.01355 -0.06061,0 -0.09091,0 -0.06061,0 -0.125547,0.02251 -0.181818,0 -0.101445,-0.04058 -0.175003,-0.132956 -0.272728,-0.181818 -0.0271,-0.01355 -0.06151,0.0073 -0.09091,0 -0.09296,-0.02324 -0.179761,-0.06767 -0.272727,-0.09091 -0.08447,-0.02112 -0.400376,0.02708 -0.454545,0 -0.03833,-0.01917 -0.05258,-0.07174 -0.09091,-0.09091 -0.0271,-0.01355 -0.06061,0 -0.09091,0 -0.09091,-0.0303 -0.192994,-0.03775 -0.272727,-0.09091 -0.02521,-0.01681 0.02143,-0.06948 0,-0.09091 -0.02488,-0.02487 -0.314319,0.02466 -0.363636,0 -0.378342,-0.18917 0.09718,0.0063 -0.09091,-0.181818 -0.01859,-0.01858 -0.236683,0.01802 -0.272728,0 C 18.296504,27.193707 18.151515,27.090909 18,27 z"
       id="path4107"
       inkscape:connector-curvature="0" />
    <path
       style="fill:url(#radialGradient4125);stroke:#000000;stroke-width:1px;stroke-linecap:butt;stroke-linejoin:miter;stroke-opacity:1;fill-opacity:1"
       d="m 35,22 c -0.0303,-0.09091 -0.0087,-0.223425 -0.09091,-0.272727 -0.103939,-0.06236 -0.242424,0 -0.363636,0 -0.06061,0 -0.124323,-0.01917 -0.181819,0 -0.04066,0.01355 -0.05525,0.06714 -0.09091,0.09091 -0.634524,0.423016 0.446952,-0.403396 -0.454545,0.272727 -0.15889,0.119167 -0.04001,0.08366 -0.181818,0.272727 -0.05143,0.06857 -0.134275,0.110504 -0.181819,0.181819 -0.211834,0.317751 -0.172791,0.377497 -0.272727,0.727272 -0.02632,0.09214 -0.06458,0.180588 -0.09091,0.272728 -0.03432,0.120135 -0.03503,0.251884 -0.09091,0.363636 -0.06776,0.135519 -0.194773,0.233713 -0.272727,0.363636 -0.01559,0.02598 0,0.06061 0,0.09091 0,0.06061 0,0.121212 0,0.181819 0,0.0054 0.01836,0.672193 0,0.727272 -0.01355,0.04066 -0.07174,0.05258 -0.09091,0.09091 -0.298879,0.597758 0.07912,-0.04963 -0.09091,0.545455 -0.130088,0.260175 -0.205846,0.368835 -0.272728,0.636364 -0.20945,0.220366 -0.03166,0.490256 -0.09091,0.727272 -0.575908,1.439771 -0.04382,-0.05365 -0.181818,0.636364 -0.01879,0.09397 -0.07902,0.177641 -0.09091,0.272727 -0.03383,0.270621 0.03383,0.547561 0,0.818182 -0.0155,0.123978 -0.06061,0.242424 -0.09091,0.363636 -0.0303,0.121212 -0.04704,0.246649 -0.09091,0.363637 -0.04758,0.12689 -0.14895,0.232163 -0.181818,0.363636 -0.09091,0.363636 0.04545,0.272727 0,0.545455 -0.221031,0.884122 0.0068,-0.15217 -0.09091,0.727272 -0.01706,0.153571 -0.07384,0.300975 -0.09091,0.454546 -0.01338,0.120471 0,0.242424 0,0.363636 0,0.121212 0,0.242424 0,0.363637 0,0.06061 -0.01188,0.122389 0,0.181818 0.01879,0.09397 0.06458,0.180587 0.09091,0.272727 0.03432,0.120135 0.03503,0.251884 0.09091,0.363636 0.321589,0.64318 0.0742,-0.339553 0.272727,0.454546 0.01037,0.04147 0.01155,0.510801 0,0.545454 -0.02143,0.06428 -0.07447,0.116082 -0.09091,0.181819 -0.0147,0.0588 0.02251,0.125546 0,0.181818 -0.01343,0.03358 -0.260694,0.358279 -0.272728,0.454545 -0.02255,0.180414 0.02255,0.365041 0,0.545455 -0.0084,0.06724 -0.06061,0.121212 -0.09091,0.181818 -0.0303,0.121212 -0.0796,0.239207 -0.09091,0.363636 -0.03018,0.331965 0,0.666667 0,1 0,0.121212 -0.04256,0.250142 0,0.363637 0.0532,0.141868 0.185839,0.23951 0.272728,0.363636 0.125312,0.179017 0.219741,0.381003 0.363636,0.545455 0.07195,0.08223 0.189771,0.110713 0.272727,0.181818 0.130152,0.111558 0.249751,0.235515 0.363637,0.363636 0.128909,0.145023 0.239418,0.305484 0.363636,0.454546 0.02744,0.03292 0.05258,0.07174 0.09091,0.09091 0.05809,0.02905 0.290464,-0.02439 0.363636,0 0.06428,0.02143 0.115375,0.07762 0.181819,0.09091 0.08914,0.01783 0.181818,0 0.272727,0 0.151515,0 0.30303,0 0.454545,0 0.333334,0 0.666667,0 1,0 1.727273,0 3.454546,0 5.181818,0 0.242425,0 0.484849,0 0.727273,0 0.121212,0 0.244074,-0.01993 0.363637,0 0.06684,0.01114 0.118904,0.06574 0.181818,0.09091 0.08897,0.03559 0.179762,0.06767 0.272727,0.09091 0.0294,0.0073 0.06948,-0.02143 0.09091,0 0.02143,0.02143 -0.01355,0.06381 0,0.09091 0.01916,0.03833 0.0825,0.04889 0.09091,0.09091 0.02377,0.118858 -0.01503,0.24336 0,0.363636 0.0155,0.123978 0.06641,0.241121 0.09091,0.363637 0.03973,0.198669 -0.135232,0.02443 0.09091,0.363636 0.04284,0.185466 0.26855,0.221007 0.363637,0.363637 0.367943,0.551915 -0.261698,-0.284649 0.181818,0.454545 0.0441,0.0735 0.137721,0.108323 0.181818,0.181818 0.05325,0.08876 0.08983,0.36256 0.181818,0.454546 0.02143,0.02143 0.0741,-0.02521 0.09091,0 0.05316,0.07973 0.03775,0.192994 0.09091,0.272727 0.01681,0.02521 0.07736,-0.0271 0.09091,0 0.05588,0.111752 0.02892,0.255156 0.09091,0.363636 0.06379,0.111626 0.192413,0.172335 0.272727,0.272728 0.04233,0.05291 0.05332,0.125438 0.09091,0.181818 0.02377,0.03566 0.07174,0.05258 0.09091,0.09091 0.01355,0.0271 0,0.06061 0,0.09091 0.0303,0.06061 0.05332,0.125439 0.09091,0.181818 0.02377,0.03566 0.07174,0.05258 0.09091,0.09091 0.01802,0.03605 -0.01859,0.254142 0,0.272727 0.02143,0.02143 0.06948,-0.02143 0.09091,0 0.01957,0.01957 -0.02075,0.245065 0,0.272728 0.07714,0.102852 0.195589,0.169875 0.272728,0.272727 0.01818,0.02424 0,0.06061 0,0.09091 0,0.06061 -0.01917,0.124322 0,0.181818 0.01355,0.04066 0.06061,0.06061 0.09091,0.09091 0.0303,0.06061 0.06948,0.117536 0.09091,0.181819 0.0096,0.02875 -0.01355,0.06381 0,0.09091 0.01917,0.03833 0.05258,0.07174 0.09091,0.09091 0.0043,0.0021 0.271737,6.6e-4 0.272727,0 0.07131,-0.04754 0.121212,-0.121212 0.181818,-0.181818 0.09091,-0.09091 0.181819,-0.181819 0.272728,-0.272728 0.06061,-0.06061 0.134275,-0.110503 0.181818,-0.181818 0.160076,-0.240115 0.331433,-0.710176 0.363636,-1 0.01673,-0.150588 -0.01673,-0.303957 0,-0.454545 0.0138,-0.124179 0.07711,-0.239458 0.09091,-0.363637 0.01389,-0.125 -0.01667,-0.916666 0,-1 0.02658,-0.132887 0.144588,-0.233331 0.181818,-0.363636 0.02497,-0.08741 0,-0.181818 0,-0.272727 0,-0.363637 0,-0.727273 0,-1.090909 0,-0.787879 0,-1.575758 0,-2.363637 0,-0.56624 -0.0271,0.226429 0.09091,-0.363636 0.03566,-0.178288 -0.01646,-0.364383 0,-0.545455 0.02212,-0.243307 0.03166,-0.490256 0.09091,-0.727272 0.03287,-0.131473 0.138963,-0.235072 0.181818,-0.363637 0.01917,-0.0575 0,-0.121212 0,-0.181818 0,-0.121212 -0.01993,-0.244073 0,-0.363636 0.01114,-0.06684 0.07977,-0.114981 0.09091,-0.181819 0.09989,-0.599325 -0.13236,-0.131888 0.09091,-0.727272 0.04758,-0.126891 0.138963,-0.235072 0.181818,-0.363637 0.01917,-0.0575 -0.01,-0.122036 0,-0.181818 0.04108,-0.246485 0.140737,-0.480787 0.181818,-0.727273 0.01,-0.05978 0,-0.121212 0,-0.181818 0,-0.212121 0,-0.424242 0,-0.636363 0,-0.242425 0,-0.484849 0,-0.727273 0,-0.0303 0.0074,-0.06151 0,-0.09091 -0.02324,-0.09297 -0.05532,-0.183755 -0.09091,-0.272727 -0.154398,-0.385997 -0.429311,-0.529868 -0.727272,-0.909091 -0.719239,-0.915395 0.0355,-0.384243 -1.363637,-1.363637 -0.255591,-0.178914 -0.574559,-0.259647 -0.818182,-0.454545 -0.218159,-0.174528 -0.347903,-0.438812 -0.545454,-0.636364 -0.197552,-0.197551 -0.449468,-0.337793 -0.636364,-0.545454 -0.01018,-0.01131 -0.146329,-0.391347 -0.272727,-0.454546 -0.0271,-0.01355 -0.0638,0.01355 -0.09091,0 -0.03833,-0.01917 -0.04839,-0.08559 -0.09091,-0.09091 -0.210483,-0.02631 -0.429294,0.04602 -0.636364,0 -0.08367,-0.01859 -0.09941,-0.158272 -0.181818,-0.181818 -0.145686,-0.04162 -0.3042,0.01879 -0.454546,0 -0.09509,-0.01189 -0.183754,-0.05532 -0.272727,-0.09091 -0.214275,-0.08571 -0.419477,-0.19386 -0.636363,-0.272727 -0.117421,-0.0427 -0.242425,-0.06061 -0.363637,-0.09091 -0.121212,-0.0303 -0.24112,-0.0664 -0.363636,-0.09091 -0.02972,-0.0059 -0.0657,0.01681 -0.09091,0 -0.07131,-0.04754 -0.113251,-0.130392 -0.181818,-0.181818 -0.05421,-0.04066 -0.125439,-0.05332 -0.181819,-0.09091 -0.166339,-0.110893 -0.0091,-0.115904 -0.272727,-0.181818 -0.117593,-0.0294 -0.244778,0.02377 -0.363636,0 -0.09397,-0.01879 -0.178762,-0.07212 -0.272728,-0.09091 -0.05943,-0.01189 -0.134492,0.03786 -0.181818,0 -0.118316,-0.09466 -0.172957,-0.24962 -0.27273,-0.363647 -0.112881,-0.129006 -0.242424,-0.242424 -0.363636,-0.363636 -0.0303,-0.0303 -0.05258,-0.07174 -0.09091,-0.09091 -0.0271,-0.01355 -0.06381,0.01355 -0.09091,0 -0.0174,-0.0087 -0.354935,-0.346235 -0.363636,-0.363636 -0.01355,-0.0271 0.02143,-0.06948 0,-0.09091 -0.110726,-0.110726 -0.20311,-0.04258 -0.272727,-0.181819 -0.03636,-0.07273 0.03636,-0.2 0,-0.272727 -0.01917,-0.03833 -0.07174,-0.05258 -0.09091,-0.09091 -0.01355,-0.0271 0,-0.06061 0,-0.09091 -0.0303,-0.09091 -0.04161,-0.190557 -0.09091,-0.272727 -0.272728,-0.454546 -0.09091,0 -0.272728,-0.272728 -0.200287,-0.04578 -0.04805,-0.187017 -0.09091,-0.272727 -0.03833,-0.07666 -0.143487,-0.105157 -0.181818,-0.181818 -0.01355,-0.0271 0,-0.06061 0,-0.09091 -0.0303,-0.0303 -0.07174,-0.05258 -0.09091,-0.09091 -0.01355,-0.0271 0.02143,-0.06948 0,-0.09091 -0.04286,-0.04285 -0.154714,0.05421 -0.181818,0 -0.0271,-0.05421 0.0271,-0.127611 0,-0.181819 -0.01355,-0.0271 -0.06948,0.02143 -0.09091,0 -0.02143,-0.02143 0.02143,-0.06948 0,-0.09091 -0.01993,-0.01993 -0.241464,0.02084 -0.272728,0 C 35.293099,22.256006 35.151515,22.121212 35,22 z"
       id="path4109"
       inkscape:connector-curvature="0" />
    <path
       style="fill:url(#radialGradient4127);stroke:#000000;stroke-width:1px;stroke-linecap:butt;stroke-linejoin:miter;stroke-opacity:1;fill-opacity:1"
       d="m 38,11 c 0.212121,0.151515 0.440185,0.282889 0.636364,0.454545 0.09794,0.0857 0.16454,0.49938 0.181818,0.545455 0.04758,0.126891 0.106645,0.250878 0.181818,0.363636 0.615758,0.923637 0.421213,0.459597 0.909091,1.272728 0.160517,0.267528 0.285057,0.556245 0.454545,0.818181 0.164622,0.254416 0.369322,0.480687 0.545455,0.727273 0.127011,0.177816 0.232525,0.37064 0.363636,0.545455 0.0802,0.10694 0.614284,0.711361 0.727273,0.909091 0.04754,0.0832 0.04805,0.187017 0.09091,0.272727 0.01916,0.03833 0.07174,0.05258 0.09091,0.09091 0.01355,0.0271 -0.01355,0.0638 0,0.09091 0.01917,0.03833 0.07174,0.05258 0.09091,0.09091 0.01383,0.02767 0,0.231786 0,0.272727 0,0.212122 0,0.424243 0,0.636364 0,0.06061 -0.01,0.122037 0,0.181818 0.03698,0.221882 0.07319,0.364412 0.181818,0.545455 0.05621,0.09369 0.138779,0.172302 0.181819,0.272727 0.444347,1.036811 -0.115102,0.05865 0.181818,0.454546 0.06556,0.08741 0.10456,0.195469 0.181818,0.272727 0.107137,0.107137 0.248597,0.174122 0.363636,0.272727 0.09761,0.08367 0.172335,0.192414 0.272728,0.272727 0.05291,0.04233 0.125438,0.05332 0.181818,0.09091 0.03566,0.02377 0.06061,0.06061 0.09091,0.09091 0.0303,0.0303 0.07174,0.05258 0.09091,0.09091 0.01355,0.0271 -0.0096,0.06216 0,0.09091 0.02143,0.06428 0.05332,0.125438 0.09091,0.181818 0.02377,0.03566 0.06414,0.05745 0.09091,0.09091 0.09465,0.118313 0.16559,0.256499 0.272727,0.363636 0.167354,0.167354 0.360643,0.306697 0.545455,0.454546 0.118313,0.09465 0.256499,0.16559 0.363636,0.272727 0.107138,0.107137 0.16559,0.256499 0.272728,0.363636 0.07726,0.07726 0.195469,0.104561 0.272727,0.181819 0.07726,0.07726 0.10456,0.195469 0.181818,0.272727 8.7e-5,8.7e-5 0.272315,-1.37e-4 0.272727,0 0.04066,0.01355 0.05258,0.07174 0.09091,0.09091 0.0271,0.01355 0.06381,-0.01355 0.09091,0 0.09772,0.04886 0.171282,0.14124 0.272727,0.181818 0.492002,0.196801 -0.143428,-0.247134 0.363636,0.09091 0.742514,0.495009 0.02876,0.120594 0.636364,0.363637 0.06291,0.02517 0.117536,0.06948 0.181818,0.09091 0.0117,0.0039 0.265198,0.0038 0.272727,0 0.03833,-0.01917 0.05258,-0.07174 0.09091,-0.09091 0.08571,-0.04285 0.196066,-0.03341 0.272728,-0.09091 0.05421,-0.04066 0.05332,-0.125439 0.09091,-0.181819 0.02377,-0.03566 0.07499,-0.05112 0.09091,-0.09091 0.0928,-0.232012 0.07007,-0.503768 0.181818,-0.727272 0.03833,-0.07666 0.143488,-0.105157 0.181818,-0.181819 0.0271,-0.05421 -0.01189,-0.122389 0,-0.181818 0.21616,-1.080797 -0.04412,0.719287 0.181818,-0.636363 0.01495,-0.08967 -0.01783,-0.183584 0,-0.272728 0.205742,-1.028708 -0.06195,0.123906 0.272728,-0.545454 0.0271,-0.05421 -0.01,-0.122037 0,-0.181818 0.02054,-0.123243 0.04451,-0.247631 0.09091,-0.363637 0.01592,-0.03979 0.0825,-0.04889 0.09091,-0.09091 0.03566,-0.178287 0,-0.363636 0,-0.545454 0,-0.121213 0,-0.242425 0,-0.363637 0,-0.121212 0.02377,-0.244778 0,-0.363636 -0.0084,-0.04202 -0.07174,-0.05258 -0.09091,-0.09091 -0.01355,-0.0271 0,-0.06061 0,-0.09091 0,-0.06061 0,-0.121212 0,-0.181819 0,-0.151515 0,-0.30303 0,-0.454545 0,-0.06061 0,-0.121212 0,-0.181818 0,-0.0303 0.01125,-0.06277 0,-0.09091 -0.05033,-0.125827 -0.131488,-0.23781 -0.181818,-0.363637 -0.01125,-0.02813 0,-0.06061 0,-0.09091 0,-0.06061 0,-0.121212 0,-0.181818 0,-0.05843 0,-0.442671 0,-0.454545 0,-0.09087 0.01944,-0.37677 0,-0.454546 -0.02324,-0.09296 -0.07516,-0.178204 -0.09091,-0.272727 -0.01495,-0.08967 0,-0.181818 0,-0.272727 0,-0.09091 0,-0.181819 0,-0.272728 0,-0.242424 0,-0.484848 0,-0.727272 0,-0.121212 0.01993,-0.244074 0,-0.363637 -0.01114,-0.06684 -0.07762,-0.115374 -0.09091,-0.181818 -0.05549,-0.27747 0.08202,-0.238386 -0.09091,-0.454545 C 49.192413,13.535971 49.080314,13.464029 49,13.363636 c -0.04233,-0.05291 -0.043,-0.133905 -0.09091,-0.181818 -0.04791,-0.04791 -0.125439,-0.05332 -0.181818,-0.09091 -0.03566,-0.02377 -0.05744,-0.06414 -0.09091,-0.09091 -0.118314,-0.09465 -0.245323,-0.178077 -0.363637,-0.272727 -0.06693,-0.05354 -0.11325,-0.130393 -0.181818,-0.181818 -0.08741,-0.06556 -0.18532,-0.116263 -0.272727,-0.181819 -0.03428,-0.02571 -0.05745,-0.06414 -0.09091,-0.09091 -0.03582,-0.02866 -0.536991,-0.411957 -0.636364,-0.454545 -0.11484,-0.04922 -0.24763,-0.04451 -0.363636,-0.09091 -0.03979,-0.01592 -0.06061,-0.06061 -0.09091,-0.09091 -0.06061,-0.06061 -0.121212,-0.121212 -0.181819,-0.181819 -0.278056,-0.278056 0.167571,0.148406 -0.272727,-0.181818 C 46.11325,11.221301 46.073496,11.135006 46,11.090909 45.733975,10.931294 45.468721,11.035863 45.181818,11 45.05784,10.9845 44.94216,10.92459 44.818182,10.90909 c -0.120276,-0.01503 -0.250142,0.04256 -0.363637,0 -0.283736,-0.106401 -0.439792,-0.449628 -0.727272,-0.545455 -0.14374,-0.04791 -0.303957,0.01673 -0.454546,0 -0.124178,-0.0138 -0.239658,-0.07541 -0.363636,-0.09091 -0.240552,-0.03007 -0.486721,0.03007 -0.727273,0 -0.123978,-0.0155 -0.239949,-0.07324 -0.363636,-0.09091 -0.09,-0.01286 -0.186484,0.02875 -0.272727,0 C 41.441802,10.147267 41.377783,10.030016 41.272727,10 41.156179,9.9667 41.030303,10 40.909091,10 40.606061,10 40.30303,10 40,10 c -0.04094,0 -0.245061,0.01383 -0.272727,0 -0.03833,-0.019165 -0.05258,-0.071744 -0.09091,-0.090909 -0.0048,-0.00238 -0.267972,-0.00238 -0.272728,0 -0.07666,0.038331 -0.105157,0.143487 -0.181818,0.181818 -0.0271,0.01355 -0.06061,0 -0.09091,0 -0.0303,0.0303 -0.05258,0.07174 -0.09091,0.09091 -0.0271,0.01355 -0.07736,-0.0271 -0.09091,0 -0.0271,0.05421 0.0271,0.127611 0,0.181818 -0.01355,0.0271 -0.06948,-0.02143 -0.09091,0 -0.04545,0.04546 0.04545,0.227273 0,0.272728 -0.02143,0.02143 -0.06948,-0.02143 -0.09091,0 -0.02143,0.02143 0,0.06061 0,0.09091 -0.06061,0 -0.124322,-0.01917 -0.181818,0 -0.20131,-0.04125 -0.028,0.156653 -0.09091,0.181818 C 38.311081,10.966477 38.151515,10.969697 38,11 z"
       id="path4111"
       inkscape:connector-curvature="0" />
    <path
       style="fill:url(#radialGradient4147);stroke:#000000;stroke-width:1px;stroke-linecap:butt;stroke-linejoin:miter;stroke-opacity:1"
       d="m 29,57 c -0.06061,0 -0.181818,0.06061 -0.181818,0 0,-0.06061 0.181818,0.06061 0.181818,0 0,-0.27938 -0.135888,-0.542603 -0.181818,-0.818182 -0.01495,-0.08967 0,-0.181818 0,-0.272727 C 28.818182,54.345553 28.736872,56.184084 29,55 29.03287,54.852093 29,54.69697 29,54.545455 29,54.363636 28.97745,54.180414 29,54 c 0.0084,-0.06724 0.06712,-0.118373 0.09091,-0.181818 0.06729,-0.179451 0.121212,-0.363637 0.181818,-0.545455 0.06008,-0.180238 0.157831,-0.583652 0.272728,-0.727272 0.08031,-0.100393 0.181818,-0.181819 0.272727,-0.272728 0.0303,-0.0303 0.06714,-0.05525 0.09091,-0.09091 C 29.946677,52.125439 29.945792,52.040656 30,52 c 0.03971,-0.319656 0.259678,-0.0216 0.363636,-0.09091 0.07132,-0.04754 0.121212,-0.121212 0.181819,-0.181818 0.0303,-0.0303 0.05258,-0.07174 0.09091,-0.09091 0.05421,-0.0271 0.131391,0.03362 0.181818,0 0.49043,-0.326954 -0.06261,-0.0283 0.272727,-0.363637 0.07726,-0.07726 0.207172,-0.09441 0.272727,-0.181818 0.03636,-0.04849 -0.03362,-0.131391 0,-0.181818 0.03759,-0.05638 0.139489,-0.038 0.181819,-0.09091 0.0055,-0.0068 0.353539,-0.711118 0.363636,-0.727273 0.0803,-0.128485 0.216456,-0.222958 0.272727,-0.363636 0.06846,-0.171143 0.03262,-0.370588 0.09091,-0.545455 0.03455,-0.103652 0.121212,-0.181818 0.181818,-0.272727 0.06061,-0.121212 0.144589,-0.233331 0.181819,-0.363636 0.02497,-0.08741 0,-0.181819 0,-0.272728 0,-0.151515 -0.02491,-0.305092 0,-0.454545 0.007,-0.04227 0.0825,-0.04889 0.09091,-0.09091 0.0416,-0.208002 -0.05145,-0.430576 0,-0.636364 0.01039,-0.04158 0.07174,-0.05258 0.09091,-0.09091 0.01355,-0.0271 0,-0.06061 0,-0.09091 0.06061,-0.09091 0.132956,-0.175003 0.181818,-0.272727 0.0627,-0.125396 -0.110096,-0.08132 0.09091,-0.181819 0.0271,-0.01355 0.0638,0.01355 0.09091,0 0.03833,-0.01917 0.05258,-0.07174 0.09091,-0.09091 0.0271,-0.01355 0.06381,0.01355 0.09091,0 0.03833,-0.01917 0.05258,-0.07174 0.09091,-0.09091 0.05421,-0.0271 0.127611,0.0271 0.181819,0 0.03833,-0.01917 0.05258,-0.07174 0.09091,-0.09091 0.0239,-0.01195 0.316098,0 0.363636,0 0.333333,0 0.666667,0 1,0 0.09091,0 0.181818,0 0.272727,0 0.121212,0 0.248645,-0.03833 0.363637,0 0.08131,0.0271 0.110503,0.134275 0.181818,0.181818 0.05043,0.03362 0.138963,-0.04286 0.181818,0 0.02143,0.02143 0,0.06061 0,0.09091 0.121212,0.06061 0.257814,0.09716 0.363636,0.181819 0.05291,0.04233 0.06061,0.121212 0.09091,0.181818 0.06113,0.122265 0.129145,0.306203 0.272727,0.363636 0.08441,0.03376 0.184532,-0.02205 0.272727,0 0.04158,0.01039 0.05525,0.06714 0.09091,0.09091 0.13248,0.08832 0.189352,0.05675 0.272727,0.181818 0.03759,0.05638 0.043,0.133905 0.09091,0.181819 0.107137,0.107137 0.240343,0.184661 0.363636,0.272727 0.08891,0.06351 0.195469,0.10456 0.272727,0.181818 0.07726,0.07726 0.10456,0.195469 0.181818,0.272727 0.107138,0.107138 0.256499,0.16559 0.363637,0.272728 0.08347,0.08347 0.301738,0.45377 0.454545,0.545454 0.05254,0.03153 0.32162,0.05577 0.363637,0.181818 0,0.413844 -0.04285,0.0052 0.09091,0.272728 0.01355,0.0271 -0.02143,0.06948 0,0.09091 0.04791,0.04791 0.125438,0.05332 0.181818,0.09091 0.0713,0.04755 0.110491,0.13428 0.181806,0.181823 0.05638,0.03759 0.125439,0.05332 0.181818,0.09091 0.126068,0.08405 0.245323,0.178077 0.363637,0.272727 0.03346,0.02677 0.05258,0.07174 0.09091,0.09091 0.09091,0.0303 0.181818,0.06061 0.272727,0.09091 0.0303,0.0303 0.05258,0.07174 0.09091,0.09091 0.0271,0.01355 0.06948,-0.02143 0.09091,0 0.02143,0.02143 -0.02143,0.06948 0,0.09091 0.02143,0.02143 0.06948,-0.02143 0.09091,0 0.04286,0.04286 -0.0271,0.12761 0,0.181818 0.01917,0.03833 0.07174,0.05258 0.09091,0.09091 0.01355,0.0271 -0.01355,0.06381 0,0.09091 0.301508,0.301508 -0.04286,-0.08571 0.09091,0.181818 0.01917,0.03833 0.07174,0.05258 0.09091,0.09091 0.02023,0.04045 -0.01386,0.322056 0,0.363637 0.01355,0.04066 0.08052,0.04933 0.09091,0.09091 0.09455,0.378213 -0.152,0.211273 0.09091,0.636363 0.06379,0.111626 0.206581,0.162484 0.272727,0.272728 0.03118,0.05197 -0.01916,0.124322 0,0.181818 0.01355,0.04066 0.07174,0.05258 0.09091,0.09091 0.147839,0.295678 0.02295,0.216244 0.181818,0.454545 0.04754,0.07131 0.143488,0.105157 0.181818,0.181819 0.01355,0.0271 -0.02143,0.06948 0,0.09091 0.04791,0.04791 0.117536,0.06948 0.181819,0.09091 0.02875,0.0096 0.06948,-0.02143 0.09091,0 0.02143,0.02143 -0.02143,0.06948 0,0.09091 0.0029,0.0029 0.250679,0 0.272727,0 0.09091,0 0.181818,0 0.272727,0 0.0303,0 0.06061,0 0.09091,0 0.0303,0 0.06381,-0.01355 0.09091,0 0.03833,0.01917 0.06061,0.06061 0.09091,0.09091 0.0303,0.0303 0.06061,0.06061 0.09091,0.09091 0.0303,0.0303 0.06061,0.06061 0.09091,0.09091 0.0303,0.0303 0.07174,0.05258 0.09091,0.09091 0.04286,0.08571 0.06767,0.179762 0.09091,0.272728 0.0073,0.0294 -0.01355,0.06381 0,0.09091 0.01917,0.03833 0.07174,0.05258 0.09091,0.09091 0.01019,0.02038 0,0.342033 0,0.363636 0,0.151515 0,0.30303 0,0.454546 0,0.0303 0.02143,0.06948 0,0.09091 -0.02143,0.02143 -0.0638,-0.01355 -0.09091,0 -0.07666,0.03833 -0.110503,0.134275 -0.181818,0.181818 -0.05638,0.03759 -0.128907,0.04858 -0.181819,0.09091 -0.100392,0.08031 -0.162483,0.206581 -0.272727,0.272727 -0.05197,0.03118 -0.131391,-0.03362 -0.181818,0 -0.14263,0.09509 -0.214802,0.278588 -0.363636,0.363637 -0.07893,0.0451 -0.188321,-0.03376 -0.272728,0 -0.07958,0.03183 -0.108322,0.13772 -0.181818,0.181818 -0.08217,0.0493 -0.190556,0.04161 -0.272727,0.09091 -0.0735,0.0441 -0.108323,0.137721 -0.181818,0.181818 -0.08217,0.0493 -0.192995,0.03775 -0.272728,0.09091 -0.02521,0.01681 0.02143,0.06948 0,0.09091 -0.153959,0.153959 -0.300586,0.02786 -0.454545,0.181818 -0.188094,0.188095 0.287433,-0.0074 -0.09091,0.181819 -0.0271,0.01355 -0.0638,-0.01355 -0.09091,0 -0.301508,0.301507 0.08571,-0.04285 -0.181818,0.09091 -0.03833,0.01917 -0.05025,0.07736 -0.09091,0.09091 -0.0575,0.01917 -0.129849,-0.03118 -0.181819,0 -0.110243,0.06615 -0.172335,0.192413 -0.272727,0.272727 -0.05291,0.04233 -0.125439,0.05332 -0.181818,0.09091 -0.03566,0.02377 -0.04889,0.0825 -0.09091,0.09091 -0.178288,0.03566 -0.363637,0 -0.545455,0 -1.545454,0 -3.090909,0 -4.636363,0 -0.39394,0 -0.787879,0 -1.181819,0 -0.0077,0 -0.560877,-0.01887 -0.636363,0 -0.09297,0.02324 -0.179762,0.06767 -0.272727,0.09091 -0.0294,0.0073 -0.06381,-0.01355 -0.09091,0 -0.03833,0.01917 -0.05258,0.07174 -0.09091,0.09091 -0.03287,0.01644 -0.391314,0 -0.454545,0 -0.151515,0 -0.30303,0 -0.454546,0 -0.06061,0 -0.121212,0 -0.181818,0 -0.0303,0 -0.06216,0.0096 -0.09091,0 -0.658492,-0.219497 0.143328,0.02621 -0.272727,-0.181818 -0.0271,-0.01355 -0.0638,0.01355 -0.09091,0 -0.03833,-0.01917 -0.05258,-0.07174 -0.09091,-0.09091 -0.0271,-0.01355 -0.06151,0.0073 -0.09091,0 -0.09297,-0.02324 -0.179762,-0.06767 -0.272728,-0.09091 -0.0588,-0.0147 -0.12761,0.0271 -0.181818,0 -0.03833,-0.01917 -0.05258,-0.07174 -0.09091,-0.09091 -0.07273,-0.03636 -0.2,0.03636 -0.272727,0 -0.03833,-0.01916 -0.05258,-0.07174 -0.09091,-0.09091 -0.03605,-0.01802 -0.254142,0.01859 -0.272728,0 -0.02187,-0.02188 0.02188,-0.341761 0,-0.363637 -0.02143,-0.02143 -0.09091,0.0303 -0.09091,0 0,-0.0303 0.06061,0 0.09091,0 C 29.30303,57.30303 29.151515,57.151515 29,57 z"
       id="path4113"
       inkscape:connector-curvature="0" />
    <path
       style="fill:url(#radialGradient4137);stroke:#000000;stroke-width:1px;stroke-linecap:butt;stroke-linejoin:miter;stroke-opacity:1"
       d="m 53,30 c -0.181818,0.212121 -0.363636,0.424242 -0.545455,0.636364 -0.0303,0.09091 -0.03341,0.196066 -0.09091,0.272727 -0.05803,0.07737 -0.413811,0.149231 -0.454545,0.181818 -0.08532,0.06825 -0.118313,0.18382 -0.181818,0.272727 -0.458935,0.642508 -0.144248,0.06911 -0.363637,0.727273 -0.02143,0.06428 -0.07977,0.114981 -0.09091,0.181818 -0.01993,0.119563 0,0.242425 0,0.363637 0,0.121212 0,0.242424 0,0.363636 0,0.212121 0,0.424242 0,0.636364 0,0.121212 -0.01714,0.243642 0,0.363636 -0.03889,0.186309 0.154991,0.293579 0.181818,0.454545 0.01993,0.119563 -0.0294,0.246044 0,0.363637 0.06574,0.262946 0.277927,0.470143 0.363637,0.727273 0.01917,0.0575 0,0.121212 0,0.181818 0,0.09091 -0.02205,0.184532 0,0.272727 0.01039,0.04158 0.07174,0.05258 0.09091,0.09091 0.01383,0.02767 0,0.231786 0,0.272727 0,0.208072 -0.02105,0.884249 0,1 0.02919,0.160555 0.152626,0.293991 0.181818,0.454546 0.03252,0.178885 0,0.363636 0,0.545454 0,0.628818 0.02111,0.873359 -0.09091,1.545455 -0.04108,0.246485 -0.125629,0.483787 -0.181818,0.727273 -0.05404,0.234169 -0.103061,0.581908 -0.181818,0.818181 -0.07818,0.234534 -0.271824,0.406832 -0.363637,0.636364 -0.03559,0.08897 -0.05532,0.183755 -0.09091,0.272727 -0.02517,0.06291 -0.06948,0.117536 -0.09091,0.181819 -0.0096,0.02875 0.01355,0.06381 0,0.09091 -0.01917,0.03833 -0.07174,0.05258 -0.09091,0.09091 -0.01355,0.0271 -0.0303,0.09091 0,0.09091 0.04286,0 0.04933,-0.08051 0.09091,-0.09091 0.402948,-0.100737 0.150229,0.134934 0.545455,-0.09091 0.131552,-0.07517 0.247239,-0.17573 0.363636,-0.272728 0.06584,-0.05487 0.105157,-0.143487 0.181818,-0.181818 0.111752,-0.05588 0.261967,-0.01829 0.363637,-0.09091 0.123292,-0.08807 0.175729,-0.247239 0.272727,-0.363636 0.242644,-0.291173 0.662061,-0.55782 0.818182,-0.909091 0.06275,-0.141198 0.05616,-0.303987 0.09091,-0.454546 0.05619,-0.243486 0.12946,-0.482934 0.181818,-0.727272 0.03862,-0.180235 0.03794,-0.368902 0.09091,-0.545455 0.03894,-0.129804 0.121212,-0.242424 0.181818,-0.363636 0.0303,-0.06061 0.07447,-0.116082 0.09091,-0.181818 0.0147,-0.0588 -0.01917,-0.124323 0,-0.181819 0.01355,-0.04066 0.07174,-0.05258 0.09091,-0.09091 0.04286,-0.08571 0.03775,-0.192994 0.09091,-0.272727 0.01681,-0.02521 0.06948,0.02143 0.09091,0 0.354794,-0.354794 -0.02104,-0.04882 0.09091,-0.272727 0.01917,-0.03833 0.07736,-0.05025 0.09091,-0.09091 0.01917,-0.0575 -0.0147,-0.123022 0,-0.181819 0.01643,-0.06574 0.07762,-0.115374 0.09091,-0.181818 0.01783,-0.08914 0,-0.181818 0,-0.272727 0,-0.151515 0,-0.30303 0,-0.454545 0,-0.121213 0,-0.242425 0,-0.363637 0,-0.06061 -0.01917,-0.124322 0,-0.181818 0.04286,-0.128565 0.144588,-0.233331 0.181818,-0.363636 0.02497,-0.08741 -0.02205,-0.184533 0,-0.272728 0.01039,-0.04158 0.07736,-0.05025 0.09091,-0.09091 0.02802,-0.08407 -0.02995,-0.48556 0,-0.545454 0.01916,-0.03833 0.07174,-0.05258 0.09091,-0.09091 0.01355,-0.0271 0,-0.06061 0,-0.09091 0,-0.0303 0,-0.06061 0,-0.09091 0,-0.181818 0,-0.363636 0,-0.545454 0,-0.272727 0,-0.545455 0,-0.818182 0,-0.0303 0,-0.06061 0,-0.09091 0,-0.0303 0.02143,-0.06948 0,-0.09091 -0.02143,-0.02143 -0.06948,0.02143 -0.09091,0 -0.02143,-0.02143 0.02143,-0.06948 0,-0.09091 -0.02143,-0.02143 -0.06948,0.02143 -0.09091,0 -0.02143,-0.02143 0.01355,-0.06381 0,-0.09091 -0.01917,-0.03833 -0.06061,-0.06061 -0.09091,-0.09091 -0.06061,-0.06061 -0.134275,-0.110504 -0.181818,-0.181819 -0.01681,-0.02521 0.01355,-0.06381 0,-0.09091 -0.01917,-0.03833 -0.06061,-0.06061 -0.09091,-0.09091 -0.0303,-0.0303 -0.05258,-0.07174 -0.09091,-0.09091 -0.0271,-0.01355 -0.06948,0.02143 -0.09091,0 -0.04286,-0.04286 0.04285,-0.138963 0,-0.181818 -0.02143,-0.02143 -0.06948,0.02143 -0.09091,0 -0.02143,-0.02143 0.0074,-0.06151 0,-0.09091 -0.02324,-0.09297 -0.03775,-0.192995 -0.09091,-0.272727 -0.01681,-0.02521 -0.06381,0.01355 -0.09091,0 -0.378342,-0.189171 0.09719,0.0063 -0.09091,-0.181819 -0.02143,-0.02143 -0.06948,0.02143 -0.09091,0 -0.04286,-0.04285 0.0271,-0.12761 0,-0.181818 -0.01917,-0.03833 -0.07174,-0.05258 -0.09091,-0.09091 -0.02424,-0.04848 0.02424,-0.133333 0,-0.181818 -0.01916,-0.03833 -0.07174,-0.05258 -0.09091,-0.09091 -0.02857,-0.05714 0.02857,-0.306498 0,-0.363636 -0.189171,-0.378342 0.0063,0.09718 -0.181818,-0.09091 -0.02143,-0.02143 0.02143,-0.06948 0,-0.09091 -0.04286,-0.04285 -0.131391,0.03362 -0.181819,0 C 53.293099,30.256006 53.151515,30.121212 53,30 z"
       id="path4115"
       inkscape:connector-curvature="0" />
    <path
       style="fill:url(#radialGradient4119);stroke:#000000;stroke-width:1px;stroke-linecap:butt;stroke-linejoin:miter;stroke-opacity:1;fill-opacity:1"
       d="m 11,23 c -0.353432,0.530147 0.02702,0.02502 -0.545455,0.545455 -0.22197,0.201791 -0.424242,0.424242 -0.6363632,0.636363 -0.060606,0.06061 -0.1212121,0.121212 -0.1818182,0.181818 -0.030303,0.0303 -0.054161,0.06886 -0.090909,0.09091 -0.1162068,0.06973 -0.2678097,0.08599 -0.3636363,0.181819 C 9.0273025,24.79088 8.9434939,25.002802 8.8181819,25.181819 8.7312939,25.305945 8.6257575,25.416971 8.5454546,25.545456 8.2788237,25.972065 8.4677936,25.82435 8.1818183,26.181819 8.1282756,26.248746 8.0475433,26.292321 8,26.363636 c -0.016809,0.02521 0.021427,0.06948 0,0.09091 -0.021427,0.02143 -0.069482,-0.02143 -0.090909,0 -0.01102,0.01102 0.00933,0.144495 0,0.181819 -0.023241,0.09296 -0.041607,0.190556 -0.090909,0.272727 -0.044097,0.0735 -0.1377208,0.108322 -0.1818182,0.181818 -0.1648673,0.274779 -0.056255,0.211967 -0.090909,0.454546 C 7.5236027,27.698417 7.492021,27.850098 7.4545455,28 c 0.1545064,0.246069 -0.1389633,0.235071 -0.1818182,0.363636 0,0.413844 0.042855,0.0052 -0.090909,0.272728 -0.013552,0.0271 0.016809,0.06569 0,0.09091 C 7.1342749,28.798588 7.0207877,28.82594 7,28.909091 c -0.044097,0.176389 0,0.363636 0,0.545454 0,0.0303 -0.00958,0.06216 0,0.09091 0.021427,0.06428 0.069482,0.117535 0.090909,0.181818 0.03951,0.118531 0.035033,0.251884 0.090909,0.363636 0.06776,0.135519 0.1886818,0.237568 0.2727273,0.363636 0.1588679,0.238302 0.033979,0.158868 0.1818181,0.454546 0.019165,0.03833 0.060606,0.06061 0.090909,0.09091 0.030303,0.0303 0.071744,0.05258 0.090909,0.09091 0.016438,0.03288 0,0.391315 0,0.454546 0,0.30303 0,0.60606 0,0.90909 0,0.06061 0,0.121213 0,0.181819 0,0.07273 -0.030303,0.139394 0.090909,0.09091 0.1258265,-0.05033 0.2616477,-0.09258 0.3636364,-0.181818 0.1994572,-0.174528 0.449329,-0.610368 0.6363641,-0.818185 0.1720107,-0.191123 0.3942181,-0.337505 0.5454546,-0.545455 0.115606,-0.158958 0.2915707,-0.855869 0.3636363,-1 0.06776,-0.135519 0.2049672,-0.228117 0.2727272,-0.363636 0.05588,-0.111752 0.03503,-0.251884 0.09091,-0.363637 0.03833,-0.07666 0.137721,-0.108322 0.181818,-0.181818 0.0493,-0.08217 0.06767,-0.179762 0.09091,-0.272727 0.0074,-0.0294 -0.02143,-0.06948 0,-0.09091 0.04791,-0.04791 0.144232,-0.03453 0.181819,-0.09091 0.181818,-0.272727 -0.09091,-0.09091 0,-0.272727 0.227427,-0.454854 -0.05992,0.754162 0.181818,-0.454546 0.0059,-0.02971 0,-0.06061 0,-0.09091 0,-0.151515 -0.04162,-0.30886 0,-0.454545 C 10.841728,27.463042 10.952457,27.434951 11,27.363636 11.075173,27.250878 11.121212,27.121212 11.181818,27 c 0.06061,-0.121212 0.138963,-0.235071 0.181818,-0.363636 0.01917,-0.0575 -0.01,-0.122037 0,-0.181819 0.08502,-0.510138 0.07374,-0.204044 0.181819,-0.636363 0.0073,-0.0294 -0.01355,-0.0638 0,-0.09091 0.138616,-0.277233 0.07207,0.166267 0.181818,-0.272728 0.02988,-0.119528 -0.03763,-0.341641 0,-0.454545 0.01355,-0.04066 0.07174,-0.05258 0.09091,-0.09091 0.01355,-0.0271 0,-0.06061 0,-0.09091 0,-0.06061 0,-0.121212 0,-0.181818 0,-0.151516 0,-0.303031 0,-0.454546 0,-0.181818 0,-0.363636 0,-0.545454 0,-0.0303 0.02143,-0.06948 0,-0.09091 -0.04285,-0.04285 -0.138963,0.04285 -0.181818,0 -0.02143,-0.02143 0.02143,-0.06948 0,-0.09091 -0.02143,-0.02143 -0.06381,0.01355 -0.09091,0 -0.03833,-0.01917 -0.05799,-0.06347 -0.09091,-0.09091 C 11.305484,23.239419 11.151515,23.121212 11,23 z"
       id="path4117"
       inkscape:connector-curvature="0" />
  </g>
</svg>
