<?xml version="1.0" encoding="UTF-8" standalone="no"?>
<!-- Created with Inkscape (http://www.inkscape.org/) -->

<svg
   xmlns:dc="http://purl.org/dc/elements/1.1/"
   xmlns:cc="http://creativecommons.org/ns#"
   xmlns:rdf="http://www.w3.org/1999/02/22-rdf-syntax-ns#"
   xmlns:svg="http://www.w3.org/2000/svg"
   xmlns="http://www.w3.org/2000/svg"
   xmlns:xlink="http://www.w3.org/1999/xlink"
   xmlns:sodipodi="http://sodipodi.sourceforge.net/DTD/sodipodi-0.dtd"
   xmlns:inkscape="http://www.inkscape.org/namespaces/inkscape"
   width="64px"
   height="64px"
   id="svg2985"
   version="1.1"
   inkscape:version="0.48.4 r9939"
   sodipodi:docname="enemyShip2.svg"
   inkscape:export-filename="E:\CS104 Backup\CS104\Project 2\enemyShip.png"
   inkscape:export-xdpi="135"
   inkscape:export-ydpi="135">
  <defs
     id="defs2987">
    <linearGradient
       id="linearGradient3055">
      <stop
         style="stop-color:#ee2721;stop-opacity:1;"
         offset="0"
         id="stop3057" />
      <stop
         style="stop-color:#523231;stop-opacity:1;"
         offset="1"
         id="stop3059" />
    </linearGradient>
    <linearGradient
       inkscape:collect="always"
       id="linearGradient3029">
      <stop
         style="stop-color:#ff4e46;stop-opacity:1;"
         offset="0"
         id="stop3031" />
      <stop
         style="stop-color:#ff4e46;stop-opacity:0;"
         offset="1"
         id="stop3033" />
    </linearGradient>
    <linearGradient
       inkscape:collect="always"
       xlink:href="#linearGradient3029"
       id="linearGradient3037"
       x1="32"
       y1="22"
       x2="32"
       y2="11"
       gradientUnits="userSpaceOnUse" />
    <linearGradient
       inkscape:collect="always"
       xlink:href="#linearGradient3055"
       id="linearGradient3061"
       x1="44"
       y1="20"
       x2="13"
       y2="21"
       gradientUnits="userSpaceOnUse" />
  </defs>
  <sodipodi:namedview
     id="base"
     pagecolor="#ffffff"
     bordercolor="#666666"
     borderopacity="1.0"
     inkscape:pageopacity="0.0"
     inkscape:pageshadow="2"
     inkscape:zoom="11"
     inkscape:cx="24.373701"
     inkscape:cy="34.000761"
     inkscape:current-layer="layer1"
     showgrid="true"
     inkscape:document-units="px"
     inkscape:grid-bbox="true"
     inkscape:window-width="1920"
     inkscape:window-height="1017"
     inkscape:window-x="-32000"
     inkscape:window-y="-32000"
     inkscape:window-maximized="0">
    <inkscape:grid
       type="xygrid"
       id="grid2993"
       empspacing="8"
       visible="true"
       enabled="true"
       snapvisiblegridlinesonly="true" />
  </sodipodi:namedview>
  <metadata
     id="metadata2990">
    <rdf:RDF>
      <cc:Work
         rdf:about="">
        <dc:format>image/svg+xml</dc:format>
        <dc:type
           rdf:resource="http://purl.org/dc/dcmitype/StillImage" />
        <dc:title></dc:title>
      </cc:Work>
    </rdf:RDF>
  </metadata>
  <g
     id="layer1"
     inkscape:label="Layer 1"
     inkscape:groupmode="layer">
    <path
       style="fill:none;stroke:#000000;stroke-width:1px;stroke-linecap:butt;stroke-linejoin:miter;stroke-opacity:1"
       d="M 8,60 32,40 56,61 59,61 40,40 44,24 19,24 24,40 5,60 z"
       id="path3001"
       inkscape:connector-curvature="0"
       sodipodi:nodetypes="cccccccccc" />
    <path
       style="fill:url(#linearGradient3061);stroke:#000000;stroke-width:1px;stroke-linecap:butt;stroke-linejoin:miter;stroke-opacity:1;fill-opacity:1"
       d="m 19,24 -3,0 c 0.0718,0.167522 13.578609,-34.649912 32,0 z"
       id="path3003"
       inkscape:connector-curvature="0"
       sodipodi:nodetypes="cccc" />
    <path
       style="fill:none;stroke:#000000;stroke-width:1px;stroke-linecap:butt;stroke-linejoin:miter;stroke-opacity:1"
       d="m 22,26 5,14 3,-3 0,-11 z"
       id="path3009"
       inkscape:connector-curvature="0" />
    <path
       style="fill:none;stroke:#000000;stroke-width:1px;stroke-linecap:butt;stroke-linejoin:miter;stroke-opacity:1"
       d="M 41,26 37,40 34,37 34,26 z"
       id="path3011"
       inkscape:connector-curvature="0" />
    <path
       style="fill:none;stroke:#000000;stroke-width:1px;stroke-linecap:butt;stroke-linejoin:miter;stroke-opacity:1"
       d="m 34,33 c 0.226755,0.03985 0.121212,-0.606061 0.363636,-0.727273 0.0271,-0.01355 0.06948,0.02143 0.09091,0 0.02143,-0.02143 -0.02143,-0.06948 0,-0.09091 0.02143,-0.02143 0.07736,0.0271 0.09091,0 0.0271,-0.05421 -0.01917,-0.124322 0,-0.181818 0.01355,-0.04066 0.06714,-0.05525 0.09091,-0.09091 0.03759,-0.05638 0.04299,-0.133905 0.09091,-0.181818 0.188094,-0.188094 -0.0074,0.287432 0.181818,-0.09091 0.01355,-0.0271 -0.02143,-0.06948 0,-0.09091 0.02143,-0.02143 0.06948,0.02143 0.09091,0 0.110726,-0.110726 0.04258,-0.203111 0.181818,-0.272728 0.242424,0 -0.0303,0.0303 0.09091,-0.09091 0.02143,-0.02143 0.06948,0.02143 0.09091,0 0.02143,-0.02143 -0.02143,-0.06948 0,-0.09091 0.02143,-0.02143 0.06381,0.01355 0.09091,0 0.03833,-0.01917 0.05258,-0.07174 0.09091,-0.09091 0.0271,-0.01355 0.09091,-0.0303 0.09091,0 0,0.0303 -0.121212,0 -0.09091,0 0.09091,0 0.181818,0 0.272727,0 0.0303,0 0.06948,0.02143 0.09091,0 0.02143,-0.02143 -0.02143,-0.06948 0,-0.09091 0.02143,-0.02143 0.06061,0 0.09091,0 0.08793,0 0.518492,-0.01348 0.545455,0 0.03833,0.01917 0.05258,0.07174 0.09091,0.09091 0.0271,0.01355 0.06948,-0.02143 0.09091,0 0.02143,0.02143 -0.02143,0.06948 0,0.09091 0.04545,0.04546 0.227272,-0.04545 0.272727,0 0.02143,0.02143 -0.02143,0.06948 0,0.09091 0.04286,0.04285 0.12761,-0.0271 0.181818,0 0.139235,0.06962 0.07109,0.162002 0.181818,0.272727 0.02143,0.02143 0.06948,-0.02143 0.09091,0 0.02143,0.02143 -0.02143,0.06948 0,0.09091 0.02143,0.02143 0.06948,-0.02143 0.09091,0 0.02143,0.02143 -0.02143,0.06948 0,0.09091 0.02143,0.02143 0.06948,-0.02143 0.09091,0 0.04286,0.04285 -0.04286,0.138963 0,0.181818 0.02143,0.02143 0.06381,-0.01355 0.09091,0 0.03833,0.01917 0.05258,0.07174 0.09091,0.09091 0.0271,0.01355 0.06948,-0.02143 0.09091,0 0.04545,0.04545 -0.04545,0.227273 0,0.272727 0.02143,0.02143 0.06948,-0.02143 0.09091,0 0.02143,0.02143 -0.01355,0.06381 0,0.09091 0.01917,0.03833 0.07174,0.05258 0.09091,0.09091 0.01355,0.0271 -0.02143,0.06948 0,0.09091 0.02143,0.02143 0.06948,-0.02143 0.09091,0 0.04286,0.04285 -0.04286,0.138964 0,0.181819 0.02143,0.02143 0.06948,-0.02143 0.09091,0 0.01858,0.01859 -0.01802,0.236682 0,0.272727 0.01917,0.03833 0.07174,0.05258 0.09091,0.09091 0.0271,0.05421 -0.04286,0.138963 0,0.181818 0.121213,0.121212 0.09091,-0.151515 0.09091,0.09091 0,0.242424 -0.0303,-0.0303 0.09091,0.09091 0.02143,0.02143 -0.02366,0.10984 0,0.09091 C 38.712775,33.320689 38.848485,33.151515 39,33"
       id="path3015"
       inkscape:connector-curvature="0" />
    <path
       style="fill:none;stroke:#000000;stroke-width:1px;stroke-linecap:butt;stroke-linejoin:miter;stroke-opacity:1"
       d="m 25,34 c -0.0303,-0.272727 -0.09091,-0.543776 -0.09091,-0.818182 0,-0.0303 0.06948,0.02143 0.09091,0 0.02143,-0.02143 -0.01355,-0.06381 0,-0.09091 0.01917,-0.03833 0.07174,-0.05258 0.09091,-0.09091 0.01355,-0.0271 -0.01355,-0.06381 0,-0.09091 0.01917,-0.03833 0.07174,-0.05258 0.09091,-0.09091 0.01355,-0.0271 -0.01355,-0.06381 0,-0.09091 0.03833,-0.07666 0.143488,-0.105157 0.181818,-0.181818 0.0627,-0.125397 -0.110096,-0.08132 0.09091,-0.181819 0.0271,-0.01355 0.06948,0.02143 0.09091,0 0.02143,-0.02143 -0.02143,-0.06948 0,-0.09091 0.02143,-0.02143 0.0638,0.01355 0.09091,0 0.03833,-0.01917 0.05025,-0.07736 0.09091,-0.09091 4.12e-4,-1.37e-4 0.27264,8.7e-5 0.272727,0 0.02143,-0.02143 -0.02143,-0.06948 0,-0.09091 0.02143,-0.02143 0.06948,0.02143 0.09091,0 0.02143,-0.02143 -0.02143,-0.06948 0,-0.09091 0.02143,-0.02143 0.0638,0.01355 0.09091,0 0.03833,-0.01917 0.05258,-0.07174 0.09091,-0.09091 0.05421,-0.0271 0.138964,0.04285 0.181818,0 0.02143,-0.02143 -0.02143,-0.06948 0,-0.09091 0.04285,-0.04285 0.127611,0.0271 0.181819,0 0.03833,-0.01917 0.05258,-0.07174 0.09091,-0.09091 0.0271,-0.01355 0.06948,0.02143 0.09091,0 0.02143,-0.02143 -0.02143,-0.06948 0,-0.09091 0.02143,-0.02143 0.06061,0 0.09091,0 0.0303,-0.06061 0.043,-0.133905 0.09091,-0.181819 0.04546,-0.04545 0.227273,0.04546 0.272727,0 0.02143,-0.02143 -0.02143,-0.06948 0,-0.09091 0.02143,-0.02143 0.06061,0 0.09091,0 0.06444,0 0.52195,0.01175 0.545455,0 0.03833,-0.01917 0.05258,-0.07174 0.09091,-0.09091 0.0239,-0.01195 0.316098,0 0.363636,0 0.0303,0 0.0657,-0.01681 0.09091,0 0.07132,0.04754 0.110504,0.134275 0.181819,0.181818 0.03126,0.02084 0.252798,-0.01993 0.272727,0 0.02143,0.02143 -0.02875,0.08133 0,0.09091 0.08624,0.02875 0.181818,0 0.272727,0 0.0303,0 0.06948,-0.02143 0.09091,0 0.02143,0.02143 -0.02143,0.06948 0,0.09091 0.04546,0.04545 0.227273,-0.04546 0.272728,0 0.02143,0.02143 -0.02143,0.06948 0,0.09091 0.02143,0.02143 0.06061,0 0.09091,0 0,0.0303 -0.02143,0.06948 0,0.09091 0.02143,0.02143 0.06948,-0.02143 0.09091,0 0.0303,0.0303 -0.0303,0.151515 0,0.181818 0.02143,0.02143 0.06948,-0.02143 0.09091,0 0.0303,0.0303 -0.0303,0.151515 0,0.181818 0.02143,0.02143 0.06948,-0.02143 0.09091,0 0.02143,0.02143 0,0.06061 0,0.09091 0,0.06255 -0.01765,0.49252 0,0.545455 C 29.930518,32.882464 29.969697,32.939394 30,33"
       id="path3017"
       inkscape:connector-curvature="0" />
    <path
       style="fill:none;stroke:#000000;stroke-width:1px;stroke-linecap:butt;stroke-linejoin:miter;stroke-opacity:1"
       d="m 29,43 0,6 2,0 0,-8 z"
       id="path3019"
       inkscape:connector-curvature="0" />
    <path
       style="fill:none;stroke:#000000;stroke-width:1px;stroke-linecap:butt;stroke-linejoin:miter;stroke-opacity:1"
       d="m 33,41 0,8 2,0 0,-6 -2,-2"
       id="path3021"
       inkscape:connector-curvature="0" />
    <path
       style="fill:#ff4e46;fill-opacity:1;stroke:#c40000;stroke-width:0.27272728;stroke-miterlimit:4;stroke-opacity:1;stroke-dasharray:none"
       d="m 26.340278,36.520783 c -0.504849,-1.429241 -0.84187,-2.52362 -0.840909,-2.730604 0.0019,-0.408423 0.223635,-0.881849 0.41303,-0.881849 0.07372,0 0.134029,-0.04091 0.134029,-0.09091 0,-0.05 0.103557,-0.09091 0.230126,-0.09091 0.126569,0 0.253673,-0.06136 0.282454,-0.136364 0.02878,-0.075 0.129769,-0.136363 0.224419,-0.136363 0.09465,0 0.172092,-0.04091 0.172092,-0.09091 0,-0.05 0.08182,-0.09091 0.181818,-0.09091 0.1,0 0.181819,-0.05752 0.181819,-0.127833 0,-0.150763 0.834356,-0.29459 1.018537,-0.175577 0.0648,0.04188 0.259181,0.117844 0.431948,0.16882 0.208188,0.06143 0.376808,0.199388 0.5,0.40909 0.168016,0.286002 0.188843,0.498961 0.216729,2.216044 l 0.03085,1.899635 -1.120395,1.123092 c -0.616218,0.617701 -1.141464,1.12256 -1.167214,1.121909 -0.02575,-6.55e-4 -0.42595,-1.074515 -0.889333,-2.386364 l 0,0 z"
       id="path3023"
       inkscape:connector-curvature="0" />
    <path
       style="fill:url(#linearGradient3037);fill-opacity:1;stroke:#c40000;stroke-width:0.27272728000000002;stroke-miterlimit:4;stroke-opacity:1;stroke-dasharray:none"
       d="m 35.610144,37.790272 -1.10917,-1.11184 0,-1.689093 c 0,-1.678137 0.0015,-1.690806 0.230585,-1.953233 0.126821,-0.145276 0.304264,-0.427776 0.394316,-0.627776 0.230305,-0.511489 0.334917,-0.569706 1.084874,-0.60373 l 0.66432,-0.03014 0.142489,0.294207 c 0.07837,0.161814 0.198743,0.294208 0.267498,0.294208 0.06876,0 0.125009,0.07841 0.125009,0.174242 0,0.09583 0.03068,0.187879 0.06818,0.204546 0.0375,0.01667 0.160228,0.218874 0.272728,0.449351 0.336762,0.689919 0.282535,1.175698 -0.397465,3.560538 -0.331106,1.161228 -0.609252,2.120151 -0.618103,2.13094 -0.0089,0.01079 -0.515219,-0.48071 -1.125262,-1.092221 z"
       id="path3027"
       inkscape:connector-curvature="0" />
    <path
       style="fill:#ff4e46;fill-opacity:1;stroke:#c40000;stroke-width:0.27272728;stroke-miterlimit:4;stroke-opacity:1;stroke-dasharray:none"
       d="m 35.655506,37.562919 -0.972714,-0.97574 0,-1.53598 0,-1.53598 0.412881,-0.704264 c 0.227085,-0.387345 0.475886,-0.72844 0.55289,-0.75799 0.077,-0.02955 0.351435,-0.05373 0.609846,-0.05372 0.422854,2e-6 0.493847,0.03009 0.709931,0.300909 0.132051,0.165499 0.357051,0.523452 0.5,0.795452 0.427539,0.813514 0.374582,1.281445 -0.48294,4.267273 -0.179498,0.625 -0.333295,1.145233 -0.34177,1.156073 -0.0085,0.01084 -0.453131,-0.419373 -0.988124,-0.95603 l 0,0 z"
       id="path3039"
       inkscape:connector-curvature="0" />
    <path
       style="fill:#ff4e46;fill-opacity:1;stroke:#c40000;stroke-width:0.27272728;stroke-miterlimit:4;stroke-opacity:1;stroke-dasharray:none"
       d="m 27.157903,38.249239 c -0.05547,-0.1625 -0.409643,-1.195454 -0.787057,-2.295454 -0.377415,-1.1 -0.686624,-2.090121 -0.687131,-2.200268 -0.0013,-0.284647 0.188144,-0.663369 0.331851,-0.663369 0.06697,0 0.121771,-0.04091 0.121771,-0.09091 0,-0.05 0.0794,-0.09091 0.176453,-0.09091 0.09705,0 0.201803,-0.04102 0.232786,-0.09115 0.03098,-0.05013 0.227716,-0.175445 0.437184,-0.278473 0.209467,-0.103029 0.483123,-0.2455 0.608123,-0.316603 0.302239,-0.17192 0.515517,-0.162195 0.970186,0.04424 0.645341,0.293006 0.676469,0.397519 0.733998,2.464423 l 0.05089,1.828519 -0.989625,0.992704 c -0.544294,0.545986 -1.014141,0.992703 -1.044105,0.992703 -0.02996,0 -0.09986,-0.132955 -0.155328,-0.295455 l 0,0 z"
       id="path3051"
       inkscape:connector-curvature="0" />
    <path
       style="fill:#ac9393;fill-opacity:1;stroke:#c40000;stroke-width:0.27272728000000002;stroke-miterlimit:4;stroke-opacity:1;stroke-dasharray:none"
       d="M 44.097087,49.859537 C 33.584456,40.65312 31.992956,39.291319 31.869815,39.397014 c -0.07786,0.06683 -5.5292,4.608633 -12.114085,10.092894 L 7.7832142,59.461292 7.0539889,59.434811 6.3247636,59.40833 15.469532,49.784077 24.6143,40.159822 24.502706,39.784077 c -0.06138,-0.206661 -1.150512,-3.697999 -2.4203,-7.758529 -1.269788,-4.060529 -2.308705,-7.404848 -2.308705,-7.431818 0,-0.02697 5.292658,-0.04904 11.761462,-0.04904 l 11.761462,0 -1.952167,7.808302 -1.952167,7.808302 9.08299,10.036824 c 4.995645,5.520253 9.113422,10.086062 9.150616,10.146243 0.05073,0.08208 -0.121133,0.108143 -0.68774,0.104312 l -0.755365,-0.0051 -12.085705,-10.584034 z m -4.639545,-16.42848 c 1.190337,-4.1625 2.182744,-7.660227 2.205347,-7.772727 l 0.0411,-0.204545 -4.101506,0 -4.101507,0 0,5.931006 0,5.931006 1.840077,1.841721 c 1.012043,1.012947 1.865315,1.841721 1.896159,1.841721 0.03085,0 1.029995,-3.405682 2.220332,-7.568182 z m -10.752855,5.682671 1.796287,-1.794602 0,-5.932671 0,-5.93267 -4.643939,0 c -2.628879,0 -4.630791,0.03464 -4.613637,0.07983 0.01667,0.04391 1.257576,3.520473 2.757576,7.725699 1.5,4.205225 2.767807,7.646572 2.81735,7.647439 0.04954,9.09e-4 0.898406,-0.805998 1.886363,-1.793029 z"
       id="path3063"
       inkscape:connector-curvature="0" />
    <path
       style="fill:#000000;fill-opacity:1;stroke:none;stroke-width:0.27272728000000002;stroke-miterlimit:4;stroke-opacity:1;stroke-dasharray:none"
       d="m 24.773701,32.163062 c 0,-0.02214 -0.269822,-0.794197 -0.599604,-1.715677 -0.329783,-0.92148 -0.778043,-2.176555 -0.996134,-2.789055 l -0.396529,-1.113636 3.35977,0 3.35977,0 0,2.211528 0,2.211528 -0.295455,-0.04113 c -0.1625,-0.02262 -0.346454,-0.0818 -0.408788,-0.131499 -0.16883,-0.134619 -1.995118,0.0074 -2.15532,0.167578 -0.0701,0.0701 -0.171281,0.12745 -0.224853,0.12745 -0.05357,0 -0.0974,0.04091 -0.0974,0.09091 0,0.05 -0.08182,0.09091 -0.181819,0.09091 -0.1,0 -0.181818,0.04091 -0.181818,0.09091 0,0.05 -0.07681,0.09091 -0.170687,0.09091 -0.09388,0 -0.221614,0.06136 -0.283858,0.136363 -0.06225,0.075 -0.189981,0.136364 -0.283859,0.136364 -0.09388,0 -0.170687,0.05635 -0.170687,0.125232 0,0.06888 -0.06136,0.17616 -0.136363,0.238404 -0.075,0.06224 -0.136364,0.09506 -0.136364,0.07291 z"
       id="path3065"
       inkscape:connector-curvature="0" />
    <path
       style="fill:#000000;fill-opacity:1;stroke:none;stroke-width:0.27272728000000002;stroke-miterlimit:4;stroke-opacity:1;stroke-dasharray:none"
       d="m 38.455519,31.635603 c -0.03295,-0.15 -0.113243,-0.272727 -0.178438,-0.272727 -0.0652,0 -0.139805,-0.08133 -0.165798,-0.180724 -0.02599,-0.0994 -0.15019,-0.219857 -0.275993,-0.267687 -0.125802,-0.04783 -0.262715,-0.146225 -0.304251,-0.218655 -0.175177,-0.305472 -1.587106,-0.443702 -2.290331,-0.224227 -0.191571,0.05979 -0.385245,0.190097 -0.430386,0.289573 -0.04514,0.09948 -0.133212,0.197149 -0.195712,0.217051 -0.08881,0.02828 -0.113636,-0.452094 -0.113636,-2.198665 l 0,-2.234848 2.863636,0 c 1.575,0 2.863636,0.02915 2.863636,0.06478 0,0.03563 -0.335355,1.242447 -0.745234,2.681818 -0.454461,1.595935 -0.788613,2.617039 -0.856413,2.617039 -0.06115,0 -0.138134,-0.122727 -0.17108,-0.272727 z"
       id="path3067"
       inkscape:connector-curvature="0" />
    <path
       style="fill:#666666;fill-opacity:1;stroke:none;stroke-width:0.27272728000000002;stroke-miterlimit:4;stroke-opacity:1;stroke-dasharray:none"
       d="m 33.500974,45.388708 0,-3.065076 0.5,0.493789 0.5,0.493789 0,2.571287 0,2.571288 -0.5,0 -0.5,0 0,-3.065077 z"
       id="path3069"
       inkscape:connector-curvature="0" />
    <path
       style="fill:#666666;fill-opacity:1;stroke:none;stroke-width:0.27272728000000002;stroke-miterlimit:4;stroke-opacity:1;stroke-dasharray:none"
       d="m 29.500974,45.882497 0,-2.571287 0.5,-0.493789 0.5,-0.493789 0,3.065076 0,3.065077 -0.5,0 -0.5,0 0,-2.571288 z"
       id="path3071"
       inkscape:connector-curvature="0" />
    <path
       style="fill:#aa4400;stroke:none;stroke-width:1px;stroke-linecap:butt;stroke-linejoin:miter;stroke-opacity:1"
       d="M 14,53 27,42 25,41 z"
       id="path3841"
       inkscape:connector-curvature="0" />
    <path
       style="fill:#aa4400;stroke:none;stroke-width:1px;stroke-linecap:butt;stroke-linejoin:miter;stroke-opacity:1"
       d="M 48,52 39,41 37,42 z"
       id="path3847"
       inkscape:connector-curvature="0" />
  </g>
</svg>
