<?xml version="1.0" encoding="UTF-8" standalone="no"?>
<!-- Created with Inkscape (http://www.inkscape.org/) -->

<svg
   xmlns:dc="http://purl.org/dc/elements/1.1/"
   xmlns:cc="http://creativecommons.org/ns#"
   xmlns:rdf="http://www.w3.org/1999/02/22-rdf-syntax-ns#"
   xmlns:svg="http://www.w3.org/2000/svg"
   xmlns="http://www.w3.org/2000/svg"
   xmlns:xlink="http://www.w3.org/1999/xlink"
   xmlns:sodipodi="http://sodipodi.sourceforge.net/DTD/sodipodi-0.dtd"
   xmlns:inkscape="http://www.inkscape.org/namespaces/inkscape"
   width="128"
   height="128"
   id="svg3484"
   version="1.1"
   inkscape:version="0.48.4 r9939"
   sodipodi:docname="observatory.svg"
   inkscape:export-filename="E:\CS104 Backup\CS104\Project 2\observatory.png"
   inkscape:export-xdpi="90"
   inkscape:export-ydpi="90">
  <defs
     id="defs3486">
    <linearGradient
       id="linearGradient3775">
      <stop
         style="stop-color:#aaccff;stop-opacity:1;"
         offset="0"
         id="stop3777" />
      <stop
         style="stop-color:#5794f0;stop-opacity:1;"
         offset="1"
         id="stop3779" />
    </linearGradient>
    <linearGradient
       inkscape:collect="always"
       id="linearGradient3685">
      <stop
         style="stop-color:#fff6d5;stop-opacity:1;"
         offset="0"
         id="stop3687" />
      <stop
         style="stop-color:#fff6d5;stop-opacity:0;"
         offset="1"
         id="stop3689" />
    </linearGradient>
    <linearGradient
       inkscape:collect="always"
       id="linearGradient3677">
      <stop
         style="stop-color:#fff6d5;stop-opacity:1;"
         offset="0"
         id="stop3679" />
      <stop
         style="stop-color:#fff6d5;stop-opacity:0;"
         offset="1"
         id="stop3681" />
    </linearGradient>
    <linearGradient
       id="linearGradient3663">
      <stop
         style="stop-color:#ffffff;stop-opacity:1;"
         offset="0"
         id="stop3665" />
      <stop
         style="stop-color:#ddfcfb;stop-opacity:1;"
         offset="1"
         id="stop3667" />
    </linearGradient>
    <linearGradient
       id="linearGradient3496">
      <stop
         style="stop-color:#efeaea;stop-opacity:1;"
         offset="0"
         id="stop3498" />
      <stop
         style="stop-color:#e1e7fd;stop-opacity:1;"
         offset="1"
         id="stop3500" />
    </linearGradient>
    <radialGradient
       inkscape:collect="always"
       xlink:href="#linearGradient3496"
       id="radialGradient3502"
       cx="83.361771"
       cy="51.681435"
       fx="83.361771"
       fy="51.681435"
       r="113.5"
       gradientUnits="userSpaceOnUse"
       gradientTransform="matrix(0.98678412,1.5506608,-0.84366296,0.53687317,41.341641,-77.012203)" />
    <linearGradient
       inkscape:collect="always"
       xlink:href="#linearGradient3663"
       id="linearGradient3669"
       x1="128"
       y1="112"
       x2="128"
       y2="144"
       gradientUnits="userSpaceOnUse" />
    <linearGradient
       inkscape:collect="always"
       xlink:href="#linearGradient3677"
       id="linearGradient3683"
       x1="128"
       y1="64"
       x2="128"
       y2="80"
       gradientUnits="userSpaceOnUse" />
    <linearGradient
       inkscape:collect="always"
       xlink:href="#linearGradient3685"
       id="linearGradient3691"
       x1="128"
       y1="192"
       x2="128"
       y2="176"
       gradientUnits="userSpaceOnUse" />
    <linearGradient
       inkscape:collect="always"
       xlink:href="#linearGradient3775"
       id="linearGradient3781"
       x1="96"
       y1="208"
       x2="160"
       y2="208"
       gradientUnits="userSpaceOnUse"
       gradientTransform="matrix(0.56744784,0,0,0.56596495,-8.6602462,915.93643)" />
    <linearGradient
       inkscape:collect="always"
       xlink:href="#linearGradient3775"
       id="linearGradient3783"
       x1="64"
       y1="160"
       x2="96"
       y2="192"
       gradientUnits="userSpaceOnUse"
       gradientTransform="matrix(0.56744784,0,0,0.56596495,-8.6602462,915.93643)" />
    <linearGradient
       inkscape:collect="always"
       xlink:href="#linearGradient3775"
       id="linearGradient3793"
       x1="64"
       y1="112"
       x2="64"
       y2="144"
       gradientUnits="userSpaceOnUse"
       gradientTransform="matrix(0.56744784,0,0,0.56596495,-8.6602462,915.93643)" />
    <linearGradient
       inkscape:collect="always"
       xlink:href="#linearGradient3775"
       id="linearGradient3825"
       x1="96"
       y1="64"
       x2="64"
       y2="96"
       gradientUnits="userSpaceOnUse"
       gradientTransform="matrix(0.56744784,0,0,0.56596495,-8.6602462,915.93643)" />
    <linearGradient
       inkscape:collect="always"
       xlink:href="#linearGradient3775"
       id="linearGradient3833"
       x1="160"
       y1="48"
       x2="96"
       y2="48"
       gradientUnits="userSpaceOnUse"
       gradientTransform="matrix(0.56744784,0,0,0.56596495,-8.6602462,915.93643)" />
    <linearGradient
       inkscape:collect="always"
       xlink:href="#linearGradient3775"
       id="linearGradient3835"
       x1="208"
       y1="96"
       x2="176"
       y2="64"
       gradientUnits="userSpaceOnUse"
       gradientTransform="matrix(0.56744784,0,0,0.56596495,-8.6602462,915.93643)" />
    <linearGradient
       inkscape:collect="always"
       xlink:href="#linearGradient3775"
       id="linearGradient3843"
       x1="192"
       y1="144"
       x2="192"
       y2="112"
       gradientUnits="userSpaceOnUse"
       gradientTransform="matrix(0.56744784,0,0,0.56596495,-8.6602462,915.93643)" />
    <linearGradient
       inkscape:collect="always"
       xlink:href="#linearGradient3775"
       id="linearGradient3851"
       x1="160"
       y1="192"
       x2="192"
       y2="160"
       gradientUnits="userSpaceOnUse"
       gradientTransform="matrix(0.56744784,0,0,0.56596495,-8.6602462,915.93643)" />
  </defs>
  <sodipodi:namedview
     id="base"
     pagecolor="#ffffff"
     bordercolor="#666666"
     borderopacity="1.0"
     inkscape:pageopacity="0.0"
     inkscape:pageshadow="2"
     inkscape:zoom="3.959798"
     inkscape:cx="108.70019"
     inkscape:cy="62.377681"
     inkscape:document-units="px"
     inkscape:current-layer="layer1"
     showgrid="true"
     inkscape:window-width="1920"
     inkscape:window-height="1017"
     inkscape:window-x="-8"
     inkscape:window-y="-8"
     inkscape:window-maximized="1">
    <inkscape:grid
       type="xygrid"
       id="grid3492"
       empspacing="16"
       visible="true"
       enabled="true"
       snapvisiblegridlinesonly="true" />
  </sodipodi:namedview>
  <metadata
     id="metadata3489">
    <rdf:RDF>
      <cc:Work
         rdf:about="">
        <dc:format>image/svg+xml</dc:format>
        <dc:type
           rdf:resource="http://purl.org/dc/dcmitype/StillImage" />
        <dc:title></dc:title>
      </cc:Work>
    </rdf:RDF>
  </metadata>
  <g
     inkscape:label="Layer 1"
     inkscape:groupmode="layer"
     id="layer1"
     transform="translate(0,-924.36218)">
    <path
       style="fill:none;stroke:#000000;stroke-width:0.56670588px;stroke-linecap:butt;stroke-linejoin:miter;stroke-opacity:1"
       d="M 27.656415,924.99189 0.41891957,961.21364 63.973077,988.37996 27.656415,924.99189"
       id="path3693"
       inkscape:connector-curvature="0"
       sodipodi:nodetypes="cccc" />
    <path
       style="fill:none;stroke:#000000;stroke-width:0.56670588px;stroke-linecap:butt;stroke-linejoin:miter;stroke-opacity:1"
       d="m 36.735581,924.99189 54.47499,0 -27.237494,63.38807 z"
       id="path3695"
       inkscape:connector-curvature="0"
       sodipodi:nodetypes="cccc" />
    <path
       style="fill:none;stroke:#000000;stroke-width:0.56670588px;stroke-linecap:butt;stroke-linejoin:miter;stroke-opacity:1"
       d="m 63.973077,988.37996 36.316653,-63.38807 27.2375,36.22175 z"
       id="path3697"
       inkscape:connector-curvature="0" />
    <path
       style="fill:none;stroke:#000000;stroke-width:0.56670588px;stroke-linecap:butt;stroke-linejoin:miter;stroke-opacity:1"
       d="m 63.973077,988.37996 63.554153,-18.11087 0,36.22171 z"
       id="path3699"
       inkscape:connector-curvature="0" />
    <path
       style="fill:none;stroke:#000000;stroke-width:0.56670588px;stroke-linecap:butt;stroke-linejoin:miter;stroke-opacity:1"
       d="m 63.973077,988.37996 63.554153,27.16624 -27.2375,36.2218 -36.316653,-63.38804 27.237494,63.38804 -54.47499,0 L 63.973077,988.37996 27.656415,1051.768 0.41891957,1015.5462 63.973077,988.37996 0.41891957,1006.4908 l 0,-36.22171 63.55415743,18.11087"
       id="path3701"
       inkscape:connector-curvature="0" />
    <path
       style="fill:none;stroke:#000000;stroke-width:0.56670588px;stroke-linecap:butt;stroke-linejoin:miter;stroke-opacity:1"
       d="m 9.4980854,997.43544 9.0791656,18.11076"
       id="path3703"
       inkscape:connector-curvature="0" />
    <path
       style="fill:none;stroke:#000000;stroke-width:0.56670588px;stroke-linecap:butt;stroke-linejoin:miter;stroke-opacity:1"
       d="m 36.735581,1024.6017 9.079166,9.0554"
       id="path3705"
       inkscape:connector-curvature="0" />
    <path
       style="fill:none;stroke:#000000;stroke-width:0.56670588px;stroke-linecap:butt;stroke-linejoin:miter;stroke-opacity:1"
       d="m 73.052239,1024.6017 9.079166,-9.0555"
       id="path3707"
       inkscape:connector-curvature="0" />
    <path
       style="fill:none;stroke:#000000;stroke-width:0.56670588px;stroke-linecap:butt;stroke-linejoin:miter;stroke-opacity:1"
       d="m 118.44806,997.43544 -9.07916,18.11076"
       id="path3709"
       inkscape:connector-curvature="0" />
    <path
       style="fill:none;stroke:#000000;stroke-width:0.56670588px;stroke-linecap:butt;stroke-linejoin:miter;stroke-opacity:1"
       d="m 109.3689,979.32463 -9.07917,-9.05554"
       id="path3711"
       inkscape:connector-curvature="0" />
    <path
       style="fill:none;stroke:#000000;stroke-width:0.56670588px;stroke-linecap:butt;stroke-linejoin:miter;stroke-opacity:1"
       d="M 91.210571,961.21364 73.052239,943.10276"
       id="path3713"
       inkscape:connector-curvature="0" />
    <path
       style="fill:none;stroke:#000000;stroke-width:0.56670588px;stroke-linecap:butt;stroke-linejoin:miter;stroke-opacity:1"
       d="m 45.814747,961.21364 9.079164,-9.05544"
       id="path3715"
       inkscape:connector-curvature="0" />
    <path
       style="fill:#aaccff;stroke:#000000;stroke-width:0.56670588px;stroke-linecap:butt;stroke-linejoin:miter;stroke-opacity:1"
       d="m 27.656415,961.21364 -9.079164,18.11099"
       id="path3717"
       inkscape:connector-curvature="0" />
    <path
       style="fill:url(#linearGradient3781);fill-opacity:1;stroke:#000000;stroke-width:0.42934456;stroke-miterlimit:4;stroke-opacity:1;stroke-dasharray:none"
       d="m 37.377195,1051.1698 c 0.17894,-0.4652 7.587493,-17.7116 7.632611,-17.7681 0.02578,-0.033 0.175018,0.057 0.331655,0.1984 0.236521,0.2135 0.322631,0.2257 0.508008,0.072 0.198466,-0.1642 0.180781,-0.2289 -0.159526,-0.5833 l -0.382737,-0.3979 9.297726,-21.6585 c 5.113755,-11.91221 9.329979,-21.65871 9.369382,-21.65871 0.03939,0 3.028009,6.88987 6.641333,15.31071 l 6.56969,15.3106 -2.195547,2.1932 c -2.084974,2.0827 -2.183,2.2058 -1.94655,2.4417 0.236444,0.2357 0.353287,0.1444 2.320187,-1.8139 1.139157,-1.1342 2.10173,-2.0318 2.13905,-1.9945 0.07362,0.073 13.126051,30.4195 13.126051,30.5172 0,0.033 -12.001295,0.059 -26.66954,0.059 -24.359169,0 -26.661946,-0.02 -26.581793,-0.2281 z"
       id="path3719"
       inkscape:connector-curvature="0" />
    <path
       style="fill:url(#linearGradient3851);fill-opacity:1;stroke:#000000;stroke-width:0.42934456;stroke-miterlimit:4;stroke-opacity:1;stroke-dasharray:none"
       d="m 90.610324,1034.1863 -9.691107,-16.922 0.698892,-0.6866 c 0.731889,-0.719 0.849935,-1.0059 0.473313,-1.1499 -0.146758,-0.056 -0.446988,0.1305 -0.859224,0.5339 -0.383305,0.3751 -0.682026,0.5664 -0.756105,0.4837 -0.17591,-0.1958 -15.654245,-27.25879 -15.608468,-27.29049 0.021,-0.0143 10.653517,4.51425 23.627849,10.06425 l 23.589706,10.09034 -1.52116,3.04 c -1.27166,2.5414 -1.4859,3.0625 -1.30621,3.1761 0.11823,0.075 0.26303,0.1363 0.32179,0.1377 0.0588,0 0.78451,-1.3485 1.61279,-2.9992 0.8283,-1.6509 1.55406,-3.0017 1.6128,-3.0018 0.0588,-2e-4 3.27882,1.3559 7.15569,3.0137 l 7.04886,3.0141 -13.31878,17.7106 c -7.32534,9.7409 -13.3347,17.71 -13.35416,17.709 -0.0195,0 -4.39637,-7.6166 -9.726476,-16.9239 l 0,0 z"
       id="path3721"
       inkscape:connector-curvature="0" />
    <path
       style="fill:url(#linearGradient3843);fill-opacity:1;stroke:#000000;stroke-width:0.42934456;stroke-miterlimit:4;stroke-opacity:1;stroke-dasharray:none"
       d="m 121.43851,1004.4141 c -2.8768,-0.8266 -5.25047,-1.5206 -5.27483,-1.542 -0.0244,-0.022 0.53989,-1.2029 1.25389,-2.6255 0.71401,-1.42252 1.29819,-2.61721 1.29819,-2.65451 0,-0.0373 -0.12782,-0.13628 -0.28405,-0.21963 -0.26201,-0.14059 -0.38996,0.0588 -1.64982,2.57 -1.24829,2.48734 -1.39336,2.71444 -1.68636,2.63944 -3.26794,-0.8359 -49.69695,-14.21069 -49.544891,-14.27238 0.118222,-0.0488 9.319056,-2.68118 20.446294,-5.85197 l 20.231337,-5.76476 1.40461,1.40615 c 0.77253,0.77352 1.48844,1.4063 1.59092,1.4063 0.10247,0 0.22562,-0.10186 0.27367,-0.22709 0.0605,-0.15723 -0.30201,-0.61715 -1.17929,-1.49624 -0.69665,-0.6981 -1.23775,-1.29259 -1.20245,-1.32117 0.0798,-0.0645 19.80098,-5.67408 19.94816,-5.67408 0.0587,0 0.1067,7.91107 0.1067,17.5801 0,16.65334 -0.0132,17.57934 -0.25077,17.56524 -0.13794,-0.014 -2.60452,-0.6912 -5.48131,-1.5179 z"
       id="path3723"
       inkscape:connector-curvature="0" />
    <path
       style="fill:url(#linearGradient3835);fill-opacity:1;stroke:#000000;stroke-width:0.42934456;stroke-miterlimit:4;stroke-opacity:1;stroke-dasharray:none"
       d="m 64.978123,987.40188 c 3.81e-4,-0.0588 4.244621,-7.51591 9.431655,-16.57107 l 9.430961,-16.46398 3.567103,3.55992 c 3.392634,3.38579 3.579971,3.54828 3.830408,3.32223 0.251141,-0.22668 0.09462,-0.40656 -3.384899,-3.88994 l -3.648219,-3.65229 7.876182,-13.72104 c 4.331896,-7.54659 7.957946,-13.87069 8.057886,-14.05358 0.17226,-0.3152 0.87244,0.58604 13.46325,17.32972 7.30484,9.71421 13.28018,17.71057 13.2785,17.76968 -0.002,0.0591 -5.55591,2.47688 -12.34275,5.3728 l -12.33971,5.26535 -0.84073,-0.82976 c -0.79429,-0.78399 -0.85433,-0.81624 -1.08659,-0.58459 -0.23225,0.23166 -0.20701,0.28451 0.45678,0.95665 0.38643,0.39132 0.67285,0.74119 0.63647,0.77747 -0.0841,0.0839 -36.191532,15.51974 -36.303654,15.51974 -0.04586,0 -0.08302,-0.0488 -0.08264,-0.1076 z"
       id="path3725"
       inkscape:connector-curvature="0" />
    <path
       style="fill:url(#linearGradient3833);fill-opacity:1;stroke:#000000;stroke-width:0.42934456;stroke-miterlimit:4;stroke-opacity:1;stroke-dasharray:none"
       d="m 57.325187,972.05986 -6.576543,-15.30643 2.202866,-2.20055 c 2.094041,-2.09184 2.190541,-2.21284 1.953263,-2.4495 -0.237279,-0.23667 -0.353554,-0.14529 -2.353598,1.84953 l -2.10399,2.09848 -6.492973,-15.10776 c -3.571136,-8.30927 -6.529075,-15.22033 -6.573198,-15.3579 -0.07621,-0.23761 1.254458,-0.25012 26.583646,-0.25012 14.665126,0 26.663868,0.0375 26.663868,0.0831 0,0.11376 -10.318085,24.11977 -10.403565,24.20503 -0.03756,0.0374 -1.612654,-1.47115 -3.500166,-3.3525 -3.262679,-3.25204 -3.444148,-3.40838 -3.681523,-3.17162 -0.237375,0.23676 -0.07433,0.42404 3.307733,3.79928 l 3.557416,3.55025 -7.930708,18.45861 c -4.361883,10.15223 -7.963385,18.45858 -8.003339,18.45858 -0.03995,0 -3.032089,-6.88801 -6.649189,-15.30637 l 0,0 z"
       id="path3727"
       inkscape:connector-curvature="0" />
    <path
       style="fill:url(#linearGradient3825);fill-opacity:1;stroke:#000000;stroke-width:0.42934456;stroke-miterlimit:4;stroke-opacity:1;stroke-dasharray:none"
       d="m 43.022988,979.05909 -19.73326,-8.4407 2.322041,-4.63699 c 1.934557,-3.86327 2.28617,-4.65978 2.107086,-4.77326 -0.118223,-0.075 -0.247658,-0.13715 -0.28763,-0.1383 -0.03997,-10e-4 -1.119127,2.08643 -2.398122,4.63915 -2.042225,4.07608 -2.358391,4.6288 -2.59597,4.53797 -1.610735,-0.61566 -21.3673481,-9.13541 -21.3695399,-9.21532 -0.00158,-0.0591 5.9707595,-8.05149 13.2719599,-17.76086 l 13.274909,-17.65339 9.525191,16.61744 c 5.238854,9.1396 9.594314,16.76448 9.678798,16.94419 0.135773,0.28879 0.07579,0.40553 -0.516605,1.0054 -0.709944,0.7189 -0.773844,0.86563 -0.497138,1.14164 0.135227,0.13484 0.322509,0.0258 0.856511,-0.49878 0.37589,-0.36929 0.713171,-0.64177 0.749514,-0.6055 0.09848,0.0981 15.430461,26.86995 15.516901,27.09446 0.04085,0.10616 0.01896,0.19094 -0.04856,0.18836 -0.06754,0 -9.002775,-3.80301 -19.856067,-8.44537 l 0,0 z"
       id="path3729"
       inkscape:connector-curvature="0" />
    <path
       style="fill:url(#linearGradient3793);fill-opacity:1;stroke:#000000;stroke-width:0.42934456;stroke-miterlimit:4;stroke-opacity:1;stroke-dasharray:none"
       d="m 0.77803825,988.36676 c 0,-9.66903 0.0483672,-17.5801 0.10747141,-17.5801 0.0591186,6e-5 4.33992214,1.20608 9.51291234,2.68007 l 9.405435,2.67996 -0.770485,1.53179 c -0.736606,1.46453 -0.758053,1.53841 -0.48781,1.68287 0.257544,0.13772 0.353118,0.0144 1.074972,-1.42494 0.435762,-0.86651 0.824267,-1.57561 0.863343,-1.57561 0.137987,0 41.844345,11.89894 41.974551,11.97555 0.09471,0.0559 -46.964937,13.57015 -49.605331,14.24555 -0.293001,0.075 -0.43808,-0.1521 -1.686357,-2.63944 -1.2598608,-2.51047 -1.3878074,-2.70987 -1.6498281,-2.57 -0.1562267,0.0832 -0.2840482,0.18233 -0.2840482,0.21963 0,0.0373 0.5841863,1.23199 1.2981903,2.65451 0.714005,1.4226 1.278258,2.604 1.253896,2.6252 -0.07469,0.065 -10.7058768,3.0751 -10.86131867,3.0751 -0.0978123,0 -0.14559883,-5.7706 -0.14559883,-17.58014 z"
       id="path3731"
       inkscape:connector-curvature="0" />
    <path
       style="fill:url(#linearGradient3783);fill-opacity:1;stroke:#000000;stroke-width:0.42934456;stroke-miterlimit:4;stroke-opacity:1;stroke-dasharray:none"
       d="m 14.274669,1033.4238 -13.33578153,-17.7332 7.04886163,-3.0142 c 3.8768729,-1.6577 7.0969309,-3.0138 7.1556839,-3.0137 0.05876,2e-4 0.784516,1.3509 1.612803,3.0018 0.828286,1.6508 1.554049,3.0005 1.612801,2.9992 0.05876,0 0.203553,-0.063 0.321778,-0.1377 0.179696,-0.1133 -0.03455,-0.6346 -1.306203,-3.1759 l -1.521157,-3.04 23.589699,-10.09051 c 12.974335,-5.54986 23.606877,-10.07874 23.627867,-10.06425 0.03546,0.0244 -22.141385,38.79646 -22.272255,38.93876 -0.03266,0.036 -0.92368,-0.7957 -1.980058,-1.8471 -1.690732,-1.6829 -1.948569,-1.8887 -2.153553,-1.719 -0.20712,0.1714 -0.01078,0.4151 1.775737,2.2045 l 2.008601,2.0118 -6.31045,11.0053 c -3.47075,6.0531 -6.361784,11.096 -6.424523,11.2067 -0.08045,0.1421 -4.045435,-5.0265 -13.449851,-17.5321 l 0,0 z"
       id="path3733"
       inkscape:connector-curvature="0" />
    <path
       style="fill:#2a2aff;fill-opacity:1;stroke:#000000;stroke-width:0.42934456;stroke-miterlimit:4;stroke-opacity:1;stroke-dasharray:none"
       d="m 72.392741,1007.1257 c -2.89618,-6.741 -5.265739,-12.32037 -5.265693,-12.39884 5.1e-5,-0.0789 2.907311,4.93156 6.460585,11.13324 l 6.460501,11.2762 -1.119218,1.1228 c -0.615566,0.6176 -1.15323,1.123 -1.194807,1.123 -0.0416,0 -2.445193,-5.5154 -5.341368,-12.2564 z"
       id="path3735"
       inkscape:connector-curvature="0" />
    <path
       style="fill:#2a2aff;fill-opacity:1;stroke:#000000;stroke-width:0.42934456;stroke-miterlimit:4;stroke-opacity:1;stroke-dasharray:none"
       d="m 91.093653,999.61295 c -11.606016,-4.96672 -21.053216,-9.04659 -20.99377,-9.06638 0.05944,-0.0201 10.208511,2.84242 22.553486,6.36023 l 22.445401,6.3961 -1.3449,2.6798 c -0.73968,1.474 -1.39292,2.6754 -1.45163,2.6702 -0.0587,0 -9.60256,-4.0731 -21.208587,-9.03995 z"
       id="path3737"
       inkscape:connector-curvature="0" />
    <path
       style="fill:#2a2aff;fill-opacity:1;stroke:#000000;stroke-width:0.42934456;stroke-miterlimit:4;stroke-opacity:1;stroke-dasharray:none"
       d="m 85.962677,979.35117 16.041323,-6.86242 1.83325,1.82438 1.83325,1.82445 -17.659621,5.03776 c -9.712788,2.77084 -17.756345,5.03801 -17.874572,5.03801 -0.118223,0 7.003646,-3.08802 15.82637,-6.86218 z"
       id="path3739"
       inkscape:connector-curvature="0" />
    <path
       style="fill:#2a2aff;fill-opacity:1;stroke:#000000;stroke-width:0.42934456;stroke-miterlimit:4;stroke-opacity:1;stroke-dasharray:none"
       d="m 67.312842,981.57759 c 0.06925,-0.29465 12.985196,-30.39234 13.092324,-30.50859 0.03297,-0.0359 0.708209,0.58146 1.500503,1.37169 l 1.440528,1.43678 -7.766334,13.56422 c -8.00612,13.98312 -8.382157,14.62609 -8.267021,14.1359 z"
       id="path3741"
       inkscape:connector-curvature="0" />
    <path
       style="fill:#2a2aff;fill-opacity:1;stroke:#000000;stroke-width:0.42934456;stroke-miterlimit:4;stroke-opacity:1;stroke-dasharray:none"
       d="m 54.238736,970.69537 -6.352518,-11.08825 1.160115,-1.15709 c 0.638062,-0.63639 1.184003,-1.12784 1.213199,-1.09211 0.155247,0.19001 10.445534,24.3122 10.393487,24.36413 -0.03399,0.0344 -2.920392,-4.92813 -6.414283,-11.02668 z"
       id="path3743"
       inkscape:connector-curvature="0" />
    <path
       style="fill:#2a2aff;fill-opacity:1;stroke:#000000;stroke-width:0.42934456;stroke-miterlimit:4;stroke-opacity:1;stroke-dasharray:none"
       d="m 39.183033,980.97379 c -10.049068,-2.87069 -18.300844,-5.24669 -18.337279,-5.28005 -0.03644,-0.0334 0.430113,-1.05319 1.036774,-2.26633 l 1.103022,-2.20569 0.826154,0.35558 c 0.454385,0.19555 8.338772,3.56876 17.520862,7.49599 9.182089,3.92724 16.565738,7.13576 16.408107,7.13016 -0.157638,0 -8.508574,-2.35883 -18.55764,-5.22966 z"
       id="path3745"
       inkscape:connector-curvature="0" />
    <path
       style="fill:#2a2aff;fill-opacity:1;stroke:#000000;stroke-width:0.42934456;stroke-miterlimit:4;stroke-opacity:1;stroke-dasharray:none"
       d="m 14.201071,1005.9953 -1.351214,-2.6924 22.445407,-6.3961 c 12.344973,-3.51781 22.494045,-6.38003 22.55349,-6.36023 0.07959,0.0272 -40.775471,17.55893 -42.081218,18.05873 -0.162803,0.062 -0.544468,-0.5737 -1.566465,-2.61 z"
       id="path3747"
       inkscape:connector-curvature="0" />
    <path
       style="fill:#2a2aff;fill-opacity:1;stroke:#000000;stroke-width:0.42934456;stroke-miterlimit:4;stroke-opacity:1;stroke-dasharray:none"
       d="m 42.989243,1030.3962 -1.706445,-1.7064 9.660617,-16.8636 c 5.313336,-9.2751 9.68437,-16.83998 9.713406,-16.811 0.06781,0.0674 -15.788858,37.0809 -15.887242,37.0845 -0.04064,0 -0.841791,-0.765 -1.780336,-1.7035 z"
       id="path3749"
       inkscape:connector-curvature="0" />
    <path
       style="fill:#5a2ca0;fill-opacity:1;stroke:#000000;stroke-width:0.05366806;stroke-miterlimit:4;stroke-opacity:1;stroke-dasharray:none"
       d="m 67.013486,994.71394 c -0.05311,-0.10185 -0.686278,-1.59723 -0.679151,-1.60426 0.0065,0 0.861885,1.46626 0.887244,1.52752 0.0029,0 -0.03956,0.033 -0.09363,0.0588 -0.09061,0.0445 -0.09959,0.0459 -0.114471,0.0172 l 0,0 z"
       id="path3751"
       inkscape:connector-curvature="0" />
    <path
       style="fill:#5a2ca0;fill-opacity:1;stroke:#000000;stroke-width:0.05366806;stroke-miterlimit:4;stroke-opacity:1;stroke-dasharray:none"
       d="m 60.67423,994.99196 c -0.05912,-0.0301 -0.110001,-0.0559 -0.113077,-0.0588 -0.0029,0 0.234282,-0.42362 0.527471,-0.93532 0.293195,-0.51185 0.536539,-0.92701 0.540778,-0.92271 0.0081,0.0144 -0.815859,1.93837 -0.836201,1.95931 -0.0063,0 -0.05987,-0.0143 -0.118971,-0.043 z"
       id="path3755"
       inkscape:connector-curvature="0" />
    <path
       style="fill:#5a2ca0;fill-opacity:1;stroke:#000000;stroke-width:0.05366806;stroke-miterlimit:4;stroke-opacity:1;stroke-dasharray:none"
       d="m 57.874296,990.54456 c -0.02185,-0.0602 -0.03763,-0.1119 -0.03501,-0.11333 0.01736,-0.0144 1.667531,-0.47369 1.672849,-0.46838 0.0046,0 -1.436387,0.62919 -1.585893,0.68729 -0.0068,0 -0.03007,-0.0445 -0.05192,-0.10616 z"
       id="path3757"
       inkscape:connector-curvature="0" />
    <path
       style="fill:#5a2ca0;fill-opacity:1;stroke:#000000;stroke-width:0.0758981;stroke-miterlimit:4;stroke-opacity:1;stroke-dasharray:none"
       d="m 58.53502,986.52852 c -0.422085,-0.12193 -0.772501,-0.22665 -0.778703,-0.23282 -0.02191,-0.0215 0.07311,-0.22437 0.100098,-0.21332 0.198084,0.0803 1.523778,0.65387 1.531985,0.6619 0.03359,0.033 -0.161112,-0.0158 -0.853386,-0.21576 l 0,0 z"
       id="path3761"
       inkscape:connector-curvature="0" />
    <path
       style="fill:#5a2ca0;fill-opacity:1;stroke:#000000;stroke-width:0.0758981;stroke-miterlimit:4;stroke-opacity:1;stroke-dasharray:none"
       d="m 61.055362,982.69956 c -0.27443,-0.47886 -0.498962,-0.87623 -0.498962,-0.88297 0,-0.0273 0.209887,-0.11763 0.227013,-0.0976 0.03189,0.0373 0.793377,1.82877 0.781885,1.84025 -0.006,0 -0.235501,-0.38088 -0.509936,-0.85973 z"
       id="path3763"
       inkscape:connector-curvature="0" />
    <path
       style="fill:#5a2ca0;fill-opacity:1;stroke:#000000;stroke-width:0.0758981;stroke-miterlimit:4;stroke-opacity:1;stroke-dasharray:none"
       d="m 66.357538,983.59171 c 0,-0.0144 0.169383,-0.40971 0.376405,-0.89158 l 0.376405,-0.87622 0.02927,0.11619 c 0.03053,0.12051 0.04857,0.13629 0.09948,0.0861 0.01674,-0.0158 0.03041,-0.0215 0.03041,-0.0143 0,0.023 -0.85516,1.5278 -0.890433,1.56725 -0.01193,0.0144 -0.02151,0.0172 -0.02151,0.0144 z"
       id="path3765"
       inkscape:connector-curvature="0" />
    <path
       style="fill:#5a2ca0;fill-opacity:1;stroke:#000000;stroke-width:0.0758981;stroke-miterlimit:4;stroke-opacity:1;stroke-dasharray:none"
       d="m 68.56417,986.74428 c 0.0088,-0.0143 0.990837,-0.4328 1.40975,-0.60868 0.08205,-0.0344 0.0827,-0.0344 0.120321,0.056 0.02083,0.0502 0.03785,0.099 0.03785,0.10902 0,0.0158 -1.499492,0.45519 -1.556146,0.45519 -0.01265,0 -0.01788,0 -0.01178,-0.0144 z"
       id="path3767"
       inkscape:connector-curvature="0" />
    <path
       style="fill:#9955ff;fill-opacity:1;stroke:#000000;stroke-width:0.0758981;stroke-miterlimit:4;stroke-opacity:1;stroke-dasharray:none"
       d="m 69.253047,990.32249 c -0.406838,-0.17516 -0.735453,-0.32292 -0.730256,-0.32808 0.0075,0 1.553327,0.42118 1.577722,0.43739 0.01509,0.0144 -0.06332,0.19969 -0.08449,0.20428 -0.01279,0 -0.35614,-0.13771 -0.762977,-0.31359 z"
       id="path3769"
       inkscape:connector-curvature="0" />
    <path
       style="fill:none;stroke:#000000;stroke-width:0.56670588px;stroke-linecap:butt;stroke-linejoin:miter;stroke-opacity:1"
       d="m 100.28973,924.99189 27.2375,0 0,36.22175"
       id="path3943"
       inkscape:connector-curvature="0" />
    <path
       style="fill:#e5d5ff;stroke:#000000;stroke-width:0.56670588px;stroke-linecap:butt;stroke-linejoin:miter;stroke-opacity:1"
       d="m 127.52723,1015.5462 0,36.2218 -27.2375,0"
       id="path3945"
       inkscape:connector-curvature="0" />
    <path
       style="fill:#e5d5ff;fill-opacity:1;stroke:#000000;stroke-width:0.30359244;stroke-miterlimit:4;stroke-opacity:1;stroke-dasharray:none"
       d="m 126.23092,958.81398 c -2.92362,-4.00372 -19.09839,-25.55675 -23.85348,-31.78501 l -1.33102,-1.74337 13.07231,0 13.07233,0 0,17.38321 c 0,9.56077 -0.0127,17.3832 -0.0281,17.3832 -0.0154,0 -0.43486,-0.5571 -0.9321,-1.23803 l 0,0 z"
       id="path3947"
       inkscape:connector-curvature="0" />
    <path
       style="fill:none;stroke:#000000;stroke-width:0.56670588px;stroke-linecap:butt;stroke-linejoin:miter;stroke-opacity:1"
       d="m 91.210571,924.99189 9.079159,0"
       id="path3949"
       inkscape:connector-curvature="0" />
    <path
       style="fill:none;stroke:#000000;stroke-width:0.56670588px;stroke-linecap:butt;stroke-linejoin:miter;stroke-opacity:1"
       d="m 91.210571,1051.768 9.079159,0"
       id="path3951"
       inkscape:connector-curvature="0" />
    <path
       style="fill:#e5d5ff;fill-opacity:1;stroke:#000000;stroke-width:0.60718489;stroke-miterlimit:4;stroke-opacity:1;stroke-dasharray:none"
       d="m 88.923733,1045.0973 c -6.843324,-15.9328 -10.555012,-24.6959 -10.555012,-24.9203 0,-0.2611 1.709868,-1.9156 1.971411,-1.9075 0.120665,0 14.098343,24.1861 18.360727,31.7656 l 0.775451,1.3789 -3.919776,0 -3.91977,0 -2.713031,-6.3167 z"
       id="path3953"
       inkscape:connector-curvature="0" />
    <path
       style="fill:#e5d5ff;fill-opacity:1;stroke:#000000;stroke-width:0.60718489;stroke-miterlimit:4;stroke-opacity:1;stroke-dasharray:none"
       d="m 82.257923,951.49946 -1.266918,-1.27494 4.17346,-9.79169 c 2.295399,-5.38543 4.688889,-10.9969 5.318865,-12.46993 l 1.14541,-2.67821 3.925195,0 c 2.19726,0 3.895462,0.0789 3.857647,0.17917 -0.184007,0.48804 -15.675253,27.31055 -15.77312,27.31055 -0.0625,0 -0.68373,-0.57372 -1.380539,-1.27495 z"
       id="path3955"
       inkscape:connector-curvature="0" />
    <path
       style="fill:none;stroke:#000000;stroke-width:0.56670588px;stroke-linecap:butt;stroke-linejoin:miter;stroke-opacity:1"
       d="m 127.52723,961.21364 0,54.33256"
       id="path3957"
       inkscape:connector-curvature="0" />
    <path
       style="fill:#e5d5ff;fill-opacity:1;stroke:#000000;stroke-width:0.42934456;stroke-miterlimit:4;stroke-opacity:1;stroke-dasharray:none"
       d="m 104.80028,974.02325 c -1.50492,-1.50496 -1.66923,-1.7163 -1.43077,-1.84046 0.26697,-0.13901 12.66454,-5.5112 19.97344,-8.65504 l 3.79751,-1.63345 0.0382,3.93458 c 0.021,2.16401 0.0137,3.95908 -0.0164,3.98896 -0.0462,0.0459 -20.5076,5.90557 -20.62209,5.90557 -0.0218,0 -0.80472,-0.76508 -1.73983,-1.70016 z"
       id="path3959"
       inkscape:connector-curvature="0" />
    <path
       style="fill:#e5d5ff;fill-opacity:1;stroke:#000000;stroke-width:0.42934456;stroke-miterlimit:4;stroke-opacity:1;stroke-dasharray:none"
       d="m 120.33361,1011.9358 c -3.74377,-1.6135 -6.84901,-2.9767 -6.90053,-3.0292 -0.0739,-0.076 2.16777,-4.9274 2.36924,-5.1283 0.0613,-0.062 11.02719,2.9558 11.25544,3.0966 0.11175,0.069 0.14765,1.2711 0.12084,4.0463 l -0.0382,3.9485 -6.80685,-2.9339 z"
       id="path3961"
       inkscape:connector-curvature="0" />
  </g>
</svg>
