<?xml version="1.0" encoding="UTF-8" standalone="no"?>
<!-- Created with Inkscape (http://www.inkscape.org/) -->

<svg
   xmlns:dc="http://purl.org/dc/elements/1.1/"
   xmlns:cc="http://creativecommons.org/ns#"
   xmlns:rdf="http://www.w3.org/1999/02/22-rdf-syntax-ns#"
   xmlns:svg="http://www.w3.org/2000/svg"
   xmlns="http://www.w3.org/2000/svg"
   xmlns:xlink="http://www.w3.org/1999/xlink"
   xmlns:sodipodi="http://sodipodi.sourceforge.net/DTD/sodipodi-0.dtd"
   xmlns:inkscape="http://www.inkscape.org/namespaces/inkscape"
   width="64px"
   height="64px"
   id="svg3861"
   version="1.1"
   inkscape:version="0.48.4 r9939"
   sodipodi:docname="playerShip.svg"
   inkscape:export-filename="E:\CS104 Backup\CS104\Project 2\spaceShip2.png"
   inkscape:export-xdpi="135"
   inkscape:export-ydpi="135">
  <defs
     id="defs3863">
    <linearGradient
       id="linearGradient3971">
      <stop
         style="stop-color:#4d7069;stop-opacity:1;"
         offset="0"
         id="stop3973" />
      <stop
         style="stop-color:#87c3b7;stop-opacity:1;"
         offset="1"
         id="stop3975" />
    </linearGradient>
    <linearGradient
       id="linearGradient3963">
      <stop
         style="stop-color:#0ec19d;stop-opacity:1;"
         offset="0"
         id="stop3965" />
      <stop
         style="stop-color:#d2fff6;stop-opacity:1;"
         offset="1"
         id="stop3967" />
    </linearGradient>
    <linearGradient
       inkscape:collect="always"
       xlink:href="#linearGradient3963"
       id="linearGradient3969"
       x1="30"
       y1="42"
       x2="39"
       y2="42"
       gradientUnits="userSpaceOnUse" />
    <linearGradient
       inkscape:collect="always"
       xlink:href="#linearGradient3971"
       id="linearGradient3977"
       x1="12"
       y1="41"
       x2="53"
       y2="41"
       gradientUnits="userSpaceOnUse" />
  </defs>
  <sodipodi:namedview
     id="base"
     pagecolor="#ffffff"
     bordercolor="#666666"
     borderopacity="1.0"
     inkscape:pageopacity="0.0"
     inkscape:pageshadow="2"
     inkscape:zoom="11"
     inkscape:cx="32.724439"
     inkscape:cy="30.207313"
     inkscape:current-layer="layer1"
     showgrid="true"
     inkscape:document-units="px"
     inkscape:grid-bbox="true"
     inkscape:window-width="1920"
     inkscape:window-height="1017"
     inkscape:window-x="-8"
     inkscape:window-y="-8"
     inkscape:window-maximized="1">
    <inkscape:grid
       type="xygrid"
       id="grid3869"
       empspacing="16"
       visible="true"
       enabled="true"
       snapvisiblegridlinesonly="true" />
  </sodipodi:namedview>
  <metadata
     id="metadata3866">
    <rdf:RDF>
      <cc:Work
         rdf:about="">
        <dc:format>image/svg+xml</dc:format>
        <dc:type
           rdf:resource="http://purl.org/dc/dcmitype/StillImage" />
        <dc:title></dc:title>
      </cc:Work>
    </rdf:RDF>
  </metadata>
  <g
     id="layer1"
     inkscape:label="Layer 1"
     inkscape:groupmode="layer">
    <g
       id="g3927">
      <path
         sodipodi:nodetypes="cccccccccc"
         inkscape:connector-curvature="0"
         id="path3875"
         d="m 32,51 -10,0 -11,11 5,-22 -6,-13 14,0 -2,5 6,0 -4,-16 c 0,0 7,-34 16,0"
         style="fill:none;stroke:#000000;stroke-width:1px;stroke-linecap:butt;stroke-linejoin:miter;stroke-opacity:1" />
      <path
         sodipodi:nodetypes="ccccccccc"
         inkscape:connector-curvature="0"
         id="path3875-5"
         d="m 40,16 -4,16 6,0 -2,-5 14,0 -6,13 5,22 -11,-11 -10,0"
         style="fill:none;stroke:#000000;stroke-width:1px;stroke-linecap:butt;stroke-linejoin:miter;stroke-opacity:1" />
    </g>
    <path
       style="fill:none;stroke:#000000;stroke-width:1px;stroke-linecap:butt;stroke-linejoin:miter;stroke-opacity:1"
       d="m 19,41 2,7 4,0 0,-7 z"
       id="path3897"
       inkscape:connector-curvature="0"
       sodipodi:nodetypes="ccccc" />
    <path
       style="fill:none;stroke:#000000;stroke-width:1px;stroke-linecap:butt;stroke-linejoin:miter;stroke-opacity:1"
       d="m 19,39 1,-4 10,0 -3,4 -8,0"
       id="path3901"
       inkscape:connector-curvature="0"
       sodipodi:nodetypes="ccccc" />
    <path
       style="fill:none;stroke:#000000;stroke-width:1px;stroke-linecap:butt;stroke-linejoin:miter;stroke-opacity:1"
       d="m 27,48 0,-7 5,-6 5,5 0,8 z"
       id="path3903"
       inkscape:connector-curvature="0" />
    <path
       style="fill:none;stroke:#000000;stroke-width:1px;stroke-linecap:butt;stroke-linejoin:miter;stroke-opacity:1"
       d="m 34,35 4,4 7,0 -1,-4 z"
       id="path3905"
       inkscape:connector-curvature="0" />
    <path
       style="fill:none;stroke:#000000;stroke-width:1px;stroke-linecap:butt;stroke-linejoin:miter;stroke-opacity:1"
       d="m 39,48 0,-7 6,0 -2,7 z"
       id="path3907"
       inkscape:connector-curvature="0" />
    <path
       style="fill:none;stroke:#000000;stroke-width:1px;stroke-linecap:butt;stroke-linejoin:miter;stroke-opacity:1"
       d="m 31,4 -5,12 4,0 z"
       id="path3909"
       inkscape:connector-curvature="0" />
    <path
       style="fill:none;stroke:#000000;stroke-width:1px;stroke-linecap:butt;stroke-linejoin:miter;stroke-opacity:1"
       d="m 33,4 1,12 4,0 z"
       id="path3911"
       inkscape:connector-curvature="0" />
    <path
       style="fill:none;stroke:#000000;stroke-width:1px;stroke-linecap:butt;stroke-linejoin:miter;stroke-opacity:1"
       d="m 26,18 5,3 0,9 z"
       id="path3913"
       inkscape:connector-curvature="0" />
    <path
       style="fill:none;stroke:#000000;stroke-width:1px;stroke-linecap:butt;stroke-linejoin:miter;stroke-opacity:1"
       d="m 33,21 5,-3 -5,12 z"
       id="path3915"
       inkscape:connector-curvature="0" />
    <path
       style="fill:none;stroke:#000000;stroke-width:1px;stroke-linecap:butt;stroke-linejoin:miter;stroke-opacity:1"
       d="m 30,18 4,0 -2,1 z"
       id="path3917"
       inkscape:connector-curvature="0" />
    <path
       style="fill:none;stroke:#000000;stroke-width:1px;stroke-linecap:butt;stroke-linejoin:miter;stroke-opacity:1"
       d="m 43,29 8,0 -4,7 z"
       id="path3919"
       inkscape:connector-curvature="0" />
    <path
       style="fill:none;stroke:#000000;stroke-width:1px;stroke-linecap:butt;stroke-linejoin:miter;stroke-opacity:1"
       d="m 13,29 8,0 -4,6 z"
       id="path3921"
       inkscape:connector-curvature="0" />
    <path
       style="fill:none;stroke:#000000;stroke-width:1px;stroke-linecap:butt;stroke-linejoin:miter;stroke-opacity:1"
       d="m 14,56 3,-12 2,7 z"
       id="path3923"
       inkscape:connector-curvature="0" />
    <path
       style="fill:none;stroke:#000000;stroke-width:1px;stroke-linecap:butt;stroke-linejoin:miter;stroke-opacity:1"
       d="m 47,44 -2,7 4,4 z"
       id="path3925"
       inkscape:connector-curvature="0" />
    <path
       style="fill:#2ca089;fill-opacity:1;stroke:#000000;stroke-width:0.27272728;stroke-miterlimit:4;stroke-opacity:1;stroke-dasharray:none"
       d="m 46.896387,52.068127 c -0.646956,-0.643647 -1.19057,-1.213124 -1.20803,-1.265504 -0.03137,-0.09411 1.036411,-3.949851 1.15438,-4.168452 0.03356,-0.06218 0.333578,1.38877 0.666712,3.224342 0.333135,1.835572 0.596142,3.346961 0.584461,3.358642 -0.01168,0.01168 -0.550566,-0.505382 -1.197523,-1.149028 l 0,0 z"
       id="path3931"
       inkscape:connector-curvature="0" />
    <path
       style="fill:#2ca089;fill-opacity:1;stroke:#000000;stroke-width:0.27272728;stroke-miterlimit:4;stroke-opacity:1;stroke-dasharray:none"
       d="m 15.066627,54.019959 c 0.02779,-0.1 0.462463,-1.838636 0.965949,-3.863636 0.503485,-2.025 0.938955,-3.743182 0.96771,-3.818182 0.02876,-0.075 0.353052,0.906818 0.720661,2.181818 l 0.66838,2.318182 -1.68661,1.681818 c -0.927636,0.925 -1.663876,1.6 -1.63609,1.5 z"
       id="path3933"
       inkscape:connector-curvature="0" />
    <path
       style="fill:#2ca089;fill-opacity:1;stroke:#000000;stroke-width:0.27272728;stroke-miterlimit:4;stroke-opacity:1;stroke-dasharray:none"
       d="m 45.470701,32.217758 -1.515717,-2.652344 1.487999,-0.0249 c 0.818399,-0.01369 2.185907,-0.01369 3.038907,0 l 1.55091,0.0249 -1.504923,2.634075 c -0.827707,1.448742 -1.513143,2.642297 -1.523191,2.652345 -0.01005,0.01005 -0.700341,-1.175286 -1.533985,-2.634076 z"
       id="path3935"
       inkscape:connector-curvature="0" />
    <path
       style="fill:#2ca089;fill-opacity:1;stroke:#000000;stroke-width:0.27272728;stroke-miterlimit:4;stroke-opacity:1;stroke-dasharray:none"
       d="m 15.504306,31.772325 -1.469947,-2.206911 1.448357,-0.02495 c 0.796596,-0.01372 2.1261,-0.01372 2.954453,0 l 1.506096,0.02495 -1.420462,2.136364 c -0.781253,1.175 -1.449281,2.168109 -1.484505,2.20691 -0.03522,0.0388 -0.72552,-0.922563 -1.533992,-2.136363 z"
       id="path3937"
       inkscape:connector-curvature="0" />
    <path
       style="fill:#00d4aa;fill-opacity:1;stroke:#000000;stroke-width:0.27272728;stroke-miterlimit:4;stroke-opacity:1;stroke-dasharray:none"
       d="m 39.578985,44.476703 0,-2.956744 2.351129,0 2.35113,0 -0.838074,2.931819 -0.838073,2.931818 -1.513056,0.02493 -1.513056,0.02493 0,-2.956744 z"
       id="path3939"
       inkscape:connector-curvature="0" />
    <path
       style="fill:#00d4aa;fill-opacity:1;stroke:#000000;stroke-width:0.27272728;stroke-miterlimit:4;stroke-opacity:1;stroke-dasharray:none"
       d="m 36.806257,36.974505 -1.452414,-1.454546 4.101255,0 4.101255,0 0.364089,1.454546 0.36409,1.454545 -3.01293,0 -3.01293,0 -1.452415,-1.454545 z"
       id="path3941"
       inkscape:connector-curvature="0" />
    <path
       style="fill:#00d4aa;fill-opacity:1;stroke:#000000;stroke-width:0.27272728;stroke-miterlimit:4;stroke-opacity:1;stroke-dasharray:none"
       d="m 19.758871,38.360869 c -0.0011,-0.0375 0.15101,-0.692046 0.337939,-1.454546 l 0.339872,-1.386364 4.207515,0 c 2.314133,0 4.207515,0.02108 4.207515,0.04685 0,0.02577 -0.475485,0.680315 -1.056633,1.454546 l -1.056632,1.407691 -3.488822,0 c -1.918852,0 -3.489692,-0.03068 -3.490754,-0.06818 z"
       id="path3943"
       inkscape:connector-curvature="0" />
    <path
       style="fill:#00d4aa;fill-opacity:1;stroke:#000000;stroke-width:0.27272728;stroke-miterlimit:4;stroke-opacity:1;stroke-dasharray:none"
       d="m 21.362195,47.269959 c -0.165683,-0.558173 -1.508984,-5.296174 -1.55934,-5.5 l -0.06176,-0.25 2.373492,0 2.373491,0 0,2.954546 0,2.954545 -1.539328,0 c -1.387431,0 -1.543988,-0.0157 -1.586552,-0.159091 z"
       id="path3945"
       inkscape:connector-curvature="0" />
    <path
       style="fill:url(#linearGradient3969);fill-opacity:1;stroke:#000000;stroke-width:0.27272728000000002;stroke-miterlimit:4;stroke-opacity:1;stroke-dasharray:none"
       d="m 27.578984,44.301397 0,-3.127654 2.144774,-2.576892 c 1.179625,-1.41729 2.182764,-2.616622 2.229198,-2.665181 0.05337,-0.05581 0.903044,0.729819 2.309772,2.135668 l 2.225347,2.223957 0,3.568878 0,3.568877 -4.454545,0 -4.454546,0 0,-3.127653 z"
       id="path3947"
       inkscape:connector-curvature="0" />
    <path
       style="fill:url(#linearGradient3977);fill-opacity:1;stroke:#000000;stroke-width:0.27272728000000002;stroke-miterlimit:4;stroke-opacity:1;stroke-dasharray:none"
       d="m 12.033818,60.065099 c 1.54e-4,-0.07483 1.023403,-4.635403 2.273877,-10.134614 l 2.273589,-9.998566 -2.561395,-5.546889 c -1.408766,-3.050789 -2.696887,-5.84348 -2.86249,-6.20598 l -0.301097,-0.659091 6.171537,0 6.171537,0 -0.992013,2.474466 c -0.545609,1.360955 -0.992015,2.485955 -0.992015,2.5 0,0.01404 1.677273,0.02553 3.727273,0.02553 2.05,0 3.727273,-0.0208 3.727273,-0.04623 0,-0.02543 -0.924316,-3.737926 -2.054034,-8.25 l -2.054034,-8.203772 0.155428,-0.681818 c 0.824212,-3.615582 2.067553,-7.3360887 3.265908,-9.772727 1.084332,-2.2047942 2.093965,-3.4716491 3.147777,-3.9497284 0.562681,-0.2552695 0.962904,-0.2328404 1.609346,0.09019 2.033654,1.0162289 4.255431,5.5724007 6.312963,12.9459174 l 0.379249,1.359106 -2.031918,8.140894 c -1.117554,4.477492 -2.050335,8.19203 -2.072846,8.25453 -0.03232,0.08973 0.745249,0.113636 3.696071,0.113636 2.05535,0 3.736999,-0.02011 3.736999,-0.04468 0,-0.02457 -0.41437,-1.077984 -0.920822,-2.34091 -0.506453,-1.262925 -0.940769,-2.367819 -0.965149,-2.455319 -0.0419,-0.150385 0.29257,-0.159091 6.112367,-0.159091 4.889244,0 6.147237,0.02339 6.110762,0.113637 -0.02526,0.0625 -1.312848,2.856617 -2.861305,6.20915 l -2.815374,6.095513 2.260669,9.94364 c 1.243369,5.469 2.26067,10.007694 2.26067,10.085985 0,0.07829 -2.178551,-2.035918 -4.841225,-4.698243 l -4.841224,-4.840591 -10.226645,0 -10.226644,0 -4.886677,4.886049 c -2.687672,2.687326 -4.886547,4.824826 -4.886388,4.75 l 0,0 z m 6.32326,-13.337552 c -0.69353,-2.439173 -1.292749,-4.496224 -1.331597,-4.571224 -0.06278,-0.121212 -0.07608,-0.121212 -0.119626,0 -0.06875,0.191356 -3.872325,15.437517 -3.872325,15.521742 0,0.03787 1.481515,-1.412662 3.292256,-3.223403 l 3.292256,-3.292256 -1.260964,-4.434859 z m 31.472708,9.678776 c -0.02276,-0.0625 -0.546506,-2.900991 -1.163886,-6.307757 l -1.122509,-6.19412 -0.497932,-0.05852 c -0.298317,-0.03506 -0.520368,-0.02222 -0.553898,0.03203 -0.03078,0.0498 -0.518842,1.713552 -1.084578,3.697217 l -1.028612,3.606664 2.667911,2.669061 c 1.467351,1.467983 2.703229,2.66906 2.746396,2.66906 0.04317,0 0.05987,-0.05114 0.03711,-0.113636 z m -24.250802,-11.931818 0,-4.045455 -3.646219,0 -3.646218,0 0.06186,0.25 c 0.06549,0.264658 1.751046,6.184698 2.057755,7.227273 l 0.180521,0.613636 2.49615,0 2.49615,0 0,-4.045454 z m 12.000001,-0.341468 0,-4.386923 -2.772785,-2.771666 c -2.167211,-2.166338 -2.801374,-2.751923 -2.903684,-2.68126 -0.07199,0.04972 -1.319695,1.520288 -2.77267,3.267919 l -2.641771,3.177512 0,3.89067 0,3.89067 5.545455,0 5.545455,0 0,-4.386922 z m 6.925492,0.614195 c 0.587845,-2.05 1.095098,-3.860227 1.127229,-4.022727 l 0.05842,-0.295455 -3.601026,0 -3.601027,0 0,4.046916 0,4.046915 2.473797,-0.02419 2.473797,-0.02419 1.068808,-3.727273 z M 29.1693,37.034962 c 1.025326,-1.366748 1.86423,-2.512203 1.86423,-2.545454 0,-0.03325 -2.575696,-0.06046 -5.723769,-0.06046 l -5.723769,0 -0.08987,0.340909 c -0.04943,0.1875 -0.318631,1.261364 -0.598234,2.386364 -0.279602,1.125 -0.52986,2.117046 -0.556127,2.204546 -0.04504,0.150017 0.209201,0.15909 4.457773,0.15909 l 4.505533,0 1.864229,-2.484997 0,0 z m 16.497998,2.416816 c -0.0014,-0.0375 -0.280113,-1.172728 -0.619303,-2.522728 l -0.616708,-2.454545 -5.835242,-0.0234 c -3.209383,-0.01287 -5.835242,0.0073 -5.835242,0.04485 0,0.03753 1.114493,1.183288 2.476652,2.546123 l 2.476653,2.477881 3.977893,0 c 2.187841,0 3.976724,-0.03068 3.975297,-0.06818 z m 3.783367,-6.613637 c 1.286057,-2.25 2.357179,-4.1625 2.38027,-4.25 0.0396,-0.150061 -0.235054,-0.159091 -4.838922,-0.159091 -4.031738,0 -4.875792,0.02118 -4.851512,0.121726 0.07183,0.297463 4.837877,8.515087 4.901121,8.450516 0.03892,-0.03973 1.122985,-1.913151 2.409043,-4.163151 z M 19.48648,32.291737 c 1.350877,-2.025522 2.456141,-3.723249 2.456141,-3.772728 0,-0.05824 -1.746991,-0.08996 -4.954546,-0.08996 -2.725,0 -4.954545,0.03018 -4.954545,0.06706 0,0.07284 4.918961,7.478396 4.967344,7.478396 0.01621,0 1.134729,-1.657246 2.485606,-3.682768 z m 11.752408,-2.184931 0.341722,-0.06193 -0.02354,-4.689835 -0.02354,-4.689836 -3.25135,-1.950059 c -1.788243,-1.072533 -3.274344,-1.927066 -3.302446,-1.898964 -0.03838,0.03838 3.938169,9.707345 5.348798,13.005593 0.154812,0.361971 0.220555,0.430246 0.37802,0.39257 0.104838,-0.02508 0.344389,-0.07347 0.532336,-0.107537 l 0,0 z m 5.069671,-6.609574 c 1.536517,-3.6875 2.754255,-6.704545 2.706082,-6.704545 -0.04817,0 -1.536356,0.86923 -3.307076,1.931622 l -3.21949,1.931624 0,4.699391 0,4.69939 0.386364,0.08749 c 0.2125,0.04812 0.443534,0.08121 0.513408,0.07353 0.07808,-0.0086 1.203792,-2.598053 2.920712,-6.718502 z M 33.15657,19.050547 c 0.973382,-0.484854 1.119145,-0.585869 1.08224,-0.75 -0.02346,-0.104323 -0.08082,-0.343088 -0.127469,-0.530588 l -0.08482,-0.340909 -2.031158,0 -2.031159,0 -0.101701,0.403893 c -0.05594,0.222141 -0.101701,0.467263 -0.101701,0.544715 0,0.08844 0.397302,0.342221 1.068182,0.682302 0.5875,0.297814 1.098447,0.543602 1.135438,0.546195 0.03699,0.0026 0.573457,-0.247431 1.192147,-0.555608 l 0,0 z m -2.628457,-2.916951 c 0.02815,-0.2125 0.255302,-2.902273 0.50479,-5.977273 0.249486,-3.0749999 0.470916,-5.7181373 0.492066,-5.8736384 0.03759,-0.27636 0.02715,-0.2852591 -0.463294,-0.3950159 -0.275962,-0.061758 -0.532747,-0.077711 -0.570632,-0.035452 -0.0523,0.058337 -4.927758,11.7098223 -5.234131,12.5086523 -0.05725,0.149264 0.102084,0.15909 2.579503,0.15909 l 2.64052,0 0.05118,-0.386363 0,0 z m 8.208002,0.227273 c -0.09536,-0.330585 -5.17093,-12.4354098 -5.245806,-12.5108313 -0.0444,-0.04472 -0.278912,-0.03092 -0.540337,0.031795 -0.411406,0.098695 -0.461846,0.137144 -0.46143,0.35174 2.73e-4,0.1325129 0.225047,2.920478 0.499533,6.1954773 0.274487,3.275 0.499277,5.985228 0.499534,6.022728 2.73e-4,0.0375 1.191601,0.06818 2.647433,0.06818 2.477797,0 2.644033,-0.01017 2.601073,-0.15909 l 0,0 z"
       id="path3951"
       inkscape:connector-curvature="0" />
    <path
       style="fill:#55ffdd;fill-opacity:1;stroke:#000000;stroke-width:0.27272728000000002;stroke-miterlimit:4;stroke-opacity:1;stroke-dasharray:none"
       d="m 34.487888,15.315414 c -1.03e-4,-0.0625 -0.142864,-1.808375 -0.317247,-3.879723 C 33.996259,9.3643433 33.865695,7.6574912 33.8805,7.6426864 c 0.02136,-0.02136 2.975409,7.0100716 3.204373,7.6272726 0.05451,0.146948 -0.04234,0.159091 -1.268889,0.159091 -1.001621,0 -1.327955,-0.02792 -1.328096,-0.113636 z"
       id="path3953"
       inkscape:connector-curvature="0" />
    <path
       style="fill:#55ffdd;fill-opacity:1;stroke:#000000;stroke-width:0.27272728;stroke-miterlimit:4;stroke-opacity:1;stroke-dasharray:none"
       d="m 26.852355,15.406323 c 0.005,-0.178092 3.26763,-7.7758291 3.269418,-7.6136363 0.0031,0.2810629 -0.520375,6.6098163 -0.595913,7.2045453 l -0.05485,0.431818 -1.309651,0 c -0.720308,0 -1.309362,-0.01023 -1.309008,-0.02273 z"
       id="path3955"
       inkscape:connector-curvature="0" />
    <path
       style="fill:#55ffdd;fill-opacity:1;stroke:#000000;stroke-width:0.27272728;stroke-miterlimit:4;stroke-opacity:1;stroke-dasharray:none"
       d="m 33.578985,24.193989 0,-2.901729 1.557382,-0.934828 c 0.856561,-0.514156 1.575489,-0.916722 1.597619,-0.894592 0.03519,0.03519 -3.030249,7.496601 -3.120326,7.594998 -0.01907,0.02083 -0.03468,-1.267899 -0.03468,-2.863849 z"
       id="path3959"
       inkscape:connector-curvature="0" />
    <path
       style="fill:#55ffdd;fill-opacity:1;stroke:#000000;stroke-width:0.27272728;stroke-miterlimit:4;stroke-opacity:1;stroke-dasharray:none"
       d="m 28.829616,23.366701 c -0.887152,-2.133069 -1.598038,-3.893274 -1.579746,-3.911567 0.01829,-0.01829 0.754372,0.400409 1.635732,0.930447 l 1.602473,0.963705 0,2.948973 c 0,1.621935 -0.01023,2.948473 -0.02273,2.947862 -0.0125,-6.11e-4 -0.748579,-1.74635 -1.635732,-3.87942 z"
       id="path3961"
       inkscape:connector-curvature="0" />
    <path
       style="fill:#cd87de;stroke:#000000;stroke-width:1px;stroke-linecap:butt;stroke-linejoin:miter;stroke-opacity:1"
       d="m 30,40 4,0 0,4 -2,2 -2,-2 z"
       id="path3981"
       inkscape:connector-curvature="0" />
    <path
       style="fill:#eeaaff;fill-opacity:1;stroke:#000000;stroke-width:0.27272728000000002;stroke-miterlimit:4;stroke-opacity:1;stroke-dasharray:none"
       d="m 47.757145,57.379938 -5.950367,-5.950888 -4.886624,0 -4.886624,0 -0.01682,-0.477272 -0.01682,-0.477273 -0.03339,0.477273 -0.03339,0.477272 -4.881355,0 -4.881354,0 -5.942463,5.931819 c -5.325753,5.316212 -5.937295,5.898797 -5.892659,5.613636 0.02739,-0.175 1.197975,-5.366786 2.601296,-11.537302 1.40332,-6.170516 2.551491,-11.277482 2.551491,-11.348813 0,-0.07133 -1.390019,-3.140662 -3.088931,-6.820736 -1.698913,-3.680074 -3.0759518,-6.704024 -3.0600871,-6.719888 0.015865,-0.01586 3.4675701,-0.01838 7.6704551,-0.0056 l 7.641611,0.02325 -0.98127,2.454546 -0.98127,2.454545 2.322426,0.02429 c 1.277335,0.01336 2.338089,0.0086 2.357232,-0.01052 0.01914,-0.01914 -0.833914,-3.510663 -1.895681,-7.758933 l -1.930487,-7.724128 0.211072,-0.947175 c 0.748334,-3.358102 2.122237,-7.4840657 3.282034,-9.8562634 2.274404,-4.65196224 4.729719,-5.91803898 7.127333,-3.675189 1.689605,1.5805427 3.069343,4.2355482 4.64284,8.9341304 0.561393,1.676364 1.591814,5.1345 1.591814,5.342196 0,0.03187 -0.132954,0.0878 -0.295454,0.124288 l -0.295455,0.06633 0.295455,0.08399 c 0.1625,0.0462 0.295454,0.10366 0.295454,0.127696 0,0.05041 -3.709931,14.91573 -3.782387,15.155644 -0.0449,0.148675 0.107102,0.15909 2.321716,0.15909 1.30337,0 2.369762,-0.01149 2.369762,-0.02553 0,-0.01404 -0.446406,-1.139045 -0.992014,-2.5 l -0.992014,-2.474466 7.683558,0 c 6.920982,0 7.678163,0.01406 7.629186,0.141696 -0.02991,0.07793 -1.429159,3.120778 -3.109452,6.761879 l -3.055077,6.620184 2.641289,11.620799 c 1.452709,6.391439 2.63105,11.631038 2.618534,11.643553 -0.01252,0.01252 -2.70042,-2.655144 -5.973122,-5.928132 l 0,0 z m -35.084976,2.353518 c 0.373748,-0.382577 0.556815,-0.610903 0.406815,-0.507391 -0.15,0.103513 -0.454676,0.37518 -0.677058,0.603706 -0.280759,0.288518 -0.425393,0.381423 -0.473248,0.303992 -0.04252,-0.06881 -0.06305,-0.03361 -0.0536,0.09189 0.0084,0.111869 0.03832,0.203399 0.06643,0.203399 0.02811,0 0.356905,-0.313017 0.730654,-0.695594 z m 39.429543,0.458616 c 0,-0.149034 -0.02608,-0.194785 -0.07027,-0.123283 -0.04765,0.0771 -1.646137,-1.44741 -4.965909,-4.736086 l -4.895641,-4.849784 4.954232,4.973066 c 2.724829,2.735186 4.959488,4.973065 4.965909,4.973065 0.0064,0 0.01168,-0.10664 0.01168,-0.236978 z m -34.928628,-5.249868 4.66371,-4.604063 10.212857,0 10.212856,0 1.81733,1.824963 c 2.87472,2.886795 7.592982,7.475142 7.639233,7.428891 0.03817,-0.03817 -1.647283,-7.616406 -3.623804,-16.2936 l -0.76488,-3.357929 2.807553,-6.087605 c 1.544155,-3.348183 2.783049,-6.112115 2.753099,-6.142072 -0.07714,-0.07715 -11.737817,-0.06807 -11.815109,0.0092 -0.03503,0.03502 0.350194,1.119151 0.856047,2.409181 0.505855,1.290028 0.919736,2.377872 0.919736,2.417431 0,0.09027 -7.371712,0.04311 -7.511906,-0.04805 -0.07217,-0.04693 0.461243,-2.322582 1.789564,-7.634679 1.040807,-4.162302 1.875719,-7.58448 1.855358,-7.604841 -0.03735,-0.03735 -0.07278,0.04371 -0.451783,1.033651 -0.55277,1.443807 -3.454701,8.386873 -4.47523,10.707291 -0.461531,1.049401 -0.623452,1.334552 -0.739383,1.302095 -0.08164,-0.02286 -0.322302,-0.0686 -0.534802,-0.101645 l -0.386364,-0.06009 0,-4.761914 0,-4.761916 2.568182,-1.531558 c 1.4125,-0.842357 2.945582,-1.748129 3.406848,-2.012827 1.186522,-0.680885 1.177119,-0.447441 0.155913,-3.870348 C 36.009376,4.7594112 33.335907,0.64105636 31.08939,1.7427777 29.073355,2.7314674 26.69857,7.7166484 25.024392,14.474505 c -0.473587,1.911643 -0.458761,2.013612 0.357302,2.457454 0.33351,0.18139 1.88479,1.092699 3.447291,2.02513 l 2.840909,1.69533 0,4.736751 0,4.736752 -0.522351,0.09468 c -0.287294,0.05207 -0.569878,0.07644 -0.627968,0.05415 -0.05809,-0.02229 -0.187598,-0.231919 -0.287799,-0.465842 -0.658999,-1.538454 -3.925196,-9.454524 -4.479313,-10.856221 -0.370413,-0.937 -0.699141,-1.704045 -0.730508,-1.704546 -0.03136,-5.45e-4 0.79585,3.404771 1.838258,7.567271 1.042407,4.1625 1.896479,7.619318 1.897938,7.681818 0.0021,0.08915 -0.822297,0.113637 -3.826133,0.113637 -3.602742,0 -3.826168,-0.0094 -3.784459,-0.159091 0.02438,-0.0875 0.458696,-1.192394 0.965149,-2.455319 0.506452,-1.262926 0.920822,-2.316335 0.920822,-2.34091 0,-0.02457 -2.7,-0.04468 -6,-0.04468 -3.3,0 -6,0.02029 -6,0.04509 0,0.0248 1.269514,2.79579 2.821143,6.157759 l 2.821143,6.112673 -1.363626,6.00133 c -0.749994,3.300732 -1.72969,7.637695 -2.177102,9.637695 -0.447412,2 -0.843138,3.754116 -0.879393,3.898035 -0.05829,0.2314 -0.04743,0.251327 0.09388,0.172245 0.08789,-0.04919 2.258467,-2.161255 4.823508,-4.69349 z M 41.298682,27.461447 c 0.02083,-0.01782 -0.112122,-0.0324 -0.295455,-0.0324 -0.183333,0 -0.333333,0.03989 -0.333333,0.08864 0,0.07831 0.526531,0.03121 0.628788,-0.05624 z m -10.719697,-0.07785 c 0,-0.075 -0.04091,-0.136364 -0.09091,-0.136364 -0.05,0 -0.09091,0.06136 -0.09091,0.136364 0,0.075 0.04091,0.136363 0.09091,0.136363 0.05,0 0.09091,-0.06136 0.09091,-0.136363 z m 3.081793,-0.113637 c 0.08819,-0.16951 0.08252,-0.204545 -0.03314,-0.204545 -0.09059,0 -0.139562,0.08507 -0.139562,0.242425 0,0.266512 0.01618,0.262964 0.172703,-0.03788 l 0,0 z m 19.394419,0.185704 c -0.113082,-0.02174 -0.276719,-0.02092 -0.363636,0.0018 -0.08692,0.02275 0.0056,0.04055 0.205605,0.03954 0.2,-0.001 0.271114,-0.01963 0.158031,-0.04137 l 0,-2e-6 z m -22.658031,-3.464934 0,-2.62014 -1.428412,-0.830235 c -0.785627,-0.45663 -1.441996,-0.816653 -1.458598,-0.800051 -0.03702,0.03702 1.180234,3.088467 2.069848,5.188747 0.692502,1.634924 0.71417,1.681819 0.777073,1.681819 0.02205,0 0.04009,-1.179063 0.04009,-2.62014 z m 4.207491,0.48324 c 1.09095,-2.605853 1.912018,-4.682985 1.868383,-4.72662 -0.02069,-0.02069 -0.649634,0.318547 -1.397655,0.75386 l -1.360037,0.791478 -0.02418,2.587812 c -0.01565,1.675216 0.007,2.556657 0.06417,2.499464 0.04859,-0.04859 0.430782,-0.906289 0.849312,-1.905994 z m 1.880634,-3.999464 c 0,-0.05 -0.03966,-0.02955 -0.08812,0.04545 -0.04847,0.075 -0.08812,0.177273 -0.08812,0.227273 0,0.05 0.03966,0.02955 0.08812,-0.04545 0.04847,-0.075 0.08812,-0.177273 0.08812,-0.227273 z m 0.181818,-0.454546 c 0,-0.05 -0.03966,-0.02954 -0.08812,0.04546 -0.04847,0.075 -0.08813,0.177273 -0.08813,0.227273 0,0.05 0.03966,0.02954 0.08813,-0.04546 0.04847,-0.075 0.08812,-0.177273 0.08812,-0.227273 z m 0.322154,-0.847297 c -0.04007,-0.04007 -0.864824,0.437984 -0.864824,0.501279 0,0.02519 0.148337,-0.04172 0.329639,-0.148696 0.370242,-0.218448 0.458636,-0.198225 0.31409,0.07186 -0.05405,0.100995 -0.09496,0.216999 -0.09092,0.257786 0.004,0.04079 0.08319,-0.08875 0.175868,-0.287852 0.09268,-0.199105 0.153944,-0.376575 0.136142,-0.394378 z m -9.273915,0.382933 c -0.1,-0.07722 -0.294318,-0.199697 -0.431818,-0.272171 -0.21998,-0.115947 -0.25,-0.115458 -0.25,0.0041 0,0.07471 0.05114,0.116714 0.113636,0.09333 0.0625,-0.02338 0.236364,0.039 0.386364,0.138618 0.321565,0.213564 0.442782,0.237661 0.181818,0.03614 l 0,3e-6 z M 27.212564,7.1108685 c 0,-0.05 -0.03966,-0.029545 -0.08813,0.045455 -0.04847,0.075 -0.08812,0.1772727 -0.08812,0.2272727 0,0.05 0.03966,0.029546 0.08812,-0.045454 0.04847,-0.075 0.08813,-0.1772728 0.08813,-0.2272728 z m 0.272727,-0.6363636 c 0,-0.05 -0.03966,-0.029546 -0.08813,0.045454 -0.04847,0.075 -0.08812,0.1772728 -0.08812,0.2272728 0,0.05 0.03965,0.029545 0.08812,-0.045455 0.04847,-0.075 0.08813,-0.1772727 0.08813,-0.2272727 z m 0.3588,-0.8181818 c 0,-0.05 -0.07839,0.052273 -0.174197,0.2272727 -0.09581,0.175 -0.174198,0.3590909 -0.174198,0.4090909 0,0.05 0.07839,-0.052273 0.174198,-0.2272727 0.09581,-0.175 0.174197,-0.3590909 0.174197,-0.4090909 z m 0.371257,-0.6818182 c 0.102033,-0.2 0.165059,-0.3636364 0.140059,-0.3636364 -0.025,0 -0.128935,0.1636364 -0.230968,0.3636364 -0.102033,0.2 -0.165059,0.3636364 -0.140059,0.3636364 0.025,0 0.128935,-0.1636364 0.230968,-0.3636364 z m 7.409091,0 c -0.07757,-0.15 -0.161487,-0.2727273 -0.186487,-0.2727273 -0.025,0 0.01801,0.1227273 0.09558,0.2727273 0.07757,0.15 0.161487,0.2727273 0.186487,0.2727273 0.025,0 -0.01801,-0.1227273 -0.09558,-0.2727273 z M 28.669894,4.1563231 c 0.05352,-0.1 0.07685,-0.1818182 0.05185,-0.1818182 -0.025,0 -0.08924,0.081818 -0.14276,0.1818182 -0.05352,0.1 -0.07685,0.1818182 -0.05185,0.1818182 0.025,0 0.08924,-0.081818 0.142761,-0.1818182 z m 0.636363,-0.9545455 c 0.06225,-0.075 0.09272,-0.1363636 0.06772,-0.1363636 -0.025,0 -0.09638,0.061364 -0.158627,0.1363636 -0.06224,0.075 -0.09272,0.1363637 -0.06772,0.1363637 0.025,0 0.09638,-0.061364 0.158626,-0.1363637 z m 0.272728,-0.3636363 c 0.06224,-0.075 0.09272,-0.1363637 0.06772,-0.1363637 -0.025,0 -0.09638,0.061364 -0.158627,0.1363637 -0.06224,0.075 -0.09272,0.1363636 -0.06772,0.1363636 0.025,0 0.09638,-0.061364 0.158627,-0.1363636 z"
       id="path3983"
       inkscape:connector-curvature="0"
       inkscape:export-xdpi="90"
       inkscape:export-ydpi="90"
       inkscape:export-filename="E:\CS104 Backup\CS104\Project 2\spaceShip2.png" />
    <path
       style="fill:#eeaaff;fill-opacity:1;stroke:#000000;stroke-width:0.27272728;stroke-miterlimit:4;stroke-opacity:1;stroke-dasharray:none"
       d="m 26.397166,44.666767 0,-3.944102 0.409091,-0.496919 c 0.225,-0.273305 0.409091,-0.521969 0.409091,-0.552586 0,-0.03062 -1.973864,-0.06739 -4.386364,-0.08171 -2.4125,-0.01432 -4.432662,-0.05615 -4.48925,-0.09294 -0.07275,-0.04731 0.08399,-0.814108 0.535159,-2.618004 l 0.638046,-2.551101 5.752784,0.0271 c 3.164031,0.0149 5.77876,0.0531 5.810509,0.08488 0.03175,0.03179 -0.455674,0.757921 -1.083162,1.613637 -0.627488,0.855716 -1.110312,1.555192 -1.072942,1.554392 0.03737,-8e-4 0.720697,-0.775 1.518502,-1.720444 1.280154,-1.517056 1.471129,-1.707978 1.625705,-1.625251 0.09633,0.05156 0.675143,0.580301 1.286241,1.174989 0.611099,0.594688 1.147016,1.081251 1.190926,1.081251 0.04391,0 -0.367415,-0.448642 -0.914055,-0.996982 -0.54664,-0.548341 -0.96188,-1.029022 -0.922756,-1.068182 0.03912,-0.03916 2.704093,-0.08411 5.922151,-0.09989 l 5.851015,-0.02869 0.0915,0.346869 c 0.529412,2.006895 1.18692,4.790806 1.142103,4.835697 -0.03109,0.03115 -1.853168,0.06955 -4.049052,0.08535 l -3.992517,0.02873 0,4.494003 0,4.494002 -5.636364,0 -5.636364,0 0,-3.944102 z m 10,-0.866999 0,-3.538373 -2.135209,-2.074879 c -1.174365,-1.141183 -2.173986,-2.087804 -2.221381,-2.103602 -0.04739,-0.0158 -1.050186,1.127253 -2.228427,2.540112 l -2.142255,2.568836 0,3.07314 0,3.073139 4.363636,0 4.363636,0 0,-3.538373 z m -2.111708,-5.891057 c -1.772363,-1.772365 -2.271135,-2.22409 -2.358861,-2.136364 -0.08773,0.08773 -0.07679,0.111249 0.05171,0.111249 0.09097,0 1.113052,0.942837 2.313636,2.134249 1.182876,1.173837 2.171033,2.1352 2.195906,2.136363 0.02488,0.0012 -0.9662,-1.009311 -2.202387,-2.245497 z m 1.42989,0.06579 c -0.999063,-1 -1.836932,-1.818182 -1.861932,-1.818182 -0.025,0 0.77196,0.818182 1.771023,1.818182 0.999063,1 1.836932,1.818182 1.861932,1.818182 0.025,0 -0.77196,-0.818182 -1.771023,-1.818182 z m 2.045455,1.430718 c 0,-0.0131 -0.644318,-0.657423 -1.431818,-1.431818 l -1.431819,-1.407991 1.407991,1.431818 c 1.308035,1.33017 1.455646,1.472949 1.455646,1.407991 z M 20.215348,38.484451 c 0,-0.01953 -0.143182,-0.05222 -0.318182,-0.07265 -0.175,-0.02043 -0.318182,-0.0045 -0.318182,0.03551 0,0.03996 0.143182,0.07265 0.318182,0.07265 0.175,0 0.318182,-0.01598 0.318182,-0.03551 z m 16.545455,-1.464492 c -0.823864,-0.825 -1.518388,-1.5 -1.543388,-1.5 -0.025,0 0.628615,0.675 1.452479,1.5 0.823863,0.825 1.518388,1.5 1.543388,1.5 0.025,0 -0.628616,-0.675 -1.452479,-1.5 z m -9.136364,0.08853 c 0.5,-0.673427 0.922318,-1.285884 0.938484,-1.361015 0.0258,-0.119924 -0.464466,-0.136602 -4.01554,-0.136602 l -4.044933,0 -0.310818,1.295454 -0.310818,1.295455 0.235449,0.05743 c 0.129497,0.03158 1.667267,0.06109 3.417267,0.06556 l 3.181818,0.0081 0.909091,-1.224412 0,0 z m 16.5,1.132493 c 0,-0.08499 -0.288511,-1.277269 -0.553948,-2.289201 l -0.08942,-0.340909 -3.905586,0 c -2.148073,0 -3.905587,0.03017 -3.905587,0.06704 0,0.03687 0.582425,0.650511 1.294279,1.363636 l 1.294278,1.296592 2.932994,0 c 2.020555,0 2.932994,-0.03023 2.932994,-0.09716 z"
       id="path3985"
       inkscape:connector-curvature="0" />
    <path
       style="fill:#eeaaff;fill-opacity:1;stroke:#000000;stroke-width:0.27272728;stroke-miterlimit:4;stroke-opacity:1;stroke-dasharray:none"
       d="m 38.397166,44.474505 0,-4.136364 3.681819,0 c 3.257868,0 3.681818,0.01615 3.681818,0.140286 0,0.118389 -1.518813,5.559462 -2.098787,7.518805 l -0.18164,0.613637 -2.541605,0 -2.541605,0 0,-4.136364 z m 4.882799,0.227273 c 0.41054,-1.425 0.771745,-2.703409 0.802678,-2.840909 l 0.05624,-0.25 -2.234496,0 -2.234496,0 0,2.865944 0,2.865945 1.431818,-0.02504 1.431818,-0.02504 0.746435,-2.590909 z"
       id="path3987"
       inkscape:connector-curvature="0" />
    <path
       style="fill:#eeaaff;fill-opacity:1;stroke:#000000;stroke-width:0.27272728;stroke-miterlimit:4;stroke-opacity:1;stroke-dasharray:none"
       d="M 45.916177,35.315414 C 44.832594,33.500695 43.074155,30.450018 42.405124,29.224167 42.05405,28.5809 42.034901,28.513353 42.186066,28.45144 c 0.261823,-0.107236 9.54972,-0.08381 9.657869,0.02436 0.06232,0.06233 -0.203755,0.622021 -0.82113,1.727272 -1.78549,3.19646 -3.916063,6.862339 -3.988325,6.862339 -0.04035,0 -0.543587,-0.7875 -1.118303,-1.75 z m 2.56816,-3.216016 c 0.740327,-1.293691 1.327978,-2.382848 1.305892,-2.420348 -0.04916,-0.08347 -5.520721,-0.09204 -5.603979,-0.0088 -0.03267,0.03267 0.01645,0.186079 0.109158,0.340909 0.09271,0.154829 0.731794,1.255742 1.420193,2.446473 0.781914,1.352486 1.283731,2.132869 1.337161,2.079439 0.04704,-0.04704 0.691249,-1.144002 1.431575,-2.437693 l 0,0 z"
       id="path3989"
       inkscape:connector-curvature="0" />
    <path
       style="fill:#eeaaff;fill-opacity:1;stroke:#000000;stroke-width:0.27272728;stroke-miterlimit:4;stroke-opacity:1;stroke-dasharray:none"
       d="m 47.025771,53.914834 -2.742014,-2.725417 0.334613,-1.175638 c 1.327731,-4.664889 1.809459,-6.207862 1.949321,-6.243672 0.08121,-0.02079 0.351344,-0.01399 0.600295,0.01511 l 0.452637,0.05292 0.255494,1.409091 c 0.140522,0.775 0.66056,3.618182 1.15564,6.318182 0.53631,2.924846 0.866978,4.942588 0.818087,4.991964 -0.04912,0.0496 -1.182884,-1.011289 -2.824073,-2.642544 l 0,0 z M 46.03353,52.656323 c -0.823863,-0.825 -1.518388,-1.5 -1.543388,-1.5 -0.025,0 0.628616,0.675 1.452479,1.5 0.823863,0.825 1.518388,1.5 1.543388,1.5 0.025,0 -0.628616,-0.675 -1.452479,-1.5 z m 2.181818,0.839773 c 0,-0.01313 -0.623863,-0.636989 -1.386363,-1.386364 l -1.386364,-1.3625 1.3625,1.386364 c 1.265749,1.287918 1.410227,1.427507 1.410227,1.3625 z M 47.674162,51.33354 c -0.450378,-2.565609 -0.743205,-4.037904 -0.818676,-4.116189 -0.08122,-0.08425 -0.331145,0.691038 -0.777896,2.413117 l -0.299886,1.155963 1.039653,1.061085 c 0.571809,0.583596 1.057577,1.043161 1.079484,1.021254 0.02191,-0.02191 -0.0783,-0.71276 -0.222679,-1.53523 l 0,0 z m -2.040253,-0.879868 c -0.03021,-0.03021 -0.0517,0.02348 -0.04775,0.119318 0.0044,0.105904 0.0259,0.127445 0.05492,0.05492 0.02626,-0.06562 0.02303,-0.144034 -0.0072,-0.174242 l 0,0 z m 1.454545,-3.454546 c -0.03021,-0.03021 -0.05169,0.02349 -0.04775,0.119318 0.0044,0.105904 0.0259,0.127446 0.05492,0.05493 0.02626,-0.06563 0.02303,-0.144035 -0.0072,-0.174243 l 0,0 z m -0.09667,-0.53682 c -0.04623,-0.246435 -0.08537,-0.303588 -0.143491,-0.209544 -0.04714,0.07627 -0.04418,0.165052 0.0072,0.216438 0.04792,0.04792 0.08712,0.167578 0.08712,0.265911 0,0.09833 0.02537,0.153423 0.05637,0.122421 0.031,-0.031 0.02776,-0.208854 -0.0072,-0.395226 l 0,0 z"
       id="path3991"
       inkscape:connector-curvature="0" />
    <path
       style="fill:#eeaaff;fill-opacity:1;stroke:#000000;stroke-width:0.27272728;stroke-miterlimit:4;stroke-opacity:1;stroke-dasharray:none"
       d="m 12.94463,57.792534 c 0.0032,-0.217879 3.871221,-15.721563 3.939367,-15.789709 0.03391,-0.03391 0.09954,-0.02347 0.14585,0.0232 0.04631,0.04667 0.668858,2.120639 1.383445,4.608827 l 1.299249,4.523979 -3.38496,3.384959 c -1.861728,1.861728 -3.384056,3.323665 -3.382951,3.248749 z m 2.361627,-3.681665 c 0.169617,-0.175 0.277185,-0.318182 0.239041,-0.318182 -0.110316,0 -0.693586,0.467772 -0.693586,0.556244 0,0.155071 0.149288,0.07688 0.454545,-0.238062 z m 1.526323,-1.841815 1.480869,-1.430913 -0.558943,-1.863636 c -0.307419,-1.025 -0.579718,-1.935227 -0.605108,-2.022727 -0.02539,-0.0875 -0.07621,-0.159091 -0.112935,-0.159091 -0.03672,0 -0.456927,1.554545 -0.933786,3.454545 -0.476859,1.9 -0.840905,3.454138 -0.808991,3.45364 0.03191,-4.54e-4 0.724417,-0.644816 1.538894,-1.431818 z m 0.366835,-5.964138 c -0.06198,-0.231726 -0.149487,-0.42132 -0.194466,-0.42132 -0.04498,0 -0.06273,0.05114 -0.03945,0.113636 0.02328,0.0625 0.09687,0.266017 0.163527,0.452261 0.165143,0.461425 0.208596,0.372171 0.07039,-0.144577 l 0,0 z"
       id="path3993"
       inkscape:connector-curvature="0" />
    <path
       style="fill:#eeaaff;fill-opacity:1;stroke:#000000;stroke-width:0.27272728;stroke-miterlimit:4;stroke-opacity:1;stroke-dasharray:none"
       d="m 19.362867,44.57074 c -0.631135,-2.222071 -1.147519,-4.083435 -1.147519,-4.136364 0,-0.06614 1.165515,-0.09624 3.727273,-0.09624 l 3.727273,0 0,4.136364 0,4.136364 -2.579754,0 -2.579753,0 -1.14752,-4.040129 z m 2.142254,2.887118 c -0.06563,-0.02626 -0.144034,-0.02303 -0.174243,0.0072 -0.03021,0.03021 0.02349,0.0517 0.119319,0.04775 0.105903,-0.0044 0.127445,-0.0259 0.05492,-0.05492 l 0,0 z m 2.892045,-2.983353 0,-2.863636 -2.282453,0 c -1.788383,0 -2.273108,0.0246 -2.23928,0.113636 0.02375,0.0625 0.382666,1.320454 0.7976,2.795454 0.414934,1.475 0.798747,2.711874 0.852916,2.748608 0.05417,0.03674 0.722354,0.06742 1.484854,0.06818 l 1.386363,0.0014 0,-2.863636 z"
       id="path3995"
       inkscape:connector-curvature="0" />
    <path
       style="fill:#eeaaff;fill-opacity:1;stroke:#000000;stroke-width:0.27272728;stroke-miterlimit:4;stroke-opacity:1;stroke-dasharray:none"
       d="M 14.434645,32.291324 C 13.05397,30.210468 11.95232,28.47997 11.986532,28.445773 c 0.08113,-0.08109 9.921796,-0.08137 10.002854,-2.82e-4 0.08655,0.08658 -4.719988,7.428694 -4.960539,7.577363 -0.04614,0.02851 -1.213528,-1.650675 -2.594202,-3.73153 z m 2.70139,1.711185 c 0.106212,-0.130939 0.105822,-0.142397 -0.0026,-0.07704 -0.08911,0.0537 -0.206943,-0.01619 -0.392108,-0.23255 l -0.264719,-0.309319 0.245098,0.386363 c 0.134804,0.2125 0.255107,0.386364 0.267341,0.386364 0.01223,0 0.07839,-0.06922 0.14701,-0.153814 z m 1.280637,-2.289619 c 0.734829,-1.093888 1.310597,-2.014343 1.279485,-2.045455 -0.07491,-0.07491 -5.342763,-0.0734 -5.417711,0.0015 -0.08507,0.08507 2.601007,4.032795 2.743964,4.032795 0.03202,0 0.659434,-0.895 1.394262,-1.988888 z"
       id="path3997"
       inkscape:connector-curvature="0" />
    <path
       style="fill:#eeaaff;fill-opacity:1;stroke:#000000;stroke-width:0.27272728;stroke-miterlimit:4;stroke-opacity:1;stroke-dasharray:none"
       d="m 25.330992,16.517869 -0.202539,-0.08148 0.411385,-0.980945 c 0.226262,-0.539519 1.416231,-3.381706 2.644375,-6.3159715 1.228145,-2.934265 2.284809,-5.3549118 2.348142,-5.3792152 0.140845,-0.054047 0.865427,0.1015821 1.002466,0.2153139 0.07121,0.059101 -0.04911,1.8411059 -0.42475,6.2906938 -0.28826,3.414529 -0.525678,6.238917 -0.527597,6.276417 -0.005,0.09709 -5.007187,0.07345 -5.251482,-0.02482 z m 4.102134,-1.611546 c 0.111123,-0.905006 0.519566,-6.1304223 0.490681,-6.2775142 -0.04059,-0.2066836 -2.890277,6.3236232 -2.890277,6.6233192 0,0.04963 0.496219,0.08601 1.173287,0.08601 l 1.173288,0 0.05302,-0.431818 z m 0.642026,-7.0726928 c 0.06882,-0.052481 0.153931,-0.2570265 0.18914,-0.4545455 0.09556,-0.536045 -0.06824,-0.3075321 -0.459364,0.6408747 -0.433778,1.0518284 -0.486109,1.2477995 -0.133516,0.5 0.15324,-0.325 0.334923,-0.6338481 0.40374,-0.6863292 z"
       id="path3999"
       inkscape:connector-curvature="0" />
    <path
       style="fill:#eeaaff;fill-opacity:1;stroke:#000000;stroke-width:0.27272728;stroke-miterlimit:4;stroke-opacity:1;stroke-dasharray:none"
       d="M 30.953171,19.206753 C 29.670748,18.542545 29.641619,18.509256 29.77251,17.8575 l 0.104302,-0.519359 2.117294,0 2.117294,0 0.110149,0.492198 c 0.06058,0.270709 0.08592,0.555338 0.05631,0.632509 -0.04468,0.116422 -2.174666,1.245563 -2.331343,1.23588 -0.02714,-0.0017 -0.474144,-0.223066 -0.993341,-0.491975 l 0,0 z"
       id="path4001"
       inkscape:connector-curvature="0" />
    <path
       style="fill:#eeaaff;fill-opacity:1;stroke:#000000;stroke-width:0.27272728;stroke-miterlimit:4;stroke-opacity:1;stroke-dasharray:none"
       d="m 33.647166,16.54782 c -0.1375,-0.02197 -0.25,-0.05639 -0.25,-0.07649 0,-0.02011 -0.203377,-2.502615 -0.45195,-5.516689 -0.248572,-3.0140745 -0.463345,-5.8058907 -0.477272,-6.2040366 -0.02429,-0.6944782 -0.01609,-0.7282062 0.20195,-0.8298131 0.34988,-0.1630483 0.671283,-0.2188919 0.80043,-0.1390745 0.12322,0.076154 1.642523,3.6061645 3.976104,9.2382432 0.918562,2.216942 1.363169,3.394629 1.304179,3.454546 -0.08891,0.0903 -4.592144,0.154996 -5.103441,0.07332 l 0,0 z m 0.948864,-1.089961 c -0.06562,-0.02626 -0.144034,-0.02303 -0.174242,0.0072 -0.03021,0.03021 0.02348,0.0517 0.119318,0.04775 0.105904,-0.0044 0.127445,-0.0259 0.05492,-0.05492 l 0,4e-6 z m 2.636364,0 c -0.06562,-0.02626 -0.144034,-0.02303 -0.174243,0.0072 -0.03021,0.03021 0.02349,0.0517 0.119318,0.04775 0.105904,-0.0044 0.127446,-0.0259 0.05492,-0.05492 l 0,4e-6 z m -0.289773,-0.213137 c 0,-0.05138 -0.597294,-1.513881 -1.327321,-3.25 -0.730026,-1.736119 -1.368993,-3.2588535 -1.419927,-3.3838535 -0.05093,-0.125 -0.108305,-0.1860032 -0.127492,-0.1355628 -0.04957,0.1303216 0.48579,6.6574213 0.555273,6.7698473 0.0778,0.125886 2.319467,0.125469 2.319467,-4.31e-4 z M 34.226446,8.0949597 c -0.107168,-0.1842924 -0.133047,-0.1253051 -0.04532,0.1033035 0.03118,0.081246 0.07584,0.128569 0.09924,0.1051627 0.02341,-0.023406 -8.55e-4,-0.1172161 -0.05392,-0.2084662 z M 33.815727,7.908217 c -0.03021,-0.030208 -0.0517,0.023485 -0.04775,0.1193182 0.0044,0.1059039 0.0259,0.1274454 0.05492,0.054924 0.02626,-0.065625 0.02303,-0.1440341 -0.0072,-0.1742424 l 0,0 z M 34.03353,7.6667603 c 0,-0.019259 -0.05976,-0.1726686 -0.132805,-0.340909 l -0.132806,-0.3058919 -0.0036,0.3409091 c -0.0025,0.2440058 0.0352,0.3409091 0.132805,0.3409091 0.075,0 0.136364,-0.015758 0.136364,-0.035017 z"
       id="path4003"
       inkscape:connector-curvature="0" />
    <path
       style="fill:#f6d5ff;fill-opacity:1;stroke:#000000;stroke-width:0.27272728;stroke-miterlimit:4;stroke-opacity:1;stroke-dasharray:none"
       d="m 30.78231,45.405147 -1.203325,-1.205807 0,-2.33969 0,-2.339691 2.454545,0 2.454545,0 0,2.296673 0,2.296672 -1.251219,1.248826 -1.25122,1.248825 -1.203326,-1.205808 z m 2.723866,-1.567006 c 0.03851,-0.05 0.07065,-0.8375 0.07142,-1.75 l 0.0014,-1.659091 -1.545455,0 -1.545455,0 0,1.702647 0,1.702647 0.747991,0.751896 0.747991,0.751897 0.726047,-0.704543 c 0.399326,-0.387499 0.757558,-0.745453 0.796072,-0.795453 z"
       id="path4037"
       inkscape:connector-curvature="0" />
  </g>
</svg>
