<?xml version="1.0" encoding="UTF-8" standalone="no"?>
<!-- Created with Inkscape (http://www.inkscape.org/) -->

<svg
   xmlns:dc="http://purl.org/dc/elements/1.1/"
   xmlns:cc="http://creativecommons.org/ns#"
   xmlns:rdf="http://www.w3.org/1999/02/22-rdf-syntax-ns#"
   xmlns:svg="http://www.w3.org/2000/svg"
   xmlns="http://www.w3.org/2000/svg"
   xmlns:sodipodi="http://sodipodi.sourceforge.net/DTD/sodipodi-0.dtd"
   xmlns:inkscape="http://www.inkscape.org/namespaces/inkscape"
   width="64"
   height="128"
   id="svg3971"
   version="1.1"
   inkscape:version="0.48.4 r9939"
   sodipodi:docname="shield.svg"
   inkscape:export-filename="E:\CS104 Backup\CS104\Project 2\shield.png"
   inkscape:export-xdpi="90"
   inkscape:export-ydpi="90">
  <defs
     id="defs3973" />
  <sodipodi:namedview
     id="base"
     pagecolor="#ffffff"
     bordercolor="#666666"
     borderopacity="1.0"
     inkscape:pageopacity="0.0"
     inkscape:pageshadow="2"
     inkscape:zoom="5.6568543"
     inkscape:cx="39.6666"
     inkscape:cy="62.722484"
     inkscape:document-units="px"
     inkscape:current-layer="layer1"
     showgrid="true"
     inkscape:window-width="1920"
     inkscape:window-height="1017"
     inkscape:window-x="-32000"
     inkscape:window-y="-32000"
     inkscape:window-maximized="0">
    <inkscape:grid
       type="xygrid"
       id="grid3979"
       empspacing="16"
       visible="true"
       enabled="true"
       snapvisiblegridlinesonly="true" />
  </sodipodi:namedview>
  <metadata
     id="metadata3976">
    <rdf:RDF>
      <cc:Work
         rdf:about="">
        <dc:format>image/svg+xml</dc:format>
        <dc:type
           rdf:resource="http://purl.org/dc/dcmitype/StillImage" />
        <dc:title></dc:title>
      </cc:Work>
    </rdf:RDF>
  </metadata>
  <g
     inkscape:label="Layer 1"
     inkscape:groupmode="layer"
     id="layer1"
     transform="translate(0,-924.36218)">
    <path
       style="fill:none;stroke:#000000;stroke-width:1px;stroke-linecap:butt;stroke-linejoin:miter;stroke-opacity:1"
       d="M 64,0 48,64 32,0 z"
       id="path3999"
       inkscape:connector-curvature="0"
       transform="translate(0,924.36218)" />
    <path
       style="fill:none;stroke:#000000;stroke-width:1px;stroke-linecap:butt;stroke-linejoin:miter;stroke-opacity:1"
       d="m 48,64 16,64 -32,0 z"
       id="path4001"
       inkscape:connector-curvature="0"
       transform="translate(0,924.36218)" />
    <path
       style="fill:none;stroke:#000000;stroke-width:1px;stroke-linecap:butt;stroke-linejoin:miter;stroke-opacity:1"
       d="M 48,64 32,128 16,96 48,64"
       id="path4003"
       inkscape:connector-curvature="0"
       transform="translate(0,924.36218)" />
    <path
       style="fill:none;stroke:#000000;stroke-width:1px;stroke-linecap:butt;stroke-linejoin:miter;stroke-opacity:1"
       d="M 32,0 16,32 48,64"
       id="path4005"
       inkscape:connector-curvature="0"
       transform="translate(0,924.36218)" />
    <path
       style="fill:none;stroke:#000000;stroke-width:1px;stroke-linecap:butt;stroke-linejoin:miter;stroke-opacity:1"
       d="M 16,32 0,64 48,64"
       id="path4007"
       inkscape:connector-curvature="0"
       transform="translate(0,924.36218)" />
    <path
       style="fill:none;stroke:#000000;stroke-width:1px;stroke-linecap:butt;stroke-linejoin:miter;stroke-opacity:1"
       d="M 0,64 16,96"
       id="path4009"
       inkscape:connector-curvature="0"
       transform="translate(0,924.36218)" />
    <path
       style="fill:#c6afe9;fill-opacity:1;stroke:#000000;stroke-width:0.75761443;stroke-miterlimit:4;stroke-opacity:1;stroke-dasharray:none"
       d="M 16.068075,97.020682 C 7.2481807,79.356296 -0.11261973,64.753745 -0.28925909,64.570572 -0.55112258,64.29902 2.3631456,58.270566 15.494374,31.920547 l 16.104796,-32.31697716 16.445059,-0.0204516 16.445056,-0.0204516 -8.046622,32.20630936 -8.04662,32.206308 8.048491,32.190917 8.048491,32.190919 -16.112738,0 c -14.330004,0 -16.12177,0.0432 -16.19439,0.39031 -0.04491,0.21468 -7.297928,-14.06236 -16.117822,-31.726748 z M 62.78763,126.96642 c 0,-0.1333 -13.960826,-56.056199 -14.436797,-57.829497 -0.227287,-0.846783 -0.301795,-0.928469 -0.460708,-0.505076 -0.202245,0.538836 -14.649457,58.038873 -14.649457,58.304963 0,0.0867 6.648067,0.15762 14.773481,0.15762 8.125415,0 14.773481,-0.0576 14.773481,-0.12801 z M 39.018756,96.158504 c 3.906558,-15.695245 7.102501,-28.65008 7.102095,-28.788524 -5.05e-4,-0.138444 -6.52573,6.272537 -14.50072,14.246623 l -14.49998,14.498336 7.23462,14.471851 c 3.979038,7.95952 7.308087,14.39011 7.397885,14.29019 0.08979,-0.0999 3.35954,-13.02323 7.2661,-28.718476 l 0,0 z M 30.937233,79.77412 45.425937,65.283775 31.062678,65.093904 C 18.516491,64.928055 2.2446812,65.080267 1.9527196,65.366211 1.8255532,65.490758 16.118251,94.264468 16.307282,94.264468 c 0.07769,0 6.661164,-6.520656 14.629951,-14.490348 l 0,0 z M 31.094094,48.555065 C 23.039026,40.499099 16.363109,33.907853 16.258723,33.907853 c -0.104385,0 -3.4858,6.591246 -7.5142539,14.647212 l -7.3244621,14.647212 22.159833,0 22.159832,0 L 31.094094,48.555065 z M 39.046409,31.884202 C 35.154645,16.260245 31.904815,3.3065446 31.824561,3.0982006 31.738657,2.8751857 28.684292,8.6914289 24.397907,17.240336 L 17.117165,31.761279 31.5553,46.219706 c 7.940973,7.952133 14.467137,14.37141 14.502588,14.265059 0.03545,-0.106352 -3.119715,-12.976604 -7.011479,-28.600563 l 0,0 z M 55.432932,30.496684 C 59.459867,14.3908 62.708568,1.1671931 62.652267,1.1108917 62.454159,0.91278176 33.240668,0.75486683 33.240668,0.95190588 c 0,0.18486062 13.822425,55.83205412 14.41465,58.03140312 0.146166,0.542826 0.308543,0.94417 0.360837,0.891879 0.05229,-0.05229 3.389842,-13.272619 7.416777,-29.378504 l 0,0 z"
       id="path4023"
       inkscape:connector-curvature="0"
       transform="translate(0,924.36218)" />
    <path
       style="fill:#8787de;fill-opacity:1;stroke:#000000;stroke-width:0.75761443;stroke-miterlimit:4;stroke-opacity:1;stroke-dasharray:none"
       d="m 33.998283,126.27116 c 0,-0.17501 3.162265,-12.92499 7.027256,-28.333305 l 7.027257,-28.015112 7.083522,28.333302 7.083521,28.333305 -14.110778,0 c -11.179855,0 -14.110778,-0.0661 -14.110778,-0.31819 z"
       id="path4027"
       inkscape:connector-curvature="0"
       transform="translate(0,924.36218)" />
    <path
       style="fill:#8787de;fill-opacity:1;stroke:#000000;stroke-width:0.75761443;stroke-miterlimit:4;stroke-opacity:1;stroke-dasharray:none"
       d="M 47.898721,57.898976 C 47.882751,57.829526 44.707159,45.060402 40.841848,29.523137 L 33.814009,1.273569 47.777499,1.367937 c 7.67992,0.051902 14.023568,0.1544461 14.096999,0.227875 0.137461,0.1374623 -6.647279,27.916575 -11.19172,45.822832 -2.551657,10.054179 -2.728754,10.720847 -2.784057,10.480332 z"
       id="path4029"
       inkscape:connector-curvature="0"
       transform="translate(0,924.36218)" />
    <path
       style="fill:#5555ff;fill-opacity:1;stroke:#000000;stroke-width:0.75761443;stroke-miterlimit:4;stroke-opacity:1;stroke-dasharray:none"
       d="m 27.126814,114.95204 c -2.44811,-4.78061 -5.567454,-10.93708 -6.931877,-13.68106 L 17.714168,96.281932 31.348711,82.645635 c 7.498998,-7.499963 13.667109,-13.538594 13.706914,-13.419179 0.06376,0.191269 -7.508378,30.856554 -11.88336,48.124694 l -1.594342,6.2929 -4.451109,-8.69201 z"
       id="path4031"
       inkscape:connector-curvature="0"
       transform="translate(0,924.36218)" />
    <path
       style="fill:#5555ff;fill-opacity:1;stroke:#000000;stroke-width:0.75761443;stroke-miterlimit:4;stroke-opacity:1;stroke-dasharray:none"
       d="M 31.335672,45.250864 17.709573,31.612766 23.896757,19.347282 c 3.402952,-6.746016 6.541967,-12.8945092 6.97559,-13.6633187 l 0.788405,-1.3978355 5.452849,21.9450652 c 6.28302,25.286102 8.031397,32.474539 7.924487,32.581451 -0.04197,0.04197 -6.208061,-6.060827 -13.702416,-13.56178 z"
       id="path4033"
       inkscape:connector-curvature="0"
       transform="translate(0,924.36218)" />
    <path
       style="fill:#5500d4;fill-opacity:1;stroke:#000000;stroke-width:0.75761443;stroke-miterlimit:4;stroke-opacity:1;stroke-dasharray:none"
       d="M 8.9867385,49.151017 C 12.754095,41.700616 15.980269,35.399543 16.156014,35.148633 16.444038,34.73742 17.85622,36.07327 30.476229,48.694816 l 14.000679,14.002385 -21.169954,0 -21.1699549,0 6.8497394,-13.546184 z"
       id="path4039"
       inkscape:connector-curvature="0"
       transform="translate(0,924.36218)" />
    <path
       style="fill:#5500d4;fill-opacity:1;stroke:#000000;stroke-width:0.75761443;stroke-miterlimit:4;stroke-opacity:1;stroke-dasharray:none"
       d="M 10.184688,81.103495 C 6.7789835,74.244088 3.711917,67.995766 3.368985,67.218333 L 2.7454721,65.80482 7.0707958,65.640742 C 12.138761,65.448493 28.60528,65.480441 37.724965,65.700216 l 6.378331,0.153712 -13.863207,13.860607 -13.863211,13.860607 -6.19219,-12.471647 z"
       id="path4041"
       inkscape:connector-curvature="0"
       transform="translate(0,924.36218)" />
  </g>
</svg>
